{"glyphs":{"0":{"ha":793,"x_min":22,"x_max":786,"o":"m 449 707 q 613 678 544 707 q 722 594 681 649 q 774 465 763 540 q 768 297 786 389 q 637 67 740 147 q 369 -12 533 -12 q 201 18 271 -12 q 89 104 131 49 q 35 238 47 160 q 40 411 22 315 q 174 631 68 554 q 449 707 279 707 m 414 597 q 348 556 378 597 q 307 447 318 515 q 292 303 293 368 q 302 192 292 239 q 334 121 313 146 q 388 96 356 96 q 453 135 424 96 q 496 239 483 174 q 513 385 511 319 q 503 499 514 451 q 470 572 493 546 q 414 597 447 597 z "},"1":{"ha":567,"x_min":6,"x_max":575,"o":"m 172 451 q 181 517 179 492 q 175 558 182 543 q 151 579 168 572 q 104 590 133 586 q 99 642 100 614 q 103 699 99 671 q 212 695 154 696 q 336 694 269 694 q 451 695 390 694 q 575 699 513 696 q 556 590 575 643 q 510 581 526 588 q 482 556 493 574 q 463 508 471 539 q 446 424 456 476 l 413 250 q 403 178 404 204 q 408 137 401 151 q 431 115 415 122 q 472 104 447 108 q 477 51 476 76 q 475 -4 478 25 q 366 -1 415 -1 q 249 0 317 0 q 113 -1 172 0 q 6 -4 54 -1 q 15 51 8 26 q 32 104 21 76 q 74 114 57 108 q 101 134 90 119 q 119 175 111 149 q 135 246 126 201 l 172 451 z "},"2":{"ha":675,"x_min":-1,"x_max":660,"o":"m 644 522 q 628 474 640 496 q 592 429 615 451 q 531 383 568 407 q 443 331 494 360 q 351 276 393 303 q 268 218 308 249 q 303 221 288 221 q 336 221 319 221 q 387 219 364 221 q 425 217 410 217 q 460 233 449 217 q 483 293 472 249 q 551 293 513 299 q 615 275 590 288 q 596 160 601 222 q 594 53 590 99 q 563 11 585 26 q 511 -4 540 -4 q 426 -2 475 -4 q 306 0 378 0 q 169 -1 242 0 q 25 -4 96 -1 q 5 57 11 19 q 1 128 -1 94 q 49 178 22 153 q 104 228 76 204 q 160 275 132 253 q 213 314 189 297 q 328 412 290 369 q 374 497 365 454 q 365 574 383 547 q 307 601 346 601 q 278 593 290 601 q 257 564 267 585 q 238 508 247 543 q 217 422 228 474 q 138 429 176 422 q 71 449 99 436 q 91 542 85 492 q 97 636 97 592 q 234 690 160 672 q 400 707 308 707 q 593 656 526 707 q 644 522 660 606 z "},"3":{"ha":657,"x_min":-46,"x_max":650,"o":"m 632 496 q 582 405 622 447 q 457 325 542 363 q 575 217 539 288 q 588 39 611 147 q 531 -79 572 -28 q 428 -166 490 -131 q 285 -219 365 -201 q 111 -237 204 -237 q 20 -226 63 -237 q -46 -196 -22 -215 q -40 -172 -46 -186 q -28 -144 -35 -158 q -13 -119 -21 -131 q 1 -104 -6 -108 q 119 -126 47 -126 q 324 15 293 -126 q 299 149 342 100 q 171 192 256 197 q 153 244 157 211 q 156 304 149 278 q 302 362 243 324 q 374 472 361 400 q 365 566 385 531 q 300 601 344 601 q 271 593 283 601 q 249 565 258 585 q 229 510 239 544 q 208 422 219 475 q 178 424 199 421 q 133 431 157 426 q 90 440 110 435 q 63 449 69 446 q 82 540 75 489 q 90 636 89 592 q 219 690 151 672 q 372 707 286 707 q 588 650 526 707 q 632 496 650 593 z "},"4":{"ha":785,"x_min":-15,"x_max":733,"o":"m 672 207 q 733 161 718 207 q 706 88 718 129 q 685 0 694 47 l 581 0 l 540 -212 q 422 -212 475 -206 q 319 -237 368 -218 q 282 -161 272 -214 l 313 -1 q 142 -3 217 -3 q 17 -7 68 -4 q -8 64 0 25 q -12 142 -15 103 q 270 424 131 282 q 546 710 410 565 q 711 679 646 710 l 621 207 l 672 207 m 361 246 q 385 353 375 313 q 406 426 394 394 q 362 372 385 399 q 311 318 339 346 q 253 263 283 290 q 192 207 222 235 l 354 207 l 361 246 z "},"5":{"ha":635,"x_min":-58,"x_max":639,"o":"m 146 699 q 290 695 225 696 q 419 694 356 694 q 500 771 488 694 q 571 774 532 776 q 639 761 610 772 q 612 639 621 701 q 597 518 603 576 q 525 476 581 476 q 323 476 404 476 q 186 474 242 476 l 165 400 q 484 286 390 371 q 546 43 578 201 q 494 -74 533 -22 q 397 -162 456 -125 q 265 -218 339 -199 q 107 -237 190 -237 q 10 -229 54 -237 q -58 -206 -35 -221 q -12 -108 -47 -146 q 43 -122 15 -118 q 100 -125 71 -125 q 222 -91 175 -125 q 279 1 268 -57 q 242 130 296 86 q 47 192 188 174 q 26 236 32 214 q 22 286 19 258 l 146 699 z "},"6":{"ha":782,"x_min":6,"x_max":756,"o":"m 715 886 q 718 785 738 853 q 483 689 579 757 q 339 519 388 621 q 428 542 388 535 q 513 549 468 549 q 626 528 576 549 q 705 471 675 508 q 745 381 735 433 q 743 265 756 329 q 613 59 717 131 q 342 -12 510 -12 q 82 95 158 -12 q 46 404 6 203 q 262 746 89 621 q 715 886 435 871 m 304 408 q 290 183 276 261 q 356 104 304 104 q 429 138 400 104 q 471 235 458 172 q 463 381 489 326 q 375 436 436 436 q 308 426 339 436 l 304 408 z "},"7":{"ha":626,"x_min":43,"x_max":660,"o":"m 306 474 q 225 451 256 474 q 168 371 194 429 q 103 373 139 368 q 43 390 68 378 q 87 547 69 465 q 111 699 104 629 q 238 695 171 696 q 375 694 304 694 q 433 694 400 694 q 499 695 465 694 q 567 697 533 696 q 629 699 601 697 q 652 642 644 672 q 657 585 660 613 q 548 442 592 501 q 476 336 504 382 q 429 253 447 290 q 396 179 411 217 q 365 53 376 129 q 353 -149 353 -22 q 243 -183 299 -160 q 144 -236 188 -206 q 104 -201 119 -226 q 89 -140 89 -176 q 97 -71 89 -110 q 139 35 104 -32 q 246 208 174 103 q 447 474 318 313 l 306 474 z "},"8":{"ha":757,"x_min":-4,"x_max":776,"o":"m 760 683 q 578 506 738 569 q 696 365 668 438 q 706 197 724 293 q 669 113 697 151 q 595 47 642 75 q 485 3 549 19 q 339 -12 421 -12 q 76 49 157 -12 q 21 242 -4 111 q 47 311 28 279 q 93 370 67 343 q 151 418 119 397 q 217 454 183 439 q 139 564 161 503 q 132 696 117 625 q 242 834 150 783 q 475 885 333 885 q 710 831 643 885 q 760 683 776 776 m 388 731 q 394 650 378 686 q 467 576 411 614 q 522 682 513 619 q 515 760 532 731 q 461 790 499 790 q 413 772 432 790 q 388 731 393 754 m 439 181 q 426 279 450 235 q 329 376 403 324 q 305 331 315 357 q 288 272 294 306 q 282 204 281 236 q 292 149 283 172 q 318 110 301 125 q 357 96 335 96 q 410 119 389 96 q 439 181 432 143 z "},"9":{"ha":776,"x_min":6,"x_max":764,"o":"m 460 703 q 602 677 540 703 q 702 601 664 651 q 752 475 740 550 q 744 300 764 400 q 660 89 721 183 q 506 -74 600 -6 q 289 -183 413 -142 q 18 -235 165 -225 q 7 -192 8 -219 q 15 -133 6 -165 q 170 -87 103 -115 q 288 -21 238 -58 q 373 62 338 17 q 432 157 408 107 q 356 135 397 143 q 272 128 315 128 q 85 208 146 128 q 51 435 24 288 q 178 630 75 557 q 460 703 282 703 m 488 331 q 501 450 500 401 q 494 528 503 499 q 469 572 486 558 q 431 586 453 586 q 359 549 388 586 q 319 460 331 513 q 311 374 311 414 q 322 305 311 335 q 355 258 333 275 q 413 240 376 240 q 468 250 443 240 q 479 290 475 269 q 488 331 483 311 z "},"Æ":{"ha":1422,"x_min":-50,"x_max":1301,"o":"m 849 489 l 861 489 q 948 510 924 489 q 979 590 972 532 q 1106 597 1040 603 q 1088 515 1096 558 q 1072 418 1079 471 q 1063 341 1067 381 q 1058 265 1060 301 q 996 271 1025 267 q 939 286 967 275 q 936 326 939 307 q 924 362 933 346 q 896 388 914 378 q 847 397 878 397 l 833 397 l 810 253 q 801 171 801 200 q 813 126 801 142 q 849 108 825 111 q 911 104 872 104 q 1029 148 982 104 q 1111 303 1076 192 q 1185 285 1154 296 q 1246 250 1215 274 q 1212 133 1229 201 q 1186 -4 1194 65 q 1110 -2 1154 -3 q 1015 -1 1065 -1 q 914 0 965 0 q 818 0 863 0 q 724 0 782 0 q 606 -1 667 0 q 490 -2 546 -1 q 401 -4 435 -3 q 408 50 403 24 q 428 106 414 76 q 472 113 454 107 q 500 136 489 119 q 519 184 511 153 q 536 268 528 215 l 558 396 q 445 392 492 394 q 360 386 399 390 l 247 226 q 203 136 200 161 q 251 104 207 111 q 255 52 254 79 q 249 -4 256 25 q 216 -2 238 -3 q 169 -1 194 -1 q 119 0 144 0 q 78 0 94 0 q 8 -1 43 0 q -50 -4 -28 -1 q -44 53 -49 28 q -29 104 -40 78 q 3 113 -12 107 q 37 133 19 119 q 76 169 54 146 q 126 231 97 193 q 180 302 150 261 q 251 401 210 343 q 347 535 293 458 q 475 714 401 611 q 495 793 506 757 q 421 835 485 829 q 414 889 414 858 q 419 943 414 919 q 526 941 472 942 q 637 940 579 940 q 760 939 694 939 q 904 939 826 939 q 1044 939 983 939 q 1152 940 1106 939 q 1235 941 1199 940 q 1301 943 1271 942 q 1288 819 1292 885 q 1289 690 1283 753 q 1153 674 1224 674 q 1143 740 1150 710 q 1118 790 1136 769 q 1068 823 1100 811 q 985 835 1036 835 l 906 835 l 849 489 m 639 806 q 550 663 599 738 q 432 489 501 589 l 574 489 l 599 626 q 617 718 606 671 q 640 806 628 765 l 639 806 z "},"Á":{"ha":986,"x_min":-50,"x_max":919,"o":"m 213 211 q 198 142 189 172 q 251 104 207 111 q 255 52 254 79 q 249 -4 256 25 q 216 -2 238 -3 q 169 -1 194 -1 q 119 0 144 0 q 78 0 94 0 q 8 -1 43 0 q -50 -4 -28 -1 q -44 53 -49 28 q -29 104 -40 78 q 3 115 -12 107 q 33 138 18 122 q 68 178 49 153 q 113 244 88 204 q 172 338 138 283 q 253 474 206 393 q 369 667 301 554 q 528 939 436 781 q 579 947 556 946 q 635 947 603 947 q 696 749 667 846 q 749 564 725 651 q 793 401 774 476 q 825 271 813 326 q 847 185 838 217 q 867 135 857 153 q 888 112 878 118 q 914 104 899 106 q 919 56 918 85 q 915 -4 919 28 q 864 -2 894 -3 q 801 -1 833 -1 q 740 0 768 0 q 694 0 711 0 q 645 0 678 0 q 576 -1 613 0 q 504 -2 539 -1 q 449 -4 469 -3 q 468 104 450 61 q 539 139 526 115 q 540 210 551 163 l 535 231 q 379 228 458 231 q 217 217 300 225 l 213 211 m 513 321 q 490 405 501 363 q 467 489 479 447 q 452 553 458 517 q 442 631 446 590 q 404 555 422 590 q 372 492 386 519 q 325 406 349 449 q 278 321 301 364 l 513 321 m 607 1301 q 740 1304 676 1311 q 840 1278 804 1297 q 716 1147 772 1211 q 624 1026 660 1082 q 493 1072 551 1033 q 528 1133 511 1101 q 561 1197 546 1165 q 588 1255 576 1228 q 607 1301 600 1282 z "},"Â":{"ha":986,"x_min":-50,"x_max":919,"o":"m 213 211 q 198 142 189 172 q 251 104 207 111 q 255 52 254 79 q 249 -4 256 25 q 216 -2 238 -3 q 169 -1 194 -1 q 119 0 144 0 q 78 0 94 0 q 8 -1 43 0 q -50 -4 -28 -1 q -44 53 -49 28 q -29 104 -40 78 q 3 115 -12 107 q 33 138 18 122 q 68 178 49 153 q 113 244 88 204 q 172 338 138 283 q 253 474 206 393 q 369 667 301 554 q 528 939 436 781 q 579 947 556 946 q 635 947 603 947 q 696 749 667 846 q 749 564 725 651 q 793 401 774 476 q 825 271 813 326 q 847 185 838 217 q 867 135 857 153 q 888 112 878 118 q 914 104 899 106 q 919 56 918 85 q 915 -4 919 28 q 864 -2 894 -3 q 801 -1 833 -1 q 740 0 768 0 q 694 0 711 0 q 645 0 678 0 q 576 -1 613 0 q 504 -2 539 -1 q 449 -4 469 -3 q 468 104 450 61 q 539 139 526 115 q 540 210 551 163 l 535 231 q 379 228 458 231 q 217 217 300 225 l 213 211 m 513 321 q 490 405 501 363 q 467 489 479 447 q 452 553 458 517 q 442 631 446 590 q 404 555 422 590 q 372 492 386 519 q 325 406 349 449 q 278 321 301 364 l 513 321 m 597 1301 q 656 1303 625 1306 q 715 1292 688 1301 q 796 1188 751 1240 q 901 1069 840 1135 q 850 1040 882 1050 q 779 1026 818 1029 q 697 1086 740 1058 q 613 1133 653 1114 q 561 1106 589 1122 q 506 1074 533 1090 q 453 1041 478 1057 q 411 1013 428 1025 q 356 1056 376 1026 q 332 1110 336 1086 q 401 1151 365 1128 q 473 1201 438 1175 q 540 1252 508 1226 q 597 1301 572 1278 z "},"Ä":{"ha":986,"x_min":-50,"x_max":919,"o":"m 213 211 q 198 142 189 172 q 251 104 207 111 q 255 52 254 79 q 249 -4 256 25 q 216 -2 238 -3 q 169 -1 194 -1 q 119 0 144 0 q 78 0 94 0 q 8 -1 43 0 q -50 -4 -28 -1 q -44 53 -49 28 q -29 104 -40 78 q 3 115 -12 107 q 33 138 18 122 q 68 178 49 153 q 113 244 88 204 q 172 338 138 283 q 253 474 206 393 q 369 667 301 554 q 528 939 436 781 q 579 947 556 946 q 635 947 603 947 q 696 749 667 846 q 749 564 725 651 q 793 401 774 476 q 825 271 813 326 q 847 185 838 217 q 867 135 857 153 q 888 112 878 118 q 914 104 899 106 q 919 56 918 85 q 915 -4 919 28 q 864 -2 894 -3 q 801 -1 833 -1 q 740 0 768 0 q 694 0 711 0 q 645 0 678 0 q 576 -1 613 0 q 504 -2 539 -1 q 449 -4 469 -3 q 468 104 450 61 q 539 139 526 115 q 540 210 551 163 l 535 231 q 379 228 458 231 q 217 217 300 225 l 213 211 m 513 321 q 490 405 501 363 q 467 489 479 447 q 452 553 458 517 q 442 631 446 590 q 404 555 422 590 q 372 492 386 519 q 325 406 349 449 q 278 321 301 364 l 513 321 m 339 1142 q 380 1219 349 1192 q 468 1246 411 1246 q 563 1206 533 1246 q 576 1100 592 1167 q 533 1021 564 1049 q 449 993 501 993 q 354 1034 383 993 q 339 1142 325 1075 m 896 1103 q 764 993 875 993 q 669 1031 699 993 q 651 1133 639 1069 q 693 1217 660 1188 q 789 1246 726 1246 q 881 1208 851 1246 q 896 1103 910 1169 z "},"À":{"ha":986,"x_min":-50,"x_max":919,"o":"m 213 211 q 198 142 189 172 q 251 104 207 111 q 255 52 254 79 q 249 -4 256 25 q 216 -2 238 -3 q 169 -1 194 -1 q 119 0 144 0 q 78 0 94 0 q 8 -1 43 0 q -50 -4 -28 -1 q -44 53 -49 28 q -29 104 -40 78 q 3 115 -12 107 q 33 138 18 122 q 68 178 49 153 q 113 244 88 204 q 172 338 138 283 q 253 474 206 393 q 369 667 301 554 q 528 939 436 781 q 579 947 556 946 q 635 947 603 947 q 696 749 667 846 q 749 564 725 651 q 793 401 774 476 q 825 271 813 326 q 847 185 838 217 q 867 135 857 153 q 888 112 878 118 q 914 104 899 106 q 919 56 918 85 q 915 -4 919 28 q 864 -2 894 -3 q 801 -1 833 -1 q 740 0 768 0 q 694 0 711 0 q 645 0 678 0 q 576 -1 613 0 q 504 -2 539 -1 q 449 -4 469 -3 q 468 104 450 61 q 539 139 526 115 q 540 210 551 163 l 535 231 q 379 228 458 231 q 217 217 300 225 l 213 211 m 513 321 q 490 405 501 363 q 467 489 479 447 q 452 553 458 517 q 442 631 446 590 q 404 555 422 590 q 372 492 386 519 q 325 406 349 449 q 278 321 301 364 l 513 321 m 392 1269 q 500 1288 442 1283 q 617 1282 558 1293 q 642 1169 626 1231 q 678 1056 658 1108 q 612 1047 649 1047 q 547 1057 575 1047 q 479 1160 515 1111 q 392 1269 443 1208 z "},"Å":{"ha":986,"x_min":-50,"x_max":919,"o":"m 213 211 q 198 142 189 172 q 251 104 207 111 q 255 52 254 79 q 249 -4 256 25 q 216 -2 238 -3 q 169 -1 194 -1 q 119 0 144 0 q 78 0 94 0 q 8 -1 43 0 q -50 -4 -28 -1 q -44 53 -49 28 q -29 104 -40 78 q 3 115 -12 107 q 33 138 18 122 q 68 178 49 153 q 113 244 88 204 q 172 338 138 283 q 253 474 206 393 q 369 667 301 554 q 528 939 436 781 q 579 947 556 946 q 635 947 603 947 q 696 749 667 846 q 749 564 725 651 q 793 401 774 476 q 825 271 813 326 q 847 185 838 217 q 867 135 857 153 q 888 112 878 118 q 914 104 899 106 q 919 56 918 85 q 915 -4 919 28 q 864 -2 894 -3 q 801 -1 833 -1 q 740 0 768 0 q 694 0 711 0 q 645 0 678 0 q 576 -1 613 0 q 504 -2 539 -1 q 449 -4 469 -3 q 468 104 450 61 q 539 139 526 115 q 540 210 551 163 l 535 231 q 379 228 458 231 q 217 217 300 225 l 213 211 m 513 321 q 490 405 501 363 q 467 489 479 447 q 452 553 458 517 q 442 631 446 590 q 404 555 422 590 q 372 492 386 519 q 325 406 349 449 q 278 321 301 364 l 513 321 m 644 1315 q 783 1274 740 1315 q 813 1153 826 1232 q 744 1056 801 1092 q 604 1019 688 1019 q 467 1062 510 1019 q 438 1183 424 1104 q 506 1279 449 1243 q 644 1315 563 1315 m 633 1239 q 581 1171 592 1239 q 585 1122 575 1142 q 618 1103 594 1103 q 651 1119 636 1103 q 672 1163 667 1135 q 669 1213 676 1188 q 633 1239 661 1239 z "},"Ã":{"ha":986,"x_min":-50,"x_max":922,"o":"m 213 211 q 198 142 189 172 q 251 104 207 111 q 255 52 254 79 q 249 -4 256 25 q 216 -2 238 -3 q 169 -1 194 -1 q 119 0 144 0 q 78 0 94 0 q 8 -1 43 0 q -50 -4 -28 -1 q -44 53 -49 28 q -29 104 -40 78 q 3 115 -12 107 q 33 138 18 122 q 68 178 49 153 q 113 244 88 204 q 172 338 138 283 q 253 474 206 393 q 369 667 301 554 q 528 939 436 781 q 579 947 556 946 q 635 947 603 947 q 696 749 667 846 q 749 564 725 651 q 793 401 774 476 q 825 271 813 326 q 847 185 838 217 q 867 135 857 153 q 888 112 878 118 q 914 104 899 106 q 919 56 918 85 q 915 -4 919 28 q 864 -2 894 -3 q 801 -1 833 -1 q 740 0 768 0 q 694 0 711 0 q 645 0 678 0 q 576 -1 613 0 q 504 -2 539 -1 q 449 -4 469 -3 q 468 104 450 61 q 539 139 526 115 q 540 210 551 163 l 535 231 q 379 228 458 231 q 217 217 300 225 l 213 211 m 513 321 q 490 405 501 363 q 467 489 479 447 q 452 553 458 517 q 442 631 446 590 q 404 555 422 590 q 372 492 386 519 q 325 406 349 449 q 278 321 301 364 l 513 321 m 543 1257 q 606 1248 579 1257 q 655 1228 632 1239 q 698 1209 678 1218 q 742 1200 718 1200 q 817 1217 785 1200 q 869 1249 849 1233 q 904 1203 890 1228 q 922 1147 918 1179 q 815 1033 864 1068 q 704 997 765 997 q 639 1007 665 997 q 590 1029 613 1017 q 547 1051 568 1042 q 497 1061 525 1061 q 419 1042 461 1061 q 343 996 376 1022 q 312 1048 322 1022 q 301 1110 301 1074 q 376 1185 342 1157 q 442 1230 411 1214 q 497 1251 472 1246 q 543 1257 522 1257 z "},"B":{"ha":989,"x_min":13,"x_max":985,"o":"m 221 696 q 228 763 228 738 q 221 802 229 788 q 195 824 213 817 q 151 835 178 831 q 146 887 144 858 q 150 943 147 915 q 225 940 182 940 q 304 939 268 939 q 445 941 360 939 q 618 943 531 943 q 806 926 732 943 q 922 878 881 910 q 974 802 963 847 q 975 699 985 757 q 901 578 964 628 q 722 511 838 528 q 840 487 793 507 q 915 431 888 467 q 949 348 942 396 q 946 242 956 300 q 906 142 936 186 q 819 66 875 97 q 678 17 763 35 q 475 0 593 0 q 228 -1 347 0 q 13 -4 108 -1 q 22 53 15 26 q 40 104 29 79 q 83 112 67 106 q 111 135 100 118 q 130 185 122 153 q 147 274 138 218 l 221 696 m 515 540 q 635 586 583 540 q 701 717 686 632 q 682 805 711 775 q 599 835 653 835 q 556 828 574 835 q 518 814 538 822 l 471 540 l 515 540 m 418 233 q 412 161 410 188 q 423 122 414 135 q 447 106 432 108 q 479 103 463 103 q 583 151 535 103 q 647 282 632 199 q 648 353 654 325 q 622 397 642 381 q 570 419 603 413 q 492 425 538 425 l 451 425 l 418 233 z "},"C":{"ha":865,"x_min":51,"x_max":917,"o":"m 614 951 q 774 935 699 951 q 917 878 850 919 q 871 663 883 779 q 808 649 843 651 q 739 653 774 646 q 740 748 746 711 q 717 806 733 785 q 674 836 700 828 q 617 844 649 844 q 519 814 563 844 q 442 733 475 783 q 386 617 408 682 q 351 482 364 551 q 341 338 338 404 q 369 222 344 271 q 439 146 393 174 q 556 118 485 118 q 651 130 600 118 q 761 171 701 142 q 785 128 778 153 q 796 75 793 104 q 651 10 729 32 q 476 -12 574 -12 q 277 26 363 -12 q 140 132 192 64 q 69 294 88 200 q 71 503 51 389 q 144 699 90 615 q 272 840 197 783 q 435 924 347 896 q 614 951 524 951 z "},"Ç":{"ha":865,"x_min":53,"x_max":917,"o":"m 385 -6 q 226 52 293 8 q 119 162 160 96 q 65 315 78 228 q 71 503 53 401 q 144 699 90 615 q 272 840 197 783 q 435 924 347 896 q 614 951 524 951 q 774 935 699 951 q 917 878 850 919 q 871 663 883 779 q 808 649 843 651 q 739 653 774 646 q 740 748 746 711 q 717 806 733 785 q 674 836 700 828 q 617 844 649 844 q 519 814 563 844 q 442 733 475 783 q 386 617 408 682 q 351 482 364 551 q 341 338 338 404 q 369 222 344 271 q 439 146 393 174 q 556 118 485 118 q 651 130 600 118 q 761 171 701 142 q 785 128 778 153 q 796 75 793 104 q 663 13 733 35 q 506 -12 593 -10 l 456 -64 q 524 -118 507 -81 q 532 -206 542 -156 q 451 -305 519 -271 q 263 -336 383 -339 q 258 -301 257 -321 q 264 -265 260 -281 q 346 -253 310 -267 q 386 -215 382 -239 q 371 -168 393 -183 q 314 -153 349 -153 q 301 -87 297 -124 l 385 -6 z "},"D":{"ha":1018,"x_min":14,"x_max":1036,"o":"m 218 696 q 226 763 225 738 q 219 803 226 789 q 194 825 211 818 q 150 835 176 832 q 144 892 144 863 q 150 943 144 922 q 206 941 174 942 q 276 940 239 940 q 353 939 314 939 q 431 939 393 939 q 500 940 463 939 q 583 942 538 942 q 776 922 688 942 q 926 850 865 903 q 1012 705 988 797 q 1011 465 1036 613 q 951 280 992 357 q 856 151 910 203 q 742 69 803 99 q 624 24 682 39 q 514 4 565 8 q 428 0 463 0 l 425 0 q 329 0 388 0 q 210 -1 271 0 q 95 -2 149 -1 q 14 -4 42 -3 q 21 50 15 24 q 39 104 26 76 q 83 113 65 106 q 111 138 100 119 q 130 188 122 156 q 146 274 138 221 l 218 696 m 418 253 q 409 175 410 204 q 417 131 408 146 q 445 110 426 115 q 496 104 464 104 q 543 117 513 104 q 609 169 574 129 q 678 288 644 210 q 736 496 713 365 q 749 668 754 601 q 721 772 743 735 q 663 824 699 810 q 588 838 628 838 q 550 834 568 838 q 513 821 532 831 l 418 253 z "},"E":{"ha":886,"x_min":14,"x_max":914,"o":"m 468 531 l 476 531 q 528 534 507 531 q 563 548 550 538 q 583 576 576 558 q 594 624 590 594 q 721 631 656 636 q 703 548 711 592 q 688 451 694 504 q 678 374 682 414 q 674 299 675 335 q 611 304 640 300 q 554 319 582 308 q 551 359 554 340 q 539 393 549 378 q 511 417 529 408 q 463 426 493 426 l 451 426 l 422 253 q 414 175 414 204 q 423 131 414 146 q 452 110 432 115 q 504 104 472 104 l 524 104 q 642 148 594 104 q 724 303 689 192 q 797 285 767 296 q 858 250 828 274 q 824 133 842 201 q 799 -4 807 65 q 722 -2 767 -3 q 628 -1 678 -1 q 526 0 578 0 q 431 0 475 0 q 337 0 394 0 q 219 -1 279 0 q 103 -2 158 -1 q 14 -4 47 -3 q 21 50 15 24 q 40 106 26 76 q 84 114 67 107 q 113 138 101 121 q 131 188 124 156 q 149 274 139 221 l 222 696 q 229 763 229 738 q 221 802 229 788 q 194 824 213 817 q 150 835 176 831 q 145 886 146 861 q 150 943 144 911 q 230 941 182 942 q 331 940 278 940 q 435 939 383 939 q 526 939 486 939 q 663 939 603 939 q 768 940 722 939 q 849 941 814 940 q 914 943 885 942 q 900 819 904 885 q 901 690 896 753 q 765 674 836 674 q 756 740 763 710 q 731 790 749 769 q 681 823 713 811 q 597 835 649 835 l 519 835 l 468 531 z "},"É":{"ha":886,"x_min":14,"x_max":914,"o":"m 468 531 l 476 531 q 528 534 507 531 q 563 548 550 538 q 583 576 576 558 q 594 624 590 594 q 721 631 656 636 q 703 548 711 592 q 688 451 694 504 q 678 374 682 414 q 674 299 675 335 q 611 304 640 300 q 554 319 582 308 q 551 359 554 340 q 539 393 549 378 q 511 417 529 408 q 463 426 493 426 l 451 426 l 422 253 q 414 175 414 204 q 423 131 414 146 q 452 110 432 115 q 504 104 472 104 l 524 104 q 642 148 594 104 q 724 303 689 192 q 797 285 767 296 q 858 250 828 274 q 824 133 842 201 q 799 -4 807 65 q 722 -2 767 -3 q 628 -1 678 -1 q 526 0 578 0 q 431 0 475 0 q 337 0 394 0 q 219 -1 279 0 q 103 -2 158 -1 q 14 -4 47 -3 q 21 50 15 24 q 40 106 26 76 q 84 114 67 107 q 113 138 101 121 q 131 188 124 156 q 149 274 139 221 l 222 696 q 229 763 229 738 q 221 802 229 788 q 194 824 213 817 q 150 835 176 831 q 145 886 146 861 q 150 943 144 911 q 230 941 182 942 q 331 940 278 940 q 435 939 383 939 q 526 939 486 939 q 663 939 603 939 q 768 940 722 939 q 849 941 814 940 q 914 943 885 942 q 900 819 904 885 q 901 690 896 753 q 765 674 836 674 q 756 740 763 710 q 731 790 749 769 q 681 823 713 811 q 597 835 649 835 l 519 835 l 468 531 m 557 1301 q 690 1304 626 1311 q 790 1278 754 1297 q 666 1147 722 1211 q 574 1026 610 1082 q 443 1072 501 1033 q 478 1133 461 1101 q 511 1197 496 1165 q 538 1255 526 1228 q 557 1301 550 1282 z "},"Ê":{"ha":886,"x_min":14,"x_max":914,"o":"m 468 531 l 476 531 q 528 534 507 531 q 563 548 550 538 q 583 576 576 558 q 594 624 590 594 q 721 631 656 636 q 703 548 711 592 q 688 451 694 504 q 678 374 682 414 q 674 299 675 335 q 611 304 640 300 q 554 319 582 308 q 551 359 554 340 q 539 393 549 378 q 511 417 529 408 q 463 426 493 426 l 451 426 l 422 253 q 414 175 414 204 q 423 131 414 146 q 452 110 432 115 q 504 104 472 104 l 524 104 q 642 148 594 104 q 724 303 689 192 q 797 285 767 296 q 858 250 828 274 q 824 133 842 201 q 799 -4 807 65 q 722 -2 767 -3 q 628 -1 678 -1 q 526 0 578 0 q 431 0 475 0 q 337 0 394 0 q 219 -1 279 0 q 103 -2 158 -1 q 14 -4 47 -3 q 21 50 15 24 q 40 106 26 76 q 84 114 67 107 q 113 138 101 121 q 131 188 124 156 q 149 274 139 221 l 222 696 q 229 763 229 738 q 221 802 229 788 q 194 824 213 817 q 150 835 176 831 q 145 886 146 861 q 150 943 144 911 q 230 941 182 942 q 331 940 278 940 q 435 939 383 939 q 526 939 486 939 q 663 939 603 939 q 768 940 722 939 q 849 941 814 940 q 914 943 885 942 q 900 819 904 885 q 901 690 896 753 q 765 674 836 674 q 756 740 763 710 q 731 790 749 769 q 681 823 713 811 q 597 835 649 835 l 519 835 l 468 531 m 547 1301 q 606 1303 575 1306 q 665 1292 638 1301 q 746 1188 701 1240 q 851 1069 790 1135 q 800 1040 832 1050 q 729 1026 768 1029 q 647 1086 690 1058 q 563 1133 603 1114 q 511 1106 539 1122 q 456 1074 483 1090 q 403 1041 428 1057 q 361 1013 378 1025 q 306 1056 326 1026 q 282 1110 286 1086 q 351 1151 315 1128 q 423 1201 388 1175 q 490 1252 458 1226 q 547 1301 522 1278 z "},"Ë":{"ha":886,"x_min":14,"x_max":914,"o":"m 468 531 l 476 531 q 528 534 507 531 q 563 548 550 538 q 583 576 576 558 q 594 624 590 594 q 721 631 656 636 q 703 548 711 592 q 688 451 694 504 q 678 374 682 414 q 674 299 675 335 q 611 304 640 300 q 554 319 582 308 q 551 359 554 340 q 539 393 549 378 q 511 417 529 408 q 463 426 493 426 l 451 426 l 422 253 q 414 175 414 204 q 423 131 414 146 q 452 110 432 115 q 504 104 472 104 l 524 104 q 642 148 594 104 q 724 303 689 192 q 797 285 767 296 q 858 250 828 274 q 824 133 842 201 q 799 -4 807 65 q 722 -2 767 -3 q 628 -1 678 -1 q 526 0 578 0 q 431 0 475 0 q 337 0 394 0 q 219 -1 279 0 q 103 -2 158 -1 q 14 -4 47 -3 q 21 50 15 24 q 40 106 26 76 q 84 114 67 107 q 113 138 101 121 q 131 188 124 156 q 149 274 139 221 l 222 696 q 229 763 229 738 q 221 802 229 788 q 194 824 213 817 q 150 835 176 831 q 145 886 146 861 q 150 943 144 911 q 230 941 182 942 q 331 940 278 940 q 435 939 383 939 q 526 939 486 939 q 663 939 603 939 q 768 940 722 939 q 849 941 814 940 q 914 943 885 942 q 900 819 904 885 q 901 690 896 753 q 765 674 836 674 q 756 740 763 710 q 731 790 749 769 q 681 823 713 811 q 597 835 649 835 l 519 835 l 468 531 m 289 1142 q 330 1219 299 1192 q 418 1246 361 1246 q 513 1206 483 1246 q 526 1100 542 1167 q 483 1021 514 1049 q 399 993 451 993 q 304 1034 333 993 q 289 1142 275 1075 m 846 1103 q 714 993 825 993 q 619 1031 649 993 q 601 1133 589 1069 q 643 1217 610 1188 q 739 1246 676 1246 q 831 1208 801 1246 q 846 1103 860 1169 z "},"È":{"ha":886,"x_min":14,"x_max":914,"o":"m 468 531 l 476 531 q 528 534 507 531 q 563 548 550 538 q 583 576 576 558 q 594 624 590 594 q 721 631 656 636 q 703 548 711 592 q 688 451 694 504 q 678 374 682 414 q 674 299 675 335 q 611 304 640 300 q 554 319 582 308 q 551 359 554 340 q 539 393 549 378 q 511 417 529 408 q 463 426 493 426 l 451 426 l 422 253 q 414 175 414 204 q 423 131 414 146 q 452 110 432 115 q 504 104 472 104 l 524 104 q 642 148 594 104 q 724 303 689 192 q 797 285 767 296 q 858 250 828 274 q 824 133 842 201 q 799 -4 807 65 q 722 -2 767 -3 q 628 -1 678 -1 q 526 0 578 0 q 431 0 475 0 q 337 0 394 0 q 219 -1 279 0 q 103 -2 158 -1 q 14 -4 47 -3 q 21 50 15 24 q 40 106 26 76 q 84 114 67 107 q 113 138 101 121 q 131 188 124 156 q 149 274 139 221 l 222 696 q 229 763 229 738 q 221 802 229 788 q 194 824 213 817 q 150 835 176 831 q 145 886 146 861 q 150 943 144 911 q 230 941 182 942 q 331 940 278 940 q 435 939 383 939 q 526 939 486 939 q 663 939 603 939 q 768 940 722 939 q 849 941 814 940 q 914 943 885 942 q 900 819 904 885 q 901 690 896 753 q 765 674 836 674 q 756 740 763 710 q 731 790 749 769 q 681 823 713 811 q 597 835 649 835 l 519 835 l 468 531 m 342 1269 q 450 1288 392 1283 q 567 1282 508 1293 q 592 1169 576 1231 q 628 1056 608 1108 q 562 1047 599 1047 q 497 1057 525 1047 q 429 1160 465 1111 q 342 1269 393 1208 z "},"Ð":{"ha":1018,"x_min":14,"x_max":1036,"o":"m 218 696 q 226 763 225 738 q 219 803 226 789 q 194 825 211 818 q 150 835 176 832 q 144 892 144 863 q 150 943 144 922 q 206 941 174 942 q 276 940 239 940 q 353 939 314 939 q 431 939 393 939 q 500 940 463 939 q 583 942 538 942 q 776 922 688 942 q 926 850 865 903 q 1012 705 988 797 q 1011 465 1036 613 q 951 280 992 357 q 856 151 910 203 q 742 69 803 99 q 624 24 682 39 q 514 4 565 8 q 428 0 463 0 l 424 0 q 328 0 386 0 q 209 -1 269 0 q 95 -2 149 -1 q 14 -4 42 -3 q 21 50 15 24 q 39 104 26 76 q 83 113 65 106 q 111 138 100 119 q 130 188 122 156 q 146 274 138 221 l 168 400 q 123 400 138 400 q 72 397 108 400 q 74 454 69 426 q 93 508 78 482 l 186 508 l 218 696 m 418 253 q 409 175 410 204 q 417 131 408 146 q 445 110 426 115 q 496 104 464 104 q 543 117 513 104 q 609 169 574 129 q 678 288 644 210 q 736 496 713 365 q 749 668 754 601 q 721 772 743 735 q 663 824 699 810 q 588 838 628 838 q 550 834 568 838 q 513 821 532 831 l 461 508 l 572 508 q 573 453 576 481 q 557 401 569 425 l 443 401 l 418 253 z "},"F":{"ha":842,"x_min":8,"x_max":913,"o":"m 221 696 q 228 763 228 738 q 221 802 229 788 q 195 824 213 817 q 151 835 178 831 q 147 886 147 858 q 150 943 147 914 q 247 941 196 942 q 347 940 297 940 q 443 939 397 939 q 525 939 489 939 q 661 939 601 939 q 767 940 721 939 q 848 941 813 940 q 913 943 883 942 q 899 819 903 885 q 900 690 894 753 q 764 674 835 674 q 754 740 761 710 q 729 790 747 769 q 679 823 711 811 q 596 835 647 835 l 518 835 l 457 471 l 479 471 q 531 474 510 471 q 566 488 553 478 q 586 517 579 499 q 597 564 593 535 q 724 571 658 576 q 706 488 714 532 q 690 392 697 444 q 681 312 685 354 q 676 233 678 269 q 614 239 643 235 q 557 254 585 243 q 542 336 558 306 q 465 367 526 367 l 440 367 l 422 260 q 413 188 414 215 q 424 144 413 161 q 462 119 435 128 q 536 104 489 111 q 541 52 540 81 q 539 -4 542 24 q 413 -1 481 -1 q 274 0 346 0 q 135 -1 204 0 q 8 -4 67 -1 q 35 104 15 58 q 79 113 61 106 q 109 138 97 119 q 130 188 121 156 q 147 274 139 221 l 221 696 z "},"G":{"ha":935,"x_min":51,"x_max":939,"o":"m 628 951 q 801 934 722 951 q 936 881 879 917 q 910 778 922 838 q 892 667 899 719 q 824 649 860 653 q 753 651 788 646 q 730 801 761 758 q 622 843 699 843 q 519 813 565 843 q 440 731 474 782 q 383 615 406 681 q 349 482 361 550 q 336 326 333 397 q 357 205 339 256 q 409 126 375 154 q 492 99 443 99 q 528 101 515 99 q 553 111 542 104 q 578 142 569 121 q 596 215 588 164 q 602 281 603 256 q 592 322 601 307 q 563 343 582 336 q 514 354 543 350 q 509 406 510 378 q 513 463 508 435 q 619 459 564 460 q 721 458 675 458 q 826 459 775 458 q 939 463 876 460 q 919 354 939 407 q 888 347 900 351 q 866 327 875 343 q 849 278 857 311 q 831 188 840 246 q 828 130 826 153 q 836 75 829 107 q 672 13 767 38 q 476 -12 578 -12 q 277 26 363 -12 q 140 133 192 64 q 69 296 88 201 q 71 504 51 390 q 144 702 90 618 q 273 842 197 786 q 440 924 349 897 q 628 951 532 951 z "},"ẞ":{"ha":994,"x_min":-32,"x_max":1014,"o":"m 156 586 q 217 769 175 699 q 320 877 260 839 q 456 929 381 915 q 614 943 531 943 q 731 941 672 943 q 838 939 789 939 q 910 940 875 939 q 985 943 944 940 q 1006 891 997 925 q 1011 826 1014 857 q 913 689 968 760 q 800 553 858 618 q 949 453 904 525 q 974 257 994 381 q 860 56 950 125 q 601 -12 769 -12 q 476 7 526 -12 q 388 61 426 26 q 412 159 401 104 q 425 254 422 214 q 492 267 456 265 q 568 258 529 268 q 565 181 564 211 q 570 134 565 151 q 585 110 575 117 q 607 104 594 104 q 656 133 633 104 q 689 219 678 161 q 690 324 699 279 q 658 398 682 368 q 599 444 635 428 q 517 468 563 461 q 495 522 501 492 q 492 585 489 553 q 598 699 543 633 q 704 838 653 765 q 656 839 679 839 q 611 839 633 839 q 549 826 576 839 q 499 782 521 813 q 460 699 478 751 q 431 571 443 647 l 336 0 q 164 -1 260 0 q -32 -4 68 -1 q -23 51 -29 26 q -6 104 -17 76 q 36 115 19 108 q 64 135 53 121 q 83 176 75 150 q 97 246 90 201 l 156 586 z "},"H":{"ha":1125,"x_min":14,"x_max":1172,"o":"m 769 696 q 778 762 776 736 q 772 802 779 788 q 748 824 765 817 q 701 835 731 831 q 697 887 697 858 q 700 943 696 915 q 809 940 751 940 q 933 939 867 939 q 1049 940 988 939 q 1172 943 1110 940 q 1153 835 1172 888 q 1107 825 1124 832 q 1079 801 1090 818 q 1060 752 1068 783 q 1043 668 1053 721 l 971 250 q 962 179 963 206 q 967 138 961 153 q 990 115 974 122 q 1031 104 1006 108 q 1035 51 1035 76 q 1033 -4 1036 25 q 924 -1 974 -1 q 807 0 875 0 q 672 -1 731 0 q 564 -4 613 -1 q 573 51 567 26 q 590 104 579 76 q 632 115 615 108 q 660 135 649 121 q 678 176 671 150 q 693 246 685 201 l 721 411 q 583 408 653 410 q 447 403 513 407 l 421 250 q 412 179 413 206 q 417 138 411 153 q 440 115 424 122 q 481 104 456 108 q 485 51 485 76 q 483 -4 486 25 q 374 -1 424 -1 q 257 0 325 0 q 122 -1 181 0 q 14 -4 63 -1 q 23 51 17 26 q 40 104 29 76 q 82 115 65 108 q 110 135 99 121 q 128 176 121 150 q 143 246 135 201 l 219 696 q 228 762 226 736 q 222 802 229 788 q 198 824 215 817 q 151 835 181 831 q 147 887 147 858 q 150 943 146 915 q 259 940 201 940 q 383 939 317 939 q 499 940 438 939 q 622 943 560 940 q 603 835 622 888 q 557 825 574 832 q 529 801 540 818 q 510 752 518 783 q 493 668 503 721 l 468 524 l 740 524 l 769 696 z "},"I":{"ha":575,"x_min":14,"x_max":622,"o":"m 219 696 q 228 762 226 736 q 222 802 229 788 q 198 824 215 817 q 151 835 181 831 q 147 887 147 858 q 150 943 146 915 q 259 940 201 940 q 383 939 317 939 q 499 940 438 939 q 622 943 560 940 q 603 835 622 888 q 557 825 574 832 q 529 801 540 818 q 510 752 518 783 q 493 668 503 721 l 421 250 q 412 179 413 206 q 417 138 411 153 q 440 115 424 122 q 481 104 456 108 q 485 51 485 76 q 483 -4 486 25 q 374 -1 424 -1 q 257 0 325 0 q 122 -1 181 0 q 14 -4 63 -1 q 23 51 17 26 q 40 104 29 76 q 82 115 65 108 q 110 135 99 121 q 128 176 121 150 q 143 246 135 201 l 219 696 z "},"Í":{"ha":575,"x_min":14,"x_max":644,"o":"m 219 696 q 228 762 226 736 q 222 802 229 788 q 198 824 215 817 q 151 835 181 831 q 147 887 147 858 q 150 943 146 915 q 259 940 201 940 q 383 939 317 939 q 499 940 438 939 q 622 943 560 940 q 603 835 622 888 q 557 825 574 832 q 529 801 540 818 q 510 752 518 783 q 493 668 503 721 l 421 250 q 412 179 413 206 q 417 138 411 153 q 440 115 424 122 q 481 104 456 108 q 485 51 485 76 q 483 -4 486 25 q 374 -1 424 -1 q 257 0 325 0 q 122 -1 181 0 q 14 -4 63 -1 q 23 51 17 26 q 40 104 29 76 q 82 115 65 108 q 110 135 99 121 q 128 176 121 150 q 143 246 135 201 l 219 696 m 411 1301 q 544 1304 481 1311 q 644 1278 608 1297 q 520 1147 576 1211 q 428 1026 464 1082 q 297 1072 356 1033 q 333 1133 315 1101 q 365 1197 350 1165 q 392 1255 381 1228 q 411 1301 404 1282 z "},"Î":{"ha":575,"x_min":14,"x_max":706,"o":"m 219 696 q 228 762 226 736 q 222 802 229 788 q 198 824 215 817 q 151 835 181 831 q 147 887 147 858 q 150 943 146 915 q 259 940 201 940 q 383 939 317 939 q 499 940 438 939 q 622 943 560 940 q 603 835 622 888 q 557 825 574 832 q 529 801 540 818 q 510 752 518 783 q 493 668 503 721 l 421 250 q 412 179 413 206 q 417 138 411 153 q 440 115 424 122 q 481 104 456 108 q 485 51 485 76 q 483 -4 486 25 q 374 -1 424 -1 q 257 0 325 0 q 122 -1 181 0 q 14 -4 63 -1 q 23 51 17 26 q 40 104 29 76 q 82 115 65 108 q 110 135 99 121 q 128 176 121 150 q 143 246 135 201 l 219 696 m 401 1301 q 460 1303 429 1306 q 519 1292 492 1301 q 600 1188 556 1240 q 706 1069 644 1135 q 654 1040 686 1050 q 583 1026 622 1029 q 501 1086 544 1058 q 417 1133 457 1114 q 365 1106 393 1122 q 310 1074 338 1090 q 257 1041 282 1057 q 215 1013 232 1025 q 160 1056 181 1026 q 136 1110 140 1086 q 206 1151 169 1128 q 277 1201 242 1175 q 344 1252 313 1226 q 401 1301 376 1278 z "},"Ï":{"ha":575,"x_min":14,"x_max":715,"o":"m 144 1142 q 185 1219 154 1192 q 274 1246 217 1246 q 368 1206 339 1246 q 382 1100 397 1167 q 338 1021 369 1049 q 254 993 307 993 q 160 1034 189 993 q 144 1142 131 1075 m 701 1103 q 569 993 681 993 q 474 1031 504 993 q 457 1133 444 1069 q 499 1217 465 1188 q 594 1246 532 1246 q 686 1208 657 1246 q 701 1103 715 1169 m 219 696 q 228 762 226 736 q 222 802 229 788 q 198 824 215 817 q 151 835 181 831 q 147 887 147 858 q 150 943 146 915 q 259 940 201 940 q 383 939 317 939 q 499 940 438 939 q 622 943 560 940 q 603 835 622 888 q 557 825 574 832 q 529 801 540 818 q 510 752 518 783 q 493 668 503 721 l 421 250 q 412 179 413 206 q 417 138 411 153 q 440 115 424 122 q 481 104 456 108 q 485 51 485 76 q 483 -4 486 25 q 374 -1 424 -1 q 257 0 325 0 q 122 -1 181 0 q 14 -4 63 -1 q 23 51 17 26 q 40 104 29 76 q 82 115 65 108 q 110 135 99 121 q 128 176 121 150 q 143 246 135 201 l 219 696 m 219 696 q 228 762 226 736 q 222 802 229 788 q 198 824 215 817 q 151 835 181 831 q 147 887 147 858 q 150 943 146 915 q 259 940 201 940 q 383 939 317 939 q 499 940 438 939 q 622 943 560 940 q 603 835 622 888 q 557 825 574 832 q 529 801 540 818 q 510 752 518 783 q 493 668 503 721 l 421 250 q 412 179 413 206 q 417 138 411 153 q 440 115 424 122 q 481 104 456 108 q 485 51 485 76 q 483 -4 486 25 q 374 -1 424 -1 q 257 0 325 0 q 122 -1 181 0 q 14 -4 63 -1 q 23 51 17 26 q 40 104 29 76 q 82 115 65 108 q 110 135 99 121 q 128 176 121 150 q 143 246 135 201 l 219 696 z "},"Ì":{"ha":575,"x_min":14,"x_max":622,"o":"m 219 696 q 228 762 226 736 q 222 802 229 788 q 198 824 215 817 q 151 835 181 831 q 147 887 147 858 q 150 943 146 915 q 259 940 201 940 q 383 939 317 939 q 499 940 438 939 q 622 943 560 940 q 603 835 622 888 q 557 825 574 832 q 529 801 540 818 q 510 752 518 783 q 493 668 503 721 l 421 250 q 412 179 413 206 q 417 138 411 153 q 440 115 424 122 q 481 104 456 108 q 485 51 485 76 q 483 -4 486 25 q 374 -1 424 -1 q 257 0 325 0 q 122 -1 181 0 q 14 -4 63 -1 q 23 51 17 26 q 40 104 29 76 q 82 115 65 108 q 110 135 99 121 q 128 176 121 150 q 143 246 135 201 l 219 696 m 196 1269 q 304 1288 246 1283 q 421 1282 363 1293 q 447 1169 431 1231 q 482 1056 463 1108 q 416 1047 453 1047 q 351 1057 379 1047 q 283 1160 319 1111 q 196 1269 247 1208 z "},"J":{"ha":575,"x_min":-76,"x_max":633,"o":"m 229 692 q 239 762 238 735 q 233 804 240 789 q 210 826 226 819 q 164 835 193 832 q 158 888 157 861 q 161 943 158 915 q 274 940 211 940 q 400 939 336 939 q 525 940 463 939 q 633 943 588 940 q 617 835 631 882 q 572 826 589 832 q 542 804 554 821 q 522 754 531 788 q 503 664 513 721 l 417 174 q 374 0 400 78 q 298 -140 347 -78 q 169 -253 249 -203 q -33 -342 89 -303 q -68 -288 -60 -319 q -76 -221 -76 -257 q -3 -175 -35 -200 q 53 -113 29 -150 q 96 -25 78 -76 q 126 100 114 26 l 229 692 z "},"K":{"ha":1096,"x_min":14,"x_max":1108,"o":"m 686 717 q 744 769 724 749 q 770 803 764 790 q 769 822 776 815 q 744 835 763 829 q 740 887 740 858 q 743 943 740 915 q 833 940 783 940 q 918 939 882 939 q 968 939 940 939 q 1023 940 996 939 q 1073 941 1050 940 q 1108 943 1096 942 q 1104 890 1108 917 q 1089 833 1100 863 q 1038 826 1060 831 q 993 810 1017 822 q 941 777 969 799 q 871 721 913 756 l 658 544 q 763 417 717 488 q 850 253 810 346 q 888 187 869 204 q 933 169 907 169 q 969 174 951 169 q 1001 186 988 178 q 1029 144 1017 171 q 1044 93 1042 117 q 932 15 996 42 q 796 -12 868 -12 q 654 26 706 -12 q 572 158 603 64 q 519 297 549 236 q 450 421 490 358 l 419 246 q 411 177 413 203 q 415 136 410 151 q 433 115 421 121 q 467 104 446 108 q 472 51 471 76 q 469 -4 472 25 q 416 -2 440 -3 q 367 -1 392 -1 q 317 0 343 0 q 257 0 290 0 q 122 -1 181 0 q 14 -4 63 -1 q 23 51 17 26 q 40 104 29 76 q 88 115 71 106 q 116 143 106 124 q 133 194 126 163 q 147 274 139 225 l 219 696 q 228 762 226 736 q 222 802 229 788 q 198 824 215 817 q 151 835 181 831 q 147 887 147 858 q 150 943 146 915 q 259 940 201 940 q 383 939 317 939 q 499 940 438 939 q 622 943 560 940 q 603 835 622 888 q 557 825 574 832 q 529 801 540 818 q 510 752 518 783 q 493 668 503 721 l 469 531 l 686 717 z "},"L":{"ha":889,"x_min":14,"x_max":861,"o":"m 522 104 q 640 157 593 104 q 719 313 686 210 q 861 249 806 294 q 843 199 853 228 q 825 136 833 169 q 809 67 817 103 q 797 -4 801 31 q 716 -2 761 -3 q 623 -1 671 -1 q 526 0 575 0 q 436 0 478 0 q 335 0 397 0 q 210 -1 274 0 q 92 -2 146 -1 q 14 -4 38 -3 q 23 51 17 25 q 40 104 29 76 q 85 114 68 107 q 113 138 101 121 q 131 188 124 156 q 147 274 138 221 l 221 696 q 229 762 228 736 q 223 802 231 788 q 198 824 215 817 q 151 835 181 831 q 146 887 146 858 q 150 943 146 915 q 259 940 201 940 q 390 939 317 939 q 449 939 417 939 q 517 940 482 939 q 585 941 551 940 q 650 943 619 942 q 646 890 650 917 q 631 835 642 863 q 570 824 593 831 q 533 799 547 817 q 510 751 519 782 q 493 668 501 719 l 421 253 q 412 175 413 204 q 420 131 411 146 q 448 110 429 115 q 499 104 467 104 l 522 104 z "},"M":{"ha":1354,"x_min":-50,"x_max":1356,"o":"m 1242 660 q 1231 469 1236 564 q 1218 279 1226 375 q 1213 197 1214 229 q 1219 144 1213 164 q 1241 116 1226 125 q 1282 104 1256 107 q 1288 52 1288 81 q 1283 -4 1288 24 q 1174 -1 1232 -1 q 1043 0 1117 0 q 924 -1 989 0 q 797 -4 860 -1 q 801 49 797 22 q 817 104 806 76 q 874 117 853 108 q 908 147 896 126 q 927 203 921 168 q 939 292 933 238 q 956 475 950 383 q 967 660 961 567 q 787 326 879 492 q 594 -4 694 160 q 538 -12 563 -11 q 489 -12 513 -12 q 403 333 449 163 q 306 672 358 504 q 283 575 294 625 q 259 477 271 525 q 235 385 247 429 q 214 303 224 340 q 194 215 200 250 q 194 158 189 181 q 215 124 199 136 q 264 104 232 111 q 268 51 268 79 q 265 -4 268 24 q 200 -1 238 -1 q 122 0 163 0 q 27 -1 74 0 q -50 -4 -19 -1 q -45 52 -50 24 q -29 104 -40 81 q 9 123 -7 111 q 40 157 25 135 q 68 213 54 179 q 99 300 82 247 q 133 410 117 358 q 162 512 149 463 q 187 610 175 561 q 211 714 199 660 q 221 772 219 750 q 216 807 222 794 q 193 825 210 819 q 149 835 176 831 q 143 887 143 858 q 147 943 143 915 q 192 941 165 942 q 244 940 218 940 q 294 939 271 939 q 333 939 318 939 q 424 940 371 939 q 528 943 476 940 q 609 654 571 799 q 679 363 647 510 q 844 651 765 507 q 997 943 922 796 q 1108 940 1056 940 q 1190 939 1161 939 q 1266 940 1228 939 q 1356 943 1304 940 q 1338 835 1356 886 q 1292 819 1310 829 q 1265 788 1275 808 q 1249 737 1254 768 q 1242 660 1244 706 z "},"N":{"ha":989,"x_min":8,"x_max":1076,"o":"m 243 796 q 213 824 231 817 q 151 835 196 832 q 146 885 146 860 q 150 943 146 911 q 240 940 193 940 q 326 939 286 939 q 408 940 365 939 q 488 943 451 940 q 646 678 569 814 q 790 406 722 543 q 808 522 800 464 q 822 636 815 579 q 829 725 828 690 q 822 781 831 760 q 794 815 814 803 q 736 835 774 826 q 732 888 732 860 q 735 943 732 915 q 825 940 782 940 q 900 939 868 939 q 986 940 940 939 q 1076 943 1032 940 q 1069 885 1075 915 q 1056 835 1064 856 q 1006 813 1026 825 q 972 781 986 801 q 949 725 958 760 q 932 636 940 690 q 882 319 908 476 q 822 1 856 161 q 763 -10 793 -7 q 694 -12 733 -12 q 519 319 608 156 q 333 644 429 482 q 271 303 304 471 q 257 214 260 249 q 263 158 254 179 q 291 124 271 136 q 349 104 311 113 q 353 51 353 79 q 350 -4 353 24 q 260 -1 303 -1 q 185 0 217 0 q 99 -1 144 0 q 8 -4 53 -1 q 15 53 10 24 q 29 104 21 83 q 81 126 60 114 q 117 159 101 138 q 143 215 132 181 q 165 303 154 249 q 210 540 189 421 q 251 782 232 660 l 243 796 z "},"Ñ":{"ha":989,"x_min":8,"x_max":1076,"o":"m 243 796 q 213 824 231 817 q 151 835 196 832 q 146 885 146 860 q 150 943 146 911 q 240 940 193 940 q 326 939 286 939 q 408 940 365 939 q 488 943 451 940 q 646 678 569 814 q 790 406 722 543 q 808 522 800 464 q 822 636 815 579 q 829 725 828 690 q 822 781 831 760 q 794 815 814 803 q 736 835 774 826 q 732 888 732 860 q 735 943 732 915 q 825 940 782 940 q 900 939 868 939 q 986 940 940 939 q 1076 943 1032 940 q 1069 885 1075 915 q 1056 835 1064 856 q 1006 813 1026 825 q 972 781 986 801 q 949 725 958 760 q 932 636 940 690 q 882 319 908 476 q 822 1 856 161 q 763 -10 793 -7 q 694 -12 733 -12 q 519 319 608 156 q 333 644 429 482 q 271 303 304 471 q 257 214 260 249 q 263 158 254 179 q 291 124 271 136 q 349 104 311 113 q 353 51 353 79 q 350 -4 353 24 q 260 -1 303 -1 q 185 0 217 0 q 99 -1 144 0 q 8 -4 53 -1 q 15 53 10 24 q 29 104 21 83 q 81 126 60 114 q 117 159 101 138 q 143 215 132 181 q 165 303 154 249 q 210 540 189 421 q 251 782 232 660 l 243 796 m 579 1257 q 642 1248 615 1257 q 691 1228 668 1239 q 734 1209 714 1218 q 778 1200 754 1200 q 853 1217 821 1200 q 906 1249 885 1233 q 940 1203 926 1228 q 958 1147 954 1179 q 851 1033 900 1068 q 740 997 801 997 q 675 1007 701 997 q 626 1029 649 1017 q 583 1051 604 1042 q 533 1061 561 1061 q 455 1042 497 1061 q 379 996 413 1022 q 348 1048 358 1022 q 338 1110 338 1074 q 413 1185 378 1157 q 478 1230 447 1214 q 533 1251 508 1246 q 579 1257 558 1257 z "},"O":{"ha":1031,"x_min":47,"x_max":1044,"o":"m 617 951 q 813 917 728 951 q 952 818 899 882 q 1025 664 1006 754 q 1024 464 1044 574 q 955 269 1003 357 q 835 119 907 182 q 671 22 763 57 q 471 -12 579 -12 q 271 25 356 -12 q 134 129 186 63 q 65 288 82 196 q 68 488 47 379 q 139 685 89 599 q 260 831 189 771 q 423 921 332 890 q 617 951 514 951 m 603 847 q 449 752 514 847 q 353 493 385 657 q 335 338 336 410 q 349 211 333 265 q 397 126 364 157 q 483 96 431 96 q 569 124 529 96 q 642 204 608 153 q 701 328 675 256 q 743 490 726 401 q 754 630 757 565 q 734 743 751 694 q 683 819 717 792 q 603 847 650 847 z "},"Ó":{"ha":1031,"x_min":47,"x_max":1044,"o":"m 617 951 q 813 917 728 951 q 952 818 899 882 q 1025 664 1006 754 q 1024 464 1044 574 q 955 269 1003 357 q 835 119 907 182 q 671 22 763 57 q 471 -12 579 -12 q 271 25 356 -12 q 134 129 186 63 q 65 288 82 196 q 68 488 47 379 q 139 685 89 599 q 260 831 189 771 q 423 921 332 890 q 617 951 514 951 m 603 847 q 449 752 514 847 q 353 493 385 657 q 335 338 336 410 q 349 211 333 265 q 397 126 364 157 q 483 96 431 96 q 569 124 529 96 q 642 204 608 153 q 701 328 675 256 q 743 490 726 401 q 754 630 757 565 q 734 743 751 694 q 683 819 717 792 q 603 847 650 847 m 642 1301 q 775 1304 711 1311 q 875 1278 839 1297 q 751 1147 807 1211 q 658 1026 694 1082 q 528 1072 586 1033 q 563 1133 546 1101 q 596 1197 581 1165 q 623 1255 611 1228 q 642 1301 635 1282 z "},"Ô":{"ha":1031,"x_min":47,"x_max":1044,"o":"m 617 951 q 813 917 728 951 q 952 818 899 882 q 1025 664 1006 754 q 1024 464 1044 574 q 955 269 1003 357 q 835 119 907 182 q 671 22 763 57 q 471 -12 579 -12 q 271 25 356 -12 q 134 129 186 63 q 65 288 82 196 q 68 488 47 379 q 139 685 89 599 q 260 831 189 771 q 423 921 332 890 q 617 951 514 951 m 603 847 q 449 752 514 847 q 353 493 385 657 q 335 338 336 410 q 349 211 333 265 q 397 126 364 157 q 483 96 431 96 q 569 124 529 96 q 642 204 608 153 q 701 328 675 256 q 743 490 726 401 q 754 630 757 565 q 734 743 751 694 q 683 819 717 792 q 603 847 650 847 m 632 1301 q 691 1303 660 1306 q 750 1292 722 1301 q 831 1188 786 1240 q 936 1069 875 1135 q 885 1040 917 1050 q 814 1026 853 1029 q 731 1086 775 1058 q 647 1133 688 1114 q 596 1106 624 1122 q 540 1074 568 1090 q 488 1041 513 1057 q 446 1013 463 1025 q 391 1056 411 1026 q 367 1110 371 1086 q 436 1151 400 1128 q 508 1201 472 1175 q 575 1252 543 1226 q 632 1301 607 1278 z "},"Ö":{"ha":1031,"x_min":47,"x_max":1044,"o":"m 617 951 q 813 917 728 951 q 952 818 899 882 q 1025 664 1006 754 q 1024 464 1044 574 q 955 269 1003 357 q 835 119 907 182 q 671 22 763 57 q 471 -12 579 -12 q 271 25 356 -12 q 134 129 186 63 q 65 288 82 196 q 68 488 47 379 q 139 685 89 599 q 260 831 189 771 q 423 921 332 890 q 617 951 514 951 m 603 847 q 449 752 514 847 q 353 493 385 657 q 335 338 336 410 q 349 211 333 265 q 397 126 364 157 q 483 96 431 96 q 569 124 529 96 q 642 204 608 153 q 701 328 675 256 q 743 490 726 401 q 754 630 757 565 q 734 743 751 694 q 683 819 717 792 q 603 847 650 847 m 374 1142 q 415 1219 383 1192 q 503 1246 446 1246 q 597 1206 568 1246 q 611 1100 626 1167 q 567 1021 599 1049 q 483 993 536 993 q 389 1034 418 993 q 374 1142 360 1075 m 931 1103 q 799 993 910 993 q 703 1031 733 993 q 686 1133 674 1069 q 728 1217 694 1188 q 824 1246 761 1246 q 915 1208 886 1246 q 931 1103 944 1169 z "},"Ò":{"ha":1031,"x_min":47,"x_max":1044,"o":"m 617 951 q 813 917 728 951 q 952 818 899 882 q 1025 664 1006 754 q 1024 464 1044 574 q 955 269 1003 357 q 835 119 907 182 q 671 22 763 57 q 471 -12 579 -12 q 271 25 356 -12 q 134 129 186 63 q 65 288 82 196 q 68 488 47 379 q 139 685 89 599 q 260 831 189 771 q 423 921 332 890 q 617 951 514 951 m 603 847 q 449 752 514 847 q 353 493 385 657 q 335 338 336 410 q 349 211 333 265 q 397 126 364 157 q 483 96 431 96 q 569 124 529 96 q 642 204 608 153 q 701 328 675 256 q 743 490 726 401 q 754 630 757 565 q 734 743 751 694 q 683 819 717 792 q 603 847 650 847 m 426 1269 q 535 1288 476 1283 q 651 1282 593 1293 q 677 1169 661 1231 q 713 1056 693 1108 q 647 1047 683 1047 q 582 1057 610 1047 q 514 1160 550 1111 q 426 1269 478 1208 z "},"Ø":{"ha":1031,"x_min":47,"x_max":1044,"o":"m 135 128 q 65 286 82 194 q 68 488 47 378 q 139 685 89 599 q 260 831 189 771 q 423 921 332 890 q 617 951 514 951 q 751 936 689 951 q 861 893 813 921 l 917 951 q 1032 900 1001 951 l 950 821 q 1025 666 1006 756 q 1024 464 1044 576 q 955 269 1003 357 q 835 119 907 182 q 671 22 763 57 q 471 -12 579 -12 q 335 3 396 -12 q 225 49 274 19 l 172 -12 q 103 4 136 -12 q 60 49 71 21 l 135 128 m 731 754 q 679 823 711 799 q 603 847 647 847 q 449 752 514 847 q 353 493 385 657 q 340 413 344 451 q 335 339 336 375 l 731 754 m 754 625 q 552 413 650 518 q 354 194 454 307 q 403 122 371 149 q 483 96 435 96 q 569 124 529 96 q 642 204 608 153 q 701 328 675 256 q 743 490 726 401 q 753 560 750 526 q 754 625 756 593 z "},"Õ":{"ha":1031,"x_min":47,"x_max":1044,"o":"m 617 951 q 813 917 728 951 q 952 818 899 882 q 1025 664 1006 754 q 1024 464 1044 574 q 955 269 1003 357 q 835 119 907 182 q 671 22 763 57 q 471 -12 579 -12 q 271 25 356 -12 q 134 129 186 63 q 65 288 82 196 q 68 488 47 379 q 139 685 89 599 q 260 831 189 771 q 423 921 332 890 q 617 951 514 951 m 603 847 q 449 752 514 847 q 353 493 385 657 q 335 338 336 410 q 349 211 333 265 q 397 126 364 157 q 483 96 431 96 q 569 124 529 96 q 642 204 608 153 q 701 328 675 256 q 743 490 726 401 q 754 630 757 565 q 734 743 751 694 q 683 819 717 792 q 603 847 650 847 m 578 1257 q 640 1248 614 1257 q 690 1228 667 1239 q 733 1209 713 1218 q 776 1200 753 1200 q 851 1217 819 1200 q 904 1249 883 1233 q 939 1203 925 1228 q 957 1147 953 1179 q 849 1033 899 1068 q 739 997 800 997 q 674 1007 700 997 q 625 1029 647 1017 q 581 1051 603 1042 q 532 1061 560 1061 q 453 1042 496 1061 q 378 996 411 1022 q 347 1048 357 1022 q 336 1110 336 1074 q 411 1185 376 1157 q 476 1230 446 1214 q 532 1251 507 1246 q 578 1257 557 1257 z "},"P":{"ha":922,"x_min":17,"x_max":982,"o":"m 222 696 q 230 763 229 738 q 222 802 231 788 q 197 824 214 817 q 153 835 179 831 q 148 885 149 857 q 150 943 147 914 q 273 940 214 940 q 390 939 332 939 q 528 941 457 939 q 693 943 599 943 q 915 851 849 943 q 954 594 982 760 q 910 475 943 529 q 827 381 878 421 q 708 320 776 342 q 554 299 639 299 q 517 301 535 299 q 486 311 500 304 q 487 335 486 321 q 490 363 488 349 q 497 390 493 376 q 504 413 500 403 q 512 410 507 411 q 528 410 517 410 q 577 422 551 410 q 625 458 603 435 q 665 518 647 482 q 690 600 682 554 q 681 769 710 704 q 576 835 653 835 q 521 824 547 835 l 424 260 q 415 188 415 215 q 428 143 415 160 q 467 118 440 126 q 538 104 493 110 q 543 51 543 78 q 540 -4 543 24 q 417 -1 482 -1 q 289 0 351 0 q 142 -1 210 0 q 17 -4 75 -1 q 25 49 19 21 q 42 106 31 78 q 85 114 68 107 q 113 138 101 121 q 131 188 124 156 q 149 274 139 221 l 222 696 z "},"Q":{"ha":1032,"x_min":47,"x_max":1044,"o":"m 993 -110 q 1022 -151 1008 -125 q 1039 -201 1036 -178 q 796 -304 943 -304 q 667 -267 715 -304 q 594 -151 619 -231 q 540 -53 574 -85 q 444 -12 507 -21 q 256 31 336 -8 q 128 137 176 71 q 63 292 79 203 q 68 488 47 382 q 139 685 89 599 q 260 831 189 771 q 423 921 332 890 q 617 951 514 951 q 813 917 728 951 q 952 818 899 882 q 1025 664 1006 754 q 1024 464 1044 574 q 976 312 1008 382 q 898 184 944 242 q 792 85 851 126 q 661 18 732 43 q 702 6 683 14 q 742 -15 721 -1 q 790 -49 764 -28 q 850 -100 815 -69 q 892 -129 875 -122 q 928 -136 908 -136 q 993 -110 963 -136 m 353 493 q 335 338 336 410 q 349 211 333 265 q 397 126 364 157 q 483 96 431 96 q 569 124 529 96 q 642 204 608 153 q 701 328 675 256 q 743 490 726 401 q 754 630 757 565 q 734 743 751 694 q 683 819 717 792 q 603 847 650 847 q 449 752 514 847 q 353 493 385 657 z "},"R":{"ha":1064,"x_min":14,"x_max":1006,"o":"m 219 696 q 228 762 226 736 q 222 802 229 788 q 198 824 215 817 q 151 835 181 831 q 147 887 147 858 q 150 943 146 915 q 264 940 201 940 q 393 939 326 939 q 512 942 433 939 q 676 946 590 946 q 833 922 768 946 q 935 859 897 899 q 985 767 972 819 q 989 657 999 715 q 955 560 981 604 q 892 481 929 515 q 809 424 856 447 q 713 389 763 400 q 774 330 746 368 q 828 229 801 292 q 860 176 843 189 q 900 164 876 164 q 933 169 918 164 q 960 182 949 175 q 989 140 975 167 q 1006 90 1003 114 q 889 13 957 39 q 749 -12 821 -12 q 676 -2 707 -12 q 621 33 646 8 q 576 97 596 57 q 536 196 556 136 q 497 295 514 260 q 457 360 481 331 l 439 360 l 419 246 q 410 177 413 203 q 413 136 408 151 q 428 115 417 121 q 461 104 440 108 q 466 51 465 76 q 464 -4 467 25 q 411 -2 435 -3 q 365 -1 388 -1 q 316 0 342 0 q 257 0 290 0 q 122 -1 181 0 q 14 -4 63 -1 q 23 51 17 26 q 40 104 29 76 q 82 113 65 106 q 110 138 99 119 q 130 188 121 156 q 147 274 139 221 l 219 696 m 461 483 q 477 482 469 482 q 492 482 485 482 q 556 494 524 482 q 617 532 589 507 q 667 594 646 557 q 696 679 688 631 q 682 798 711 758 q 592 838 653 838 q 555 833 572 838 q 519 822 538 829 l 461 483 z "},"S":{"ha":740,"x_min":-10,"x_max":731,"o":"m 476 951 q 631 931 567 951 q 731 883 696 911 q 719 769 724 829 q 715 668 714 708 q 561 654 646 646 q 524 792 558 744 q 424 840 490 840 q 359 825 385 840 q 326 775 333 810 q 334 712 319 739 q 376 662 349 685 q 442 618 404 639 q 518 574 479 597 q 594 522 557 550 q 656 456 631 494 q 693 369 682 418 q 693 254 704 319 q 648 144 682 193 q 561 60 614 94 q 440 6 508 25 q 296 -12 372 -12 q 197 -7 239 -12 q 120 10 154 -1 q 55 41 86 22 q -10 86 24 60 q 43 303 29 189 q 125 311 83 310 q 207 304 167 313 q 333 101 189 101 q 410 124 375 101 q 451 182 444 146 q 432 257 458 226 q 363 315 406 288 q 269 374 319 343 q 180 451 219 406 q 120 561 140 496 q 118 722 100 626 q 160 822 128 779 q 241 894 193 865 q 349 937 289 922 q 476 951 410 951 z "},"T":{"ha":890,"x_min":86,"x_max":949,"o":"m 403 835 q 299 790 347 835 q 218 656 251 746 q 146 662 178 656 q 86 685 114 668 q 106 742 96 710 q 124 810 115 775 q 138 879 132 844 q 147 943 144 914 q 230 941 189 942 q 317 940 271 940 q 418 939 363 939 q 546 939 474 939 q 663 939 613 939 q 760 940 714 939 q 851 941 806 940 q 949 943 896 942 q 940 811 942 885 q 944 671 938 738 q 878 658 914 661 q 806 657 843 654 q 770 795 799 756 q 683 835 742 835 l 682 835 l 582 260 q 574 191 575 218 q 585 147 574 164 q 622 120 596 129 q 694 104 649 111 q 701 49 700 78 q 699 -4 701 21 q 582 -1 653 -1 q 426 0 511 0 q 254 -1 333 0 q 118 -4 175 -1 q 128 55 121 26 q 143 104 135 83 q 217 117 189 110 q 262 143 244 125 q 289 192 279 161 q 307 274 299 222 l 404 835 l 403 835 z "},"Þ":{"ha":921,"x_min":14,"x_max":926,"o":"m 219 696 q 228 762 226 736 q 222 802 229 788 q 198 824 215 817 q 151 835 181 831 q 147 887 147 858 q 150 943 146 915 q 259 940 201 940 q 383 939 317 939 q 499 940 438 939 q 622 943 560 940 q 603 835 622 888 q 542 816 561 831 q 511 756 524 801 q 572 757 539 757 q 644 757 604 757 q 790 734 732 757 q 878 673 847 711 q 918 585 910 635 q 918 485 926 536 q 876 368 907 419 q 797 281 844 317 q 687 226 749 244 q 551 207 625 207 q 492 210 515 207 q 453 225 469 214 q 456 276 451 250 q 471 322 461 303 q 499 318 481 318 q 594 358 551 318 q 653 481 638 399 q 642 605 668 563 q 546 647 615 647 q 488 638 517 647 l 421 250 q 412 179 413 206 q 417 138 411 153 q 440 115 424 122 q 481 104 456 108 q 485 51 485 76 q 483 -4 486 25 q 374 -1 424 -1 q 257 0 325 0 q 122 -1 181 0 q 14 -4 63 -1 q 23 51 17 26 q 40 104 29 76 q 82 115 65 108 q 110 135 99 121 q 128 176 121 150 q 143 246 135 201 l 219 696 z "},"U":{"ha":940,"x_min":136,"x_max":1035,"o":"m 213 696 q 221 762 219 736 q 215 802 222 788 q 191 824 208 817 q 144 835 174 831 q 140 887 140 858 q 143 943 139 915 q 252 940 194 940 q 376 939 310 939 q 492 940 431 939 q 615 943 553 940 q 596 835 615 888 q 550 825 567 832 q 522 801 533 818 q 503 752 511 783 q 486 668 496 721 l 432 369 q 434 164 407 228 q 535 100 461 100 q 614 119 581 100 q 672 175 647 139 q 714 260 697 211 q 742 371 731 310 l 793 663 q 806 749 803 717 q 805 797 810 781 q 785 821 800 814 q 742 835 769 828 q 737 885 738 860 q 740 943 736 911 q 824 940 785 940 q 890 939 864 939 q 966 940 935 939 q 1035 943 997 940 q 1028 887 1033 915 q 1015 835 1024 858 q 969 825 986 831 q 940 801 951 819 q 921 747 929 782 q 901 647 913 711 l 856 385 q 807 202 836 278 q 733 78 778 126 q 623 9 688 31 q 468 -12 558 -12 q 299 12 367 -12 q 193 83 231 36 q 146 199 156 129 q 153 360 136 268 l 213 696 z "},"Ú":{"ha":940,"x_min":136,"x_max":1035,"o":"m 213 696 q 221 762 219 736 q 215 802 222 788 q 191 824 208 817 q 144 835 174 831 q 140 887 140 858 q 143 943 139 915 q 252 940 194 940 q 376 939 310 939 q 492 940 431 939 q 615 943 553 940 q 596 835 615 888 q 550 825 567 832 q 522 801 533 818 q 503 752 511 783 q 486 668 496 721 l 432 369 q 434 164 407 228 q 535 100 461 100 q 614 119 581 100 q 672 175 647 139 q 714 260 697 211 q 742 371 731 310 l 793 663 q 806 749 803 717 q 805 797 810 781 q 785 821 800 814 q 742 835 769 828 q 737 885 738 860 q 740 943 736 911 q 824 940 785 940 q 890 939 864 939 q 966 940 935 939 q 1035 943 997 940 q 1028 887 1033 915 q 1015 835 1024 858 q 969 825 986 831 q 940 801 951 819 q 921 747 929 782 q 901 647 913 711 l 856 385 q 807 202 836 278 q 733 78 778 126 q 623 9 688 31 q 468 -12 558 -12 q 299 12 367 -12 q 193 83 231 36 q 146 199 156 129 q 153 360 136 268 l 213 696 m 689 1301 q 822 1304 758 1311 q 922 1278 886 1297 q 798 1147 854 1211 q 706 1026 742 1082 q 575 1072 633 1033 q 610 1133 593 1101 q 643 1197 628 1165 q 670 1255 658 1228 q 689 1301 682 1282 z "},"Û":{"ha":940,"x_min":136,"x_max":1035,"o":"m 213 696 q 221 762 219 736 q 215 802 222 788 q 191 824 208 817 q 144 835 174 831 q 140 887 140 858 q 143 943 139 915 q 252 940 194 940 q 376 939 310 939 q 492 940 431 939 q 615 943 553 940 q 596 835 615 888 q 550 825 567 832 q 522 801 533 818 q 503 752 511 783 q 486 668 496 721 l 432 369 q 434 164 407 228 q 535 100 461 100 q 614 119 581 100 q 672 175 647 139 q 714 260 697 211 q 742 371 731 310 l 793 663 q 806 749 803 717 q 805 797 810 781 q 785 821 800 814 q 742 835 769 828 q 737 885 738 860 q 740 943 736 911 q 824 940 785 940 q 890 939 864 939 q 966 940 935 939 q 1035 943 997 940 q 1028 887 1033 915 q 1015 835 1024 858 q 969 825 986 831 q 940 801 951 819 q 921 747 929 782 q 901 647 913 711 l 856 385 q 807 202 836 278 q 733 78 778 126 q 623 9 688 31 q 468 -12 558 -12 q 299 12 367 -12 q 193 83 231 36 q 146 199 156 129 q 153 360 136 268 l 213 696 m 679 1301 q 738 1303 707 1306 q 797 1292 769 1301 q 878 1188 833 1240 q 983 1069 922 1135 q 932 1040 964 1050 q 861 1026 900 1029 q 778 1086 822 1058 q 694 1133 735 1114 q 643 1106 671 1122 q 588 1074 615 1090 q 535 1041 560 1057 q 493 1013 510 1025 q 438 1056 458 1026 q 414 1110 418 1086 q 483 1151 447 1128 q 555 1201 519 1175 q 622 1252 590 1226 q 679 1301 654 1278 z "},"Ü":{"ha":940,"x_min":136,"x_max":1035,"o":"m 213 696 q 221 762 219 736 q 215 802 222 788 q 191 824 208 817 q 144 835 174 831 q 140 887 140 858 q 143 943 139 915 q 252 940 194 940 q 376 939 310 939 q 492 940 431 939 q 615 943 553 940 q 596 835 615 888 q 550 825 567 832 q 522 801 533 818 q 503 752 511 783 q 486 668 496 721 l 432 369 q 434 164 407 228 q 535 100 461 100 q 614 119 581 100 q 672 175 647 139 q 714 260 697 211 q 742 371 731 310 l 793 663 q 806 749 803 717 q 805 797 810 781 q 785 821 800 814 q 742 835 769 828 q 737 885 738 860 q 740 943 736 911 q 824 940 785 940 q 890 939 864 939 q 966 940 935 939 q 1035 943 997 940 q 1028 887 1033 915 q 1015 835 1024 858 q 969 825 986 831 q 940 801 951 819 q 921 747 929 782 q 901 647 913 711 l 856 385 q 807 202 836 278 q 733 78 778 126 q 623 9 688 31 q 468 -12 558 -12 q 299 12 367 -12 q 193 83 231 36 q 146 199 156 129 q 153 360 136 268 l 213 696 m 421 1142 q 462 1219 431 1192 q 550 1246 493 1246 q 644 1206 615 1246 q 658 1100 674 1167 q 615 1021 646 1049 q 531 993 583 993 q 436 1034 465 993 q 421 1142 407 1075 m 978 1103 q 846 993 957 993 q 751 1031 781 993 q 733 1133 721 1069 q 775 1217 742 1188 q 871 1246 808 1246 q 963 1208 933 1246 q 978 1103 992 1169 z "},"Ù":{"ha":940,"x_min":136,"x_max":1035,"o":"m 213 696 q 221 762 219 736 q 215 802 222 788 q 191 824 208 817 q 144 835 174 831 q 140 887 140 858 q 143 943 139 915 q 252 940 194 940 q 376 939 310 939 q 492 940 431 939 q 615 943 553 940 q 596 835 615 888 q 550 825 567 832 q 522 801 533 818 q 503 752 511 783 q 486 668 496 721 l 432 369 q 434 164 407 228 q 535 100 461 100 q 614 119 581 100 q 672 175 647 139 q 714 260 697 211 q 742 371 731 310 l 793 663 q 806 749 803 717 q 805 797 810 781 q 785 821 800 814 q 742 835 769 828 q 737 885 738 860 q 740 943 736 911 q 824 940 785 940 q 890 939 864 939 q 966 940 935 939 q 1035 943 997 940 q 1028 887 1033 915 q 1015 835 1024 858 q 969 825 986 831 q 940 801 951 819 q 921 747 929 782 q 901 647 913 711 l 856 385 q 807 202 836 278 q 733 78 778 126 q 623 9 688 31 q 468 -12 558 -12 q 299 12 367 -12 q 193 83 231 36 q 146 199 156 129 q 153 360 136 268 l 213 696 m 474 1269 q 582 1288 524 1283 q 699 1282 640 1293 q 724 1169 708 1231 q 760 1056 740 1108 q 694 1047 731 1047 q 629 1057 657 1047 q 561 1160 597 1111 q 474 1269 525 1208 z "},"V":{"ha":958,"x_min":125,"x_max":1067,"o":"m 924 939 q 992 940 963 939 q 1067 943 1022 940 q 1047 835 1064 885 q 1015 822 1029 831 q 987 794 1001 813 q 956 745 972 775 q 918 669 940 715 q 835 506 878 588 q 747 342 793 425 q 652 174 701 260 q 549 0 603 89 q 487 -10 521 -8 q 422 -12 453 -12 q 329 345 378 167 q 231 694 281 524 q 208 763 218 738 q 187 803 197 789 q 163 824 176 818 q 131 835 150 831 q 126 883 126 854 q 129 943 125 911 q 188 941 156 942 q 250 940 219 940 q 306 939 281 939 q 347 939 332 939 q 394 939 365 939 q 457 940 424 939 q 526 941 490 940 q 594 943 561 942 q 588 882 593 910 q 575 835 582 854 q 506 793 515 828 q 515 686 496 758 q 562 500 542 590 q 600 304 582 410 q 717 512 671 422 q 794 674 764 601 q 820 749 814 719 q 822 796 826 778 q 801 822 817 814 q 763 835 786 831 q 761 943 753 883 q 844 940 796 940 q 924 939 893 939 z "},"W":{"ha":1358,"x_min":125,"x_max":1467,"o":"m 1324 939 q 1392 940 1363 939 q 1467 943 1422 940 q 1447 835 1464 885 q 1413 820 1429 831 q 1378 786 1396 810 q 1340 723 1360 763 q 1293 622 1319 683 q 1156 309 1226 465 q 1007 -4 1085 153 q 978 -8 996 -7 q 939 -8 960 -8 q 897 -3 918 -7 q 860 4 876 0 q 831 147 844 79 q 802 280 817 214 q 771 412 788 346 q 735 550 754 478 q 597 271 668 408 q 450 -6 525 133 q 417 -9 436 -8 q 377 -8 397 -10 q 339 -2 357 -6 q 308 7 321 1 q 260 361 285 190 q 208 674 235 532 q 192 753 199 724 q 178 799 186 782 q 159 823 169 815 q 131 835 149 831 q 126 883 126 854 q 129 943 125 911 q 188 941 156 942 q 250 940 219 940 q 306 939 281 939 q 347 939 332 939 q 394 939 365 939 q 457 940 424 939 q 526 941 490 940 q 594 943 561 942 q 588 882 593 910 q 575 835 582 854 q 490 778 506 826 q 488 647 474 731 q 507 528 496 593 q 528 379 518 463 q 674 657 603 518 q 814 939 746 796 q 925 947 869 951 q 1002 656 968 794 q 1064 369 1036 517 q 1129 510 1099 440 q 1188 650 1160 579 q 1217 786 1225 744 q 1163 835 1210 828 q 1161 943 1153 883 q 1244 940 1196 940 q 1324 939 1293 939 z "},"X":{"ha":950,"x_min":-50,"x_max":1033,"o":"m 418 356 q 368 293 394 325 q 314 229 342 261 q 263 143 265 175 q 292 104 260 111 q 293 -4 301 56 q 210 -1 258 -1 q 131 0 161 0 q 43 -1 92 0 q -50 -4 -6 -1 q -31 104 -47 54 q 30 117 3 108 q 80 140 57 126 q 124 172 103 153 q 169 219 146 192 q 280 349 226 283 q 369 467 333 414 q 315 583 344 522 q 254 706 286 644 q 221 766 235 743 q 193 803 207 789 q 165 824 179 817 q 132 835 151 831 q 127 883 128 854 q 131 943 126 911 q 191 941 157 942 q 258 940 225 940 q 318 939 290 939 q 361 939 346 939 q 408 939 379 939 q 471 940 438 939 q 540 941 504 940 q 608 943 575 942 q 601 882 607 910 q 589 835 596 854 q 543 823 560 831 q 523 799 526 815 q 527 758 519 783 q 554 692 535 732 q 577 640 565 667 q 600 588 589 614 q 644 641 622 614 q 685 692 665 668 q 732 760 718 733 q 747 801 746 786 q 737 824 747 817 q 711 835 726 832 q 710 943 701 883 q 793 940 744 940 q 872 939 842 939 q 950 940 911 939 q 1033 943 989 940 q 1014 835 1031 885 q 971 824 990 831 q 933 806 951 818 q 894 774 914 794 q 850 722 875 754 q 740 583 788 642 q 649 476 693 525 q 690 378 671 424 q 722 299 708 332 q 763 205 746 240 q 797 149 781 169 q 833 119 814 129 q 878 104 851 110 q 883 56 882 85 q 879 -4 883 28 q 819 -2 853 -3 q 752 -1 785 -1 q 691 0 719 0 q 649 0 663 0 q 601 0 629 0 q 539 -1 572 0 q 470 -2 506 -1 q 401 -4 435 -3 q 408 57 403 29 q 421 104 414 85 q 479 141 472 110 q 456 254 486 172 l 418 356 z "},"Y":{"ha":842,"x_min":119,"x_max":950,"o":"m 331 406 q 309 474 319 442 q 286 542 299 507 q 260 613 274 576 q 229 694 246 650 q 201 763 213 738 q 178 803 189 789 q 156 824 167 818 q 131 835 144 831 q 126 883 126 854 q 129 943 125 911 q 188 941 156 942 q 250 940 219 940 q 306 939 281 939 q 347 939 332 939 q 394 939 365 939 q 457 940 424 939 q 526 941 490 940 q 594 943 561 942 q 588 882 593 910 q 575 835 582 854 q 503 800 515 828 q 510 724 492 772 q 541 631 525 683 q 571 521 557 579 q 633 626 606 576 q 686 731 661 676 q 701 803 710 779 q 646 835 693 828 q 644 943 636 883 q 728 940 679 940 q 807 939 776 939 q 876 940 846 939 q 950 943 906 940 q 931 835 947 885 q 910 828 919 832 q 888 810 900 824 q 858 773 875 797 q 814 706 840 749 q 705 536 756 613 q 606 388 654 460 l 583 260 q 576 191 576 218 q 586 147 575 164 q 624 120 597 129 q 696 104 650 111 q 702 49 701 78 q 700 -4 703 21 q 583 -1 654 -1 q 428 0 513 0 q 256 -1 335 0 q 119 -4 176 -1 q 129 55 122 26 q 144 104 136 83 q 218 117 190 110 q 263 143 246 125 q 290 192 281 161 q 308 274 300 222 l 331 406 z "},"Ý":{"ha":842,"x_min":119,"x_max":950,"o":"m 331 406 q 309 474 319 442 q 286 542 299 507 q 260 613 274 576 q 229 694 246 650 q 201 763 213 738 q 178 803 189 789 q 156 824 167 818 q 131 835 144 831 q 126 883 126 854 q 129 943 125 911 q 188 941 156 942 q 250 940 219 940 q 306 939 281 939 q 347 939 332 939 q 394 939 365 939 q 457 940 424 939 q 526 941 490 940 q 594 943 561 942 q 588 882 593 910 q 575 835 582 854 q 503 800 515 828 q 510 724 492 772 q 541 631 525 683 q 571 521 557 579 q 633 626 606 576 q 686 731 661 676 q 701 803 710 779 q 646 835 693 828 q 644 943 636 883 q 728 940 679 940 q 807 939 776 939 q 876 940 846 939 q 950 943 906 940 q 931 835 947 885 q 910 828 919 832 q 888 810 900 824 q 858 773 875 797 q 814 706 840 749 q 705 536 756 613 q 606 388 654 460 l 583 260 q 576 191 576 218 q 586 147 575 164 q 624 120 597 129 q 696 104 650 111 q 702 49 701 78 q 700 -4 703 21 q 583 -1 654 -1 q 428 0 513 0 q 256 -1 335 0 q 119 -4 176 -1 q 129 55 122 26 q 144 104 136 83 q 218 117 190 110 q 263 143 246 125 q 290 192 281 161 q 308 274 300 222 l 331 406 m 590 1301 q 724 1304 660 1311 q 824 1278 788 1297 q 699 1147 756 1211 q 607 1026 643 1082 q 476 1072 535 1033 q 512 1133 494 1101 q 544 1197 529 1165 q 572 1255 560 1228 q 590 1301 583 1282 z "},"Z":{"ha":776,"x_min":-21,"x_max":844,"o":"m 449 835 q 391 825 417 835 q 343 792 365 815 q 300 728 321 768 q 257 626 279 688 q 110 669 163 631 q 135 734 122 699 q 158 806 147 769 q 176 878 168 843 q 189 943 183 914 q 256 941 215 942 q 340 940 296 940 q 427 939 383 939 q 503 939 471 939 q 581 939 539 939 q 666 940 624 939 q 747 941 708 940 q 817 943 786 942 q 838 895 832 921 q 842 833 844 869 q 715 648 776 738 q 590 469 653 558 q 463 290 528 381 q 326 104 399 200 l 360 104 q 440 114 406 104 q 501 147 474 124 q 551 210 528 171 q 597 307 574 249 q 676 287 642 300 q 742 250 710 274 q 719 191 731 224 q 697 124 707 158 q 678 57 686 90 q 665 -4 669 24 q 581 -2 626 -3 q 489 -1 535 -1 q 399 0 443 0 q 317 0 354 0 q 149 -1 229 0 q 8 -4 69 -1 q -13 45 -6 17 q -19 108 -21 74 q 124 296 56 206 q 255 474 192 386 q 380 650 318 561 q 507 835 442 739 l 449 835 z "},"a":{"ha":847,"x_min":6,"x_max":814,"o":"m 721 256 q 709 198 713 219 q 706 165 706 176 q 711 149 707 153 q 722 144 715 144 q 742 149 732 144 q 769 164 751 153 q 797 123 783 150 q 814 72 811 96 q 715 8 768 28 q 597 -12 663 -12 q 524 1 553 -12 q 478 37 494 14 q 458 90 463 60 q 458 153 454 119 l 457 153 q 331 30 400 72 q 188 -12 261 -12 q 81 22 121 -12 q 24 106 42 56 q 6 215 7 157 q 15 322 6 274 q 57 445 28 386 q 137 549 86 504 q 262 622 188 594 q 436 649 336 649 q 524 642 485 649 q 596 625 564 636 q 674 635 636 629 q 747 649 711 640 q 785 597 776 625 q 783 526 793 569 l 721 256 m 511 531 q 469 542 494 538 q 426 546 443 546 q 380 532 400 546 q 344 494 360 518 q 319 438 329 471 q 300 367 308 404 q 288 222 282 272 q 333 172 293 172 q 372 186 350 172 q 415 233 393 200 q 458 324 438 267 q 496 467 479 381 l 511 531 z "},"á":{"ha":847,"x_min":6,"x_max":814,"o":"m 721 256 q 709 198 713 219 q 706 165 706 176 q 711 149 707 153 q 722 144 715 144 q 742 149 732 144 q 769 164 751 153 q 797 123 783 150 q 814 72 811 96 q 715 8 768 28 q 597 -12 663 -12 q 524 1 553 -12 q 478 37 494 14 q 458 90 463 60 q 458 153 454 119 l 457 153 q 331 30 400 72 q 188 -12 261 -12 q 81 22 121 -12 q 24 106 42 56 q 6 215 7 157 q 15 322 6 274 q 57 445 28 386 q 137 549 86 504 q 262 622 188 594 q 436 649 336 649 q 524 642 485 649 q 596 625 564 636 q 674 635 636 629 q 747 649 711 640 q 785 597 776 625 q 783 526 793 569 l 721 256 m 511 531 q 469 542 494 538 q 426 546 443 546 q 380 532 400 546 q 344 494 360 518 q 319 438 329 471 q 300 367 308 404 q 288 222 282 272 q 333 172 293 172 q 372 186 350 172 q 415 233 393 200 q 458 324 438 267 q 496 467 479 381 l 511 531 m 503 999 q 636 1001 572 1008 q 736 975 700 994 q 612 844 668 908 q 519 724 556 779 q 389 769 447 731 q 424 831 407 799 q 457 894 442 863 q 484 952 472 925 q 503 999 496 979 z "},"â":{"ha":847,"x_min":6,"x_max":814,"o":"m 721 256 q 709 198 713 219 q 706 165 706 176 q 711 149 707 153 q 722 144 715 144 q 742 149 732 144 q 769 164 751 153 q 797 123 783 150 q 814 72 811 96 q 715 8 768 28 q 597 -12 663 -12 q 524 1 553 -12 q 478 37 494 14 q 458 90 463 60 q 458 153 454 119 l 457 153 q 331 30 400 72 q 188 -12 261 -12 q 81 22 121 -12 q 24 106 42 56 q 6 215 7 157 q 15 322 6 274 q 57 445 28 386 q 137 549 86 504 q 262 622 188 594 q 436 649 336 649 q 524 642 485 649 q 596 625 564 636 q 674 635 636 629 q 747 649 711 640 q 785 597 776 625 q 783 526 793 569 l 721 256 m 511 531 q 469 542 494 538 q 426 546 443 546 q 380 532 400 546 q 344 494 360 518 q 319 438 329 471 q 300 367 308 404 q 288 222 282 272 q 333 172 293 172 q 372 186 350 172 q 415 233 393 200 q 458 324 438 267 q 496 467 479 381 l 511 531 m 496 999 q 555 1001 524 1003 q 614 989 586 999 q 694 885 650 938 q 800 767 739 832 q 749 737 781 747 q 678 724 717 726 q 595 783 639 756 q 511 831 551 811 q 460 803 488 819 q 404 771 432 788 q 351 738 376 754 q 310 710 326 722 q 255 753 275 724 q 231 807 235 783 q 300 849 264 825 q 372 898 336 872 q 439 949 407 924 q 496 999 471 975 z "},"ä":{"ha":847,"x_min":6,"x_max":814,"o":"m 721 256 q 709 198 713 219 q 706 165 706 176 q 711 149 707 153 q 722 144 715 144 q 742 149 732 144 q 769 164 751 153 q 797 123 783 150 q 814 72 811 96 q 715 8 768 28 q 597 -12 663 -12 q 524 1 553 -12 q 478 37 494 14 q 458 90 463 60 q 458 153 454 119 l 457 153 q 331 30 400 72 q 188 -12 261 -12 q 81 22 121 -12 q 24 106 42 56 q 6 215 7 157 q 15 322 6 274 q 57 445 28 386 q 137 549 86 504 q 262 622 188 594 q 436 649 336 649 q 524 642 485 649 q 596 625 564 636 q 674 635 636 629 q 747 649 711 640 q 785 597 776 625 q 783 526 793 569 l 721 256 m 511 531 q 469 542 494 538 q 426 546 443 546 q 380 532 400 546 q 344 494 360 518 q 319 438 329 471 q 300 367 308 404 q 288 222 282 272 q 333 172 293 172 q 372 186 350 172 q 415 233 393 200 q 458 324 438 267 q 496 467 479 381 l 511 531 m 235 839 q 276 916 244 889 q 364 943 307 943 q 458 903 429 943 q 472 797 488 864 q 428 718 460 746 q 344 690 397 690 q 250 731 279 690 q 235 839 221 772 m 792 800 q 660 690 771 690 q 565 728 594 690 q 547 831 535 767 q 589 914 556 885 q 685 943 622 943 q 776 905 747 943 q 792 800 806 867 z "},"æ":{"ha":1131,"x_min":6,"x_max":1119,"o":"m 463 158 q 333 31 404 75 q 188 -12 263 -12 q 81 22 121 -12 q 24 106 42 56 q 6 215 7 157 q 15 322 6 274 q 57 445 28 386 q 137 549 86 504 q 262 622 188 594 q 436 649 336 649 q 521 642 483 649 q 590 626 558 636 q 646 635 618 629 q 706 649 674 642 q 717 638 713 643 q 726 628 722 633 q 869 649 790 649 q 1058 597 997 649 q 1106 467 1119 546 q 1070 392 1099 431 q 993 322 1042 354 q 877 267 944 289 q 726 240 810 244 q 755 165 731 193 q 836 136 779 136 q 922 150 882 136 q 992 179 963 164 q 1013 126 1007 153 q 1015 65 1018 100 q 952 28 983 43 q 886 5 921 14 q 812 -8 851 -4 q 724 -12 772 -12 q 616 0 661 -12 q 540 35 571 13 q 490 90 508 58 q 464 158 472 121 l 463 158 m 733 347 q 865 385 813 354 q 925 463 917 415 q 867 549 942 549 q 790 508 826 549 q 738 376 754 468 l 733 347 m 511 531 q 469 542 496 538 q 426 546 443 546 q 380 532 400 546 q 344 494 360 518 q 319 438 329 471 q 300 367 308 404 q 288 222 282 272 q 333 172 293 172 q 372 186 350 172 q 415 233 393 200 q 458 324 438 267 q 496 467 479 381 l 511 531 z "},"à":{"ha":847,"x_min":6,"x_max":814,"o":"m 721 256 q 709 198 713 219 q 706 165 706 176 q 711 149 707 153 q 722 144 715 144 q 742 149 732 144 q 769 164 751 153 q 797 123 783 150 q 814 72 811 96 q 715 8 768 28 q 597 -12 663 -12 q 524 1 553 -12 q 478 37 494 14 q 458 90 463 60 q 458 153 454 119 l 457 153 q 331 30 400 72 q 188 -12 261 -12 q 81 22 121 -12 q 24 106 42 56 q 6 215 7 157 q 15 322 6 274 q 57 445 28 386 q 137 549 86 504 q 262 622 188 594 q 436 649 336 649 q 524 642 485 649 q 596 625 564 636 q 674 635 636 629 q 747 649 711 640 q 785 597 776 625 q 783 526 793 569 l 721 256 m 511 531 q 469 542 494 538 q 426 546 443 546 q 380 532 400 546 q 344 494 360 518 q 319 438 329 471 q 300 367 308 404 q 288 222 282 272 q 333 172 293 172 q 372 186 350 172 q 415 233 393 200 q 458 324 438 267 q 496 467 479 381 l 511 531 m 288 967 q 396 985 338 981 q 513 979 454 990 q 538 867 522 928 q 574 753 554 806 q 508 744 544 744 q 443 754 471 744 q 375 857 411 808 q 288 967 339 906 z "},"å":{"ha":847,"x_min":6,"x_max":814,"o":"m 721 256 q 709 198 713 219 q 706 165 706 176 q 711 149 707 153 q 722 144 715 144 q 742 149 732 144 q 769 164 751 153 q 797 123 783 150 q 814 72 811 96 q 715 8 768 28 q 597 -12 663 -12 q 524 1 553 -12 q 478 37 494 14 q 458 90 463 60 q 458 153 454 119 l 457 153 q 331 30 400 72 q 188 -12 261 -12 q 81 22 121 -12 q 24 106 42 56 q 6 215 7 157 q 15 322 6 274 q 57 445 28 386 q 137 549 86 504 q 262 622 188 594 q 436 649 336 649 q 524 642 485 649 q 596 625 564 636 q 674 635 636 629 q 747 649 711 640 q 785 597 776 625 q 783 526 793 569 l 721 256 m 511 531 q 469 542 494 538 q 426 546 443 546 q 380 532 400 546 q 344 494 360 518 q 319 438 329 471 q 300 367 308 404 q 288 222 282 272 q 333 172 293 172 q 372 186 350 172 q 415 233 393 200 q 458 324 438 267 q 496 467 479 381 l 511 531 m 540 1013 q 679 971 636 1013 q 708 850 722 929 q 640 753 697 789 q 500 717 583 717 q 363 759 406 717 q 333 881 319 801 q 401 976 344 940 q 540 1013 458 1013 m 529 936 q 476 868 488 936 q 481 819 471 839 q 514 800 490 800 q 547 816 532 800 q 568 860 563 832 q 565 910 572 885 q 529 936 557 936 z "},"ã":{"ha":847,"x_min":6,"x_max":818,"o":"m 721 256 q 709 198 713 219 q 706 165 706 176 q 711 149 707 153 q 722 144 715 144 q 742 149 732 144 q 769 164 751 153 q 797 123 783 150 q 814 72 811 96 q 715 8 768 28 q 597 -12 663 -12 q 524 1 553 -12 q 478 37 494 14 q 458 90 463 60 q 458 153 454 119 l 457 153 q 331 30 400 72 q 188 -12 261 -12 q 81 22 121 -12 q 24 106 42 56 q 6 215 7 157 q 15 322 6 274 q 57 445 28 386 q 137 549 86 504 q 262 622 188 594 q 436 649 336 649 q 524 642 485 649 q 596 625 564 636 q 674 635 636 629 q 747 649 711 640 q 785 597 776 625 q 783 526 793 569 l 721 256 m 511 531 q 469 542 494 538 q 426 546 443 546 q 380 532 400 546 q 344 494 360 518 q 319 438 329 471 q 300 367 308 404 q 288 222 282 272 q 333 172 293 172 q 372 186 350 172 q 415 233 393 200 q 458 324 438 267 q 496 467 479 381 l 511 531 m 439 954 q 501 945 475 954 q 551 926 528 936 q 594 906 574 915 q 638 897 614 897 q 713 914 681 897 q 765 946 744 931 q 800 901 786 925 q 818 844 814 876 q 710 730 760 765 q 600 694 661 694 q 535 704 561 694 q 486 726 508 714 q 442 749 464 739 q 393 758 421 758 q 315 739 357 758 q 239 693 272 719 q 208 745 218 719 q 197 807 197 771 q 272 883 238 854 q 338 927 307 911 q 393 949 368 943 q 439 954 418 954 z "},"b":{"ha":808,"x_min":8,"x_max":803,"o":"m 143 703 q 151 764 149 740 q 146 801 153 788 q 121 819 139 814 q 69 825 103 825 q 74 878 69 850 q 88 929 78 906 q 254 945 174 932 q 404 986 335 958 q 427 963 418 974 q 440 940 436 953 q 444 908 444 926 q 440 864 444 890 l 410 696 q 396 629 403 658 q 381 574 389 600 q 365 525 374 549 q 344 475 356 501 l 346 475 q 475 604 404 560 q 621 649 546 649 q 727 615 688 649 q 784 530 767 581 q 802 421 801 479 q 793 314 803 363 q 751 190 781 249 q 670 86 721 131 q 544 15 619 42 q 368 -12 469 -12 q 161 20 256 -12 q 8 111 67 53 q 42 182 26 140 q 72 301 58 224 l 143 703 m 300 106 q 338 93 319 96 q 375 90 357 90 q 463 142 432 90 q 508 269 493 193 q 521 414 526 364 q 475 464 515 464 q 437 450 458 464 q 393 403 415 436 q 350 313 371 369 q 313 169 329 256 l 300 106 z "},"c":{"ha":626,"x_min":4,"x_max":628,"o":"m 435 649 q 545 634 493 649 q 628 599 597 619 q 600 447 600 518 q 479 439 543 426 q 470 513 482 483 q 421 543 458 543 q 353 506 386 543 q 303 376 319 468 q 290 282 292 326 q 297 206 288 238 q 332 155 307 174 q 401 136 357 136 q 488 150 447 136 q 557 179 528 164 q 578 126 572 153 q 581 65 583 100 q 517 28 549 43 q 451 5 486 14 q 377 -8 417 -4 q 289 -12 338 -12 q 135 15 194 -12 q 46 90 76 43 q 10 197 15 136 q 17 325 4 258 q 52 433 26 376 q 126 538 78 490 q 250 617 175 586 q 435 649 325 649 z "},"ç":{"ha":626,"x_min":6,"x_max":628,"o":"m 207 -6 q 97 38 139 7 q 33 113 54 68 q 8 212 11 157 q 17 325 6 267 q 52 433 26 376 q 126 538 78 490 q 250 617 175 586 q 435 649 325 649 q 545 634 493 649 q 628 599 597 619 q 600 447 600 518 q 479 439 543 426 q 470 513 482 483 q 421 543 458 543 q 353 506 386 543 q 303 376 319 468 q 290 282 292 326 q 297 206 288 238 q 332 155 307 174 q 401 136 357 136 q 488 150 447 136 q 557 179 528 164 q 578 126 572 153 q 581 65 583 100 q 466 8 524 25 q 328 -12 408 -10 l 278 -64 q 347 -118 329 -81 q 354 -206 364 -156 q 274 -305 342 -271 q 85 -336 206 -339 q 81 -301 79 -321 q 86 -265 82 -281 q 168 -253 132 -267 q 208 -215 204 -239 q 193 -168 215 -183 q 136 -153 171 -153 q 124 -87 119 -124 l 207 -6 z "},"d":{"ha":857,"x_min":6,"x_max":824,"o":"m 711 253 q 703 198 706 219 q 700 165 700 176 q 704 149 700 153 q 715 144 708 144 q 735 149 725 144 q 763 164 744 153 q 790 123 776 150 q 807 72 804 96 q 708 8 761 28 q 593 -12 656 -12 q 521 2 549 -12 q 477 40 493 17 q 458 92 461 63 q 460 154 454 122 l 458 154 q 331 30 400 72 q 188 -12 261 -12 q 81 22 121 -12 q 24 106 42 56 q 6 215 7 157 q 15 322 6 274 q 57 445 28 386 q 137 549 86 504 q 262 622 188 594 q 436 649 336 649 q 479 647 460 649 q 518 643 499 646 q 519 676 518 661 q 522 703 521 692 q 530 764 528 740 q 525 801 532 788 q 500 819 518 814 q 449 825 482 825 q 453 878 449 850 q 467 929 457 906 q 633 945 553 932 q 783 986 714 958 q 806 963 797 974 q 819 940 815 953 q 824 908 824 926 q 819 864 824 890 l 711 253 m 511 531 q 469 542 496 538 q 426 546 443 546 q 380 532 400 546 q 344 494 360 518 q 319 438 329 471 q 300 367 308 404 q 288 222 282 272 q 333 172 293 172 q 372 186 350 172 q 415 233 393 200 q 458 324 438 267 q 496 467 479 381 l 511 531 z "},"ı":{"ha":471,"x_min":25,"x_max":438,"o":"m 97 364 q 108 426 106 401 q 102 463 110 450 q 76 482 94 476 q 25 488 58 488 q 29 540 25 513 q 43 592 33 568 q 346 649 211 596 q 391 603 376 632 q 394 515 406 574 l 344 256 q 332 165 331 185 q 349 144 333 144 q 367 149 357 144 q 393 164 378 153 q 421 123 407 150 q 438 72 435 96 q 333 8 392 28 q 211 -12 274 -12 q 118 6 151 -12 q 70 57 85 24 q 57 136 56 90 q 71 239 58 182 l 97 364 z "},"ȷ":{"ha":429,"x_min":-136,"x_max":414,"o":"m 113 365 q 120 426 118 403 q 115 463 122 450 q 90 482 108 476 q 39 488 72 488 q 43 540 39 513 q 57 592 47 568 q 224 608 143 594 q 374 649 304 621 q 397 626 388 636 q 410 602 406 615 q 414 571 414 589 q 410 526 414 553 l 347 174 q 292 -28 326 56 q 206 -169 258 -111 q 81 -268 154 -228 q -93 -342 7 -308 q -136 -232 -136 -304 q -69 -187 -100 -214 q -12 -125 -37 -161 q 33 -40 14 -89 q 63 72 51 8 l 113 365 z "},"e":{"ha":694,"x_min":4,"x_max":685,"o":"m 435 649 q 624 597 563 649 q 671 467 685 546 q 635 393 664 431 q 559 323 607 356 q 444 267 511 290 q 290 240 376 244 q 319 164 294 192 q 401 136 344 136 q 488 150 447 136 q 557 179 528 164 q 578 126 572 153 q 581 65 583 100 q 517 28 549 43 q 451 5 486 14 q 377 -8 417 -4 q 289 -12 338 -12 q 135 15 194 -12 q 46 90 76 43 q 10 197 15 136 q 17 325 4 258 q 67 457 31 397 q 157 560 103 517 q 281 626 211 603 q 435 649 351 649 m 297 347 q 431 385 379 354 q 490 463 482 417 q 432 549 507 549 q 356 508 392 549 q 303 376 321 468 l 297 347 z "},"é":{"ha":694,"x_min":4,"x_max":685,"o":"m 435 649 q 624 597 563 649 q 671 467 685 546 q 635 393 664 431 q 559 323 607 356 q 444 267 511 290 q 290 240 376 244 q 319 164 294 192 q 401 136 344 136 q 488 150 447 136 q 557 179 528 164 q 578 126 572 153 q 581 65 583 100 q 517 28 549 43 q 451 5 486 14 q 377 -8 417 -4 q 289 -12 338 -12 q 135 15 194 -12 q 46 90 76 43 q 10 197 15 136 q 17 325 4 258 q 67 457 31 397 q 157 560 103 517 q 281 626 211 603 q 435 649 351 649 m 297 347 q 431 385 379 354 q 490 463 482 417 q 432 549 507 549 q 356 508 392 549 q 303 376 321 468 l 297 347 m 443 999 q 576 1001 513 1008 q 676 975 640 994 q 552 844 608 908 q 460 724 496 779 q 329 769 388 731 q 365 831 347 799 q 397 894 382 863 q 424 952 413 925 q 443 999 436 979 z "},"ê":{"ha":694,"x_min":4,"x_max":739,"o":"m 435 649 q 624 597 563 649 q 671 467 685 546 q 635 393 664 431 q 559 323 607 356 q 444 267 511 290 q 290 240 376 244 q 319 164 294 192 q 401 136 344 136 q 488 150 447 136 q 557 179 528 164 q 578 126 572 153 q 581 65 583 100 q 517 28 549 43 q 451 5 486 14 q 377 -8 417 -4 q 289 -12 338 -12 q 135 15 194 -12 q 46 90 76 43 q 10 197 15 136 q 17 325 4 258 q 67 457 31 397 q 157 560 103 517 q 281 626 211 603 q 435 649 351 649 m 297 347 q 431 385 379 354 q 490 463 482 417 q 432 549 507 549 q 356 508 392 549 q 303 376 321 468 l 297 347 m 435 999 q 494 1001 463 1003 q 553 989 525 999 q 633 885 589 938 q 739 767 678 832 q 688 737 719 747 q 617 724 656 726 q 534 783 578 756 q 450 831 490 811 q 399 803 426 819 q 343 771 371 788 q 290 738 315 754 q 249 710 265 722 q 194 753 214 724 q 169 807 174 783 q 239 849 203 825 q 310 898 275 872 q 378 949 346 924 q 435 999 410 975 z "},"ë":{"ha":694,"x_min":4,"x_max":747,"o":"m 435 649 q 624 597 563 649 q 671 467 685 546 q 635 393 664 431 q 559 323 607 356 q 444 267 511 290 q 290 240 376 244 q 319 164 294 192 q 401 136 344 136 q 488 150 447 136 q 557 179 528 164 q 578 126 572 153 q 581 65 583 100 q 517 28 549 43 q 451 5 486 14 q 377 -8 417 -4 q 289 -12 338 -12 q 135 15 194 -12 q 46 90 76 43 q 10 197 15 136 q 17 325 4 258 q 67 457 31 397 q 157 560 103 517 q 281 626 211 603 q 435 649 351 649 m 297 347 q 431 385 379 354 q 490 463 482 417 q 432 549 507 549 q 356 508 392 549 q 303 376 321 468 l 297 347 m 176 839 q 217 916 186 889 q 306 943 249 943 q 400 903 371 943 q 414 797 429 864 q 370 718 401 746 q 286 690 339 690 q 192 731 221 690 q 176 839 163 772 m 733 800 q 601 690 713 690 q 506 728 536 690 q 489 831 476 767 q 531 914 497 885 q 626 943 564 943 q 718 905 689 943 q 733 800 747 867 z "},"è":{"ha":694,"x_min":4,"x_max":685,"o":"m 435 649 q 624 597 563 649 q 671 467 685 546 q 635 393 664 431 q 559 323 607 356 q 444 267 511 290 q 290 240 376 244 q 319 164 294 192 q 401 136 344 136 q 488 150 447 136 q 557 179 528 164 q 578 126 572 153 q 581 65 583 100 q 517 28 549 43 q 451 5 486 14 q 377 -8 417 -4 q 289 -12 338 -12 q 135 15 194 -12 q 46 90 76 43 q 10 197 15 136 q 17 325 4 258 q 67 457 31 397 q 157 560 103 517 q 281 626 211 603 q 435 649 351 649 m 297 347 q 431 385 379 354 q 490 463 482 417 q 432 549 507 549 q 356 508 392 549 q 303 376 321 468 l 297 347 m 228 967 q 336 985 278 981 q 453 979 394 990 q 478 867 463 928 q 514 753 494 806 q 448 744 485 744 q 383 754 411 744 q 315 857 351 808 q 228 967 279 906 z "},"ð":{"ha":743,"x_min":4,"x_max":771,"o":"m 706 1011 q 713 956 713 988 q 708 897 713 924 q 656 878 690 890 q 579 850 622 867 q 728 656 686 769 q 739 379 771 543 q 672 210 719 283 q 562 88 625 138 q 426 13 499 38 q 285 -12 353 -12 q 128 19 186 -12 q 41 101 69 51 q 8 209 13 150 q 15 322 4 268 q 57 445 28 386 q 137 549 86 504 q 262 622 188 594 q 436 649 336 649 q 504 644 472 649 q 478 726 497 690 q 428 790 460 761 q 297 736 357 763 q 203 694 236 710 q 193 750 194 717 q 199 808 192 783 l 325 858 q 272 885 300 872 q 210 913 243 899 q 233 962 218 942 q 272 996 247 982 q 471 917 385 960 l 706 1011 m 349 117 q 421 181 383 117 q 486 386 458 244 q 507 533 503 469 q 466 542 490 539 q 426 546 442 546 q 380 532 400 546 q 344 494 360 518 q 319 438 329 471 q 300 367 308 404 q 288 273 290 318 q 292 193 286 228 q 311 138 297 158 q 349 117 325 117 z "},"f":{"ha":575,"x_min":-218,"x_max":764,"o":"m 171 631 q 212 783 188 715 q 282 897 236 850 q 401 967 328 943 q 589 992 475 992 q 694 985 647 992 q 764 967 742 978 q 751 917 757 946 q 739 856 744 888 q 731 796 733 825 q 728 746 728 767 q 702 738 719 742 q 665 733 685 735 q 625 729 646 731 q 588 728 604 728 q 588 779 588 751 q 585 831 588 807 q 574 872 582 856 q 549 888 565 888 q 515 876 529 888 q 490 833 501 864 q 466 752 478 803 q 440 622 454 701 l 568 622 q 565 557 568 589 q 554 507 563 525 q 485 503 517 507 q 415 489 453 500 q 394 361 404 422 q 374 232 385 300 q 319 15 357 119 q 224 -169 281 -89 q 95 -297 168 -249 q -65 -344 22 -344 q -148 -328 -110 -344 q -218 -276 -186 -312 q -210 -203 -218 -244 q -186 -132 -201 -161 q -115 -156 -153 -149 q -37 -162 -78 -162 q 19 -155 -4 -162 q 56 -125 42 -147 q 80 -61 71 -103 q 96 49 89 -19 q 116 239 103 124 q 150 493 129 354 q 87 508 115 504 q 38 513 58 513 q 42 572 38 542 q 57 622 46 603 l 169 622 l 171 631 z "},"g":{"ha":793,"x_min":-22,"x_max":778,"o":"m 463 161 q 333 32 404 76 q 188 -12 263 -12 q 81 22 121 -12 q 24 106 42 56 q 6 215 7 157 q 15 322 6 274 q 57 445 28 386 q 137 549 86 504 q 262 622 188 594 q 436 649 336 649 q 526 642 486 649 q 599 625 567 636 q 733 649 689 633 q 770 599 763 625 q 771 529 778 572 l 681 15 q 530 -259 647 -171 q 229 -347 413 -347 q 85 -337 150 -347 q -22 -308 21 -328 q -9 -260 -15 -287 q 2 -203 -3 -232 q 10 -147 7 -174 q 13 -99 13 -119 q 38 -91 21 -94 q 75 -85 56 -87 q 115 -82 94 -83 q 153 -81 136 -81 q 250 -242 157 -242 q 346 -200 311 -242 q 396 -71 381 -158 l 404 -26 q 414 22 408 0 q 426 65 419 44 q 442 109 432 86 q 464 161 451 132 l 463 161 m 511 531 q 469 542 496 538 q 426 546 443 546 q 380 532 400 546 q 344 494 360 518 q 319 438 329 471 q 300 367 308 404 q 288 222 282 272 q 333 172 293 172 q 372 186 350 172 q 415 233 393 200 q 458 324 438 267 q 496 467 479 381 l 511 531 z "},"ß":{"ha":1031,"x_min":-218,"x_max":997,"o":"m 171 631 q 213 783 188 715 q 288 897 238 850 q 419 967 338 943 q 631 992 501 992 q 903 933 818 992 q 968 772 988 875 q 944 710 961 735 q 906 669 928 685 q 862 641 885 653 q 818 616 839 629 q 782 585 797 603 q 761 539 767 567 q 773 489 756 513 q 819 442 790 465 q 881 392 847 418 q 941 333 914 365 q 983 262 968 301 q 988 171 997 222 q 956 90 979 124 q 891 33 932 56 q 790 -1 850 10 q 647 -12 731 -12 q 497 1 557 -12 q 396 43 438 15 q 429 233 428 125 q 575 246 492 254 q 592 133 576 169 q 647 96 607 96 q 688 110 671 96 q 708 143 704 124 q 697 194 714 169 q 653 242 681 218 q 594 291 626 265 q 534 348 561 317 q 492 417 507 379 q 488 503 478 454 q 513 556 493 535 q 557 593 532 578 q 610 622 582 608 q 663 651 638 635 q 708 690 689 668 q 733 747 726 713 q 709 853 747 819 q 604 888 671 888 q 544 876 568 888 q 501 834 519 864 q 469 753 483 804 q 440 622 454 701 q 421 519 429 568 q 404 423 413 469 q 389 329 396 376 q 374 232 382 282 q 319 15 357 119 q 224 -169 281 -89 q 95 -297 168 -249 q -65 -344 22 -344 q -148 -328 -110 -344 q -218 -276 -186 -312 q -210 -203 -218 -244 q -186 -132 -201 -161 q -115 -156 -153 -149 q -37 -162 -78 -162 q 19 -155 -4 -162 q 56 -125 42 -147 q 80 -61 71 -103 q 96 49 89 -19 q 116 239 103 124 q 150 493 129 354 q 87 508 115 504 q 38 513 58 513 q 42 572 38 542 q 57 622 46 603 l 169 622 l 171 631 z "},"h":{"ha":918,"x_min":19,"x_max":885,"o":"m 792 256 q 780 198 783 219 q 777 165 776 176 q 782 149 778 153 q 793 144 786 144 q 813 149 803 144 q 840 164 822 153 q 868 123 854 150 q 885 72 882 96 q 780 8 839 28 q 658 -12 721 -12 q 564 6 599 -12 q 514 57 529 24 q 501 136 499 90 q 515 239 503 182 l 521 264 q 535 344 532 313 q 533 392 538 375 q 518 417 529 410 q 492 424 507 424 q 444 405 471 424 q 392 344 418 386 q 341 235 365 303 q 300 71 317 168 l 288 0 l 19 0 l 143 703 q 151 764 149 740 q 146 801 153 788 q 121 819 139 814 q 69 825 103 825 q 74 878 69 850 q 88 929 78 906 q 254 945 174 932 q 404 986 335 958 q 427 963 418 974 q 440 940 436 953 q 444 908 444 926 q 440 864 444 890 q 404 674 419 751 q 377 540 389 596 q 355 444 365 485 q 332 368 344 404 l 333 368 l 364 432 q 420 517 386 478 q 497 586 454 557 q 590 632 540 615 q 692 649 639 649 q 767 636 735 649 q 817 591 800 624 q 835 501 835 558 q 815 357 836 444 l 792 256 z "},"i":{"ha":471,"x_min":25,"x_max":449,"o":"m 438 815 q 264 701 418 701 q 169 738 201 701 q 144 835 136 774 q 198 922 153 892 q 318 951 243 951 q 413 915 378 951 q 438 815 449 878 m 97 364 q 108 426 106 401 q 102 463 110 450 q 76 482 94 476 q 25 488 58 488 q 29 540 25 513 q 43 592 33 568 q 346 649 211 596 q 391 603 376 632 q 394 515 406 574 l 344 256 q 332 165 331 185 q 349 144 333 144 q 367 149 357 144 q 393 164 378 153 q 421 123 407 150 q 438 72 435 96 q 333 8 392 28 q 211 -12 274 -12 q 118 6 151 -12 q 70 57 85 24 q 57 136 56 90 q 71 239 58 182 l 97 364 z "},"í":{"ha":471,"x_min":25,"x_max":500,"o":"m 97 364 q 108 426 106 401 q 102 463 110 450 q 76 482 94 476 q 25 488 58 488 q 29 540 25 513 q 43 592 33 568 q 346 649 211 596 q 391 603 376 632 q 394 515 406 574 l 344 256 q 332 165 331 185 q 349 144 333 144 q 367 149 357 144 q 393 164 378 153 q 421 123 407 150 q 438 72 435 96 q 333 8 392 28 q 211 -12 274 -12 q 118 6 151 -12 q 70 57 85 24 q 57 136 56 90 q 71 239 58 182 l 97 364 m 267 999 q 400 1001 336 1008 q 500 975 464 994 q 376 844 432 908 q 283 724 319 779 q 153 769 211 731 q 188 831 171 799 q 221 894 206 863 q 248 952 236 925 q 267 999 260 979 z "},"î":{"ha":471,"x_min":-8,"x_max":561,"o":"m 97 364 q 108 426 106 401 q 102 463 110 450 q 76 482 94 476 q 25 488 58 488 q 29 540 25 513 q 43 592 33 568 q 346 649 211 596 q 391 603 376 632 q 394 515 406 574 l 344 256 q 332 165 331 185 q 349 144 333 144 q 367 149 357 144 q 393 164 378 153 q 421 123 407 150 q 438 72 435 96 q 333 8 392 28 q 211 -12 274 -12 q 118 6 151 -12 q 70 57 85 24 q 57 136 56 90 q 71 239 58 182 l 97 364 m 257 999 q 316 1001 285 1003 q 375 989 347 999 q 456 885 411 938 q 561 767 500 832 q 510 737 542 747 q 439 724 478 726 q 356 783 400 756 q 272 831 313 811 q 221 803 249 819 q 165 771 193 788 q 113 738 138 754 q 71 710 88 722 q 16 753 36 724 q -8 807 -4 783 q 61 849 25 825 q 133 898 97 872 q 200 949 168 924 q 257 999 232 975 z "},"ï":{"ha":471,"x_min":-15,"x_max":569,"o":"m 97 364 q 108 426 106 401 q 102 463 110 450 q 76 482 94 476 q 25 488 58 488 q 29 540 25 513 q 43 592 33 568 q 346 649 211 596 q 391 603 376 632 q 394 515 406 574 l 344 256 q 332 165 331 185 q 349 144 333 144 q 367 149 357 144 q 393 164 378 153 q 421 123 407 150 q 438 72 435 96 q 333 8 392 28 q 211 -12 274 -12 q 118 6 151 -12 q 70 57 85 24 q 57 136 56 90 q 71 239 58 182 l 97 364 m -1 839 q 40 916 8 889 q 128 943 71 943 q 222 903 193 943 q 236 797 251 864 q 192 718 224 746 q 108 690 161 690 q 14 731 43 690 q -1 839 -15 772 m 556 800 q 424 690 535 690 q 328 728 358 690 q 311 831 299 767 q 353 914 319 885 q 449 943 386 943 q 540 905 511 943 q 556 800 569 867 z "},"ì":{"ha":471,"x_min":25,"x_max":438,"o":"m 97 364 q 108 426 106 401 q 102 463 110 450 q 76 482 94 476 q 25 488 58 488 q 29 540 25 513 q 43 592 33 568 q 346 649 211 596 q 391 603 376 632 q 394 515 406 574 l 344 256 q 332 165 331 185 q 349 144 333 144 q 367 149 357 144 q 393 164 378 153 q 421 123 407 150 q 438 72 435 96 q 333 8 392 28 q 211 -12 274 -12 q 118 6 151 -12 q 70 57 85 24 q 57 136 56 90 q 71 239 58 182 l 97 364 m 53 967 q 161 985 103 981 q 278 979 219 990 q 303 867 288 928 q 339 753 319 806 q 273 744 310 744 q 208 754 236 744 q 140 857 176 808 q 53 967 104 906 z "},"j":{"ha":429,"x_min":-136,"x_max":474,"o":"m 343 951 q 438 915 403 951 q 463 815 474 878 q 289 701 443 701 q 194 738 226 701 q 169 835 161 774 q 223 922 178 892 q 343 951 268 951 m 113 365 q 120 426 118 403 q 115 463 122 450 q 90 482 108 476 q 39 488 72 488 q 43 540 39 513 q 57 592 47 568 q 224 608 143 594 q 374 649 304 621 q 397 626 388 636 q 410 602 406 615 q 414 571 414 589 q 410 526 414 553 l 347 174 q 292 -28 326 56 q 206 -169 258 -111 q 81 -268 154 -228 q -93 -342 7 -308 q -136 -232 -136 -304 q -69 -187 -100 -214 q -12 -125 -37 -161 q 33 -40 14 -89 q 63 72 51 8 l 113 365 z "},"k":{"ha":849,"x_min":19,"x_max":814,"o":"m 335 397 q 390 497 357 451 q 465 576 424 543 q 556 629 507 610 q 660 649 606 649 q 776 603 739 649 q 801 492 814 558 q 734 374 786 419 q 594 300 682 328 q 626 258 614 276 q 654 208 639 239 q 681 165 669 176 q 710 153 693 153 q 742 164 726 153 q 771 122 757 149 q 786 72 785 96 q 689 8 740 28 q 579 -12 638 -12 q 474 13 517 -12 q 408 104 432 38 q 377 179 394 143 q 339 247 360 215 q 334 228 336 238 q 329 207 332 218 l 288 0 l 19 0 l 143 703 q 151 764 149 740 q 146 801 153 788 q 121 819 139 814 q 69 825 103 825 q 74 878 69 850 q 88 929 78 906 q 254 945 174 932 q 404 986 335 958 q 427 963 418 974 q 440 940 436 953 q 444 908 444 926 q 440 864 444 890 q 410 700 424 768 q 385 580 397 632 q 361 485 374 528 q 333 397 349 442 l 335 397 m 550 411 q 544 451 556 433 q 510 468 533 468 q 431 426 469 468 q 364 318 392 385 q 490 344 439 322 q 550 411 542 367 z "},"l":{"ha":479,"x_min":46,"x_max":444,"o":"m 328 256 q 319 198 321 219 q 319 165 317 176 q 326 149 321 153 q 338 144 331 144 q 357 149 347 144 q 385 164 367 153 q 413 123 399 150 q 429 72 426 96 q 324 8 383 28 q 203 -12 265 -12 q 126 -1 157 -12 q 78 28 96 10 q 53 73 61 47 q 46 129 46 99 q 49 176 46 149 q 62 263 51 203 q 91 426 72 322 q 143 703 110 531 q 152 764 150 740 q 147 801 154 788 q 121 819 139 814 q 69 825 103 825 q 74 878 69 850 q 88 929 78 906 q 254 945 174 932 q 404 986 335 958 q 427 963 418 974 q 440 940 436 953 q 444 908 444 926 q 440 864 444 890 q 328 256 386 560 z "},"m":{"ha":1349,"x_min":25,"x_max":1315,"o":"m 97 364 q 106 426 104 401 q 101 463 108 450 q 76 482 94 476 q 25 488 58 488 q 29 540 25 513 q 43 592 33 568 q 210 608 129 594 q 360 649 290 621 q 397 610 388 633 q 403 558 407 588 q 385 477 397 517 q 350 386 374 438 l 351 386 l 374 432 q 431 519 396 479 q 506 588 465 558 q 594 633 547 617 q 686 649 640 649 q 785 613 757 649 q 814 514 814 576 q 794 386 814 443 l 796 386 l 813 424 q 872 520 836 479 q 949 588 907 561 q 1035 628 990 615 q 1122 640 1079 640 q 1208 622 1176 640 q 1251 567 1239 603 q 1261 478 1264 531 q 1244 358 1258 426 l 1222 256 q 1208 165 1207 185 q 1224 144 1208 144 q 1243 149 1233 144 q 1271 164 1253 153 q 1299 123 1285 150 q 1315 72 1313 96 q 1210 8 1269 28 q 1089 -12 1151 -12 q 994 6 1029 -12 q 944 57 960 24 q 930 136 928 90 q 946 239 932 182 l 950 256 q 966 335 961 304 q 968 384 971 367 q 956 408 965 401 q 931 415 947 415 q 888 398 913 415 q 839 340 864 381 q 790 233 814 299 q 750 72 767 168 l 738 0 l 476 0 l 526 264 q 538 342 535 311 q 538 392 542 374 q 525 417 535 410 q 497 424 515 424 q 453 405 478 424 q 402 344 428 386 q 352 235 376 303 q 310 69 328 167 l 297 0 l 29 0 l 97 364 z "},"n":{"ha":928,"x_min":25,"x_max":894,"o":"m 801 256 q 790 198 793 219 q 787 165 786 176 q 792 149 788 153 q 803 144 796 144 q 822 149 813 144 q 850 164 832 153 q 878 123 864 150 q 894 72 892 96 q 790 8 849 28 q 668 -12 731 -12 q 574 6 608 -12 q 524 57 539 24 q 510 136 508 90 q 525 239 513 182 l 531 264 q 544 344 542 313 q 543 392 547 375 q 528 417 539 410 q 501 424 517 424 q 454 405 481 424 q 402 344 428 386 q 352 235 376 303 q 310 69 328 167 l 297 0 l 29 0 l 97 364 q 106 426 104 401 q 101 463 108 450 q 76 482 94 476 q 25 488 58 488 q 29 540 25 513 q 43 592 33 568 q 210 608 129 594 q 360 649 290 621 q 397 610 388 633 q 403 558 407 588 q 383 474 396 514 q 347 382 371 435 l 349 382 l 374 432 q 431 517 396 478 q 508 586 465 557 q 600 632 551 615 q 701 649 649 649 q 777 636 744 649 q 827 591 810 624 q 845 501 844 558 q 825 357 846 444 l 801 256 z "},"ñ":{"ha":928,"x_min":25,"x_max":894,"o":"m 801 256 q 790 198 793 219 q 787 165 786 176 q 792 149 788 153 q 803 144 796 144 q 822 149 813 144 q 850 164 832 153 q 878 123 864 150 q 894 72 892 96 q 790 8 849 28 q 668 -12 731 -12 q 574 6 608 -12 q 524 57 539 24 q 510 136 508 90 q 525 239 513 182 l 531 264 q 544 344 542 313 q 543 392 547 375 q 528 417 539 410 q 501 424 517 424 q 454 405 481 424 q 402 344 428 386 q 352 235 376 303 q 310 69 328 167 l 297 0 l 29 0 l 97 364 q 106 426 104 401 q 101 463 108 450 q 76 482 94 476 q 25 488 58 488 q 29 540 25 513 q 43 592 33 568 q 210 608 129 594 q 360 649 290 621 q 397 610 388 633 q 403 558 407 588 q 383 474 396 514 q 347 382 371 435 l 349 382 l 374 432 q 431 517 396 478 q 508 586 465 557 q 600 632 551 615 q 701 649 649 649 q 777 636 744 649 q 827 591 810 624 q 845 501 844 558 q 825 357 846 444 l 801 256 m 429 954 q 492 945 465 954 q 541 926 518 936 q 584 906 564 915 q 628 897 604 897 q 703 914 671 897 q 756 946 735 931 q 790 901 776 925 q 808 844 804 876 q 701 730 750 765 q 590 694 651 694 q 525 704 551 694 q 476 726 499 714 q 433 749 454 739 q 383 758 411 758 q 305 739 347 758 q 229 693 263 719 q 198 745 208 719 q 188 807 188 771 q 263 883 228 854 q 328 927 297 911 q 383 949 358 943 q 429 954 408 954 z "},"o":{"ha":792,"x_min":3,"x_max":789,"o":"m 18 333 q 155 570 50 492 q 450 649 260 649 q 605 624 538 649 q 715 555 672 600 q 773 446 757 510 q 774 301 789 382 q 637 66 743 144 q 338 -12 531 -12 q 184 13 250 -12 q 76 83 118 38 q 18 192 33 128 q 18 333 3 256 m 297 344 q 288 251 289 296 q 297 171 288 206 q 325 115 306 136 q 375 94 344 94 q 415 109 396 94 q 449 151 433 124 q 477 215 465 178 q 496 297 489 253 q 491 486 517 424 q 419 549 465 549 q 343 491 375 549 q 297 344 311 433 z "},"ó":{"ha":792,"x_min":3,"x_max":789,"o":"m 18 333 q 155 570 50 492 q 450 649 260 649 q 605 624 538 649 q 715 555 672 600 q 773 446 757 510 q 774 301 789 382 q 637 66 743 144 q 338 -12 531 -12 q 184 13 250 -12 q 76 83 118 38 q 18 192 33 128 q 18 333 3 256 m 297 344 q 288 251 289 296 q 297 171 288 206 q 325 115 306 136 q 375 94 344 94 q 415 109 396 94 q 449 151 433 124 q 477 215 465 178 q 496 297 489 253 q 491 486 517 424 q 419 549 465 549 q 343 491 375 549 q 297 344 311 433 m 463 999 q 596 1001 532 1008 q 696 975 660 994 q 572 844 628 908 q 479 724 515 779 q 349 769 407 731 q 384 831 367 799 q 417 894 401 863 q 444 952 432 925 q 463 999 456 979 z "},"ô":{"ha":792,"x_min":3,"x_max":789,"o":"m 18 333 q 155 570 50 492 q 450 649 260 649 q 605 624 538 649 q 715 555 672 600 q 773 446 757 510 q 774 301 789 382 q 637 66 743 144 q 338 -12 531 -12 q 184 13 250 -12 q 76 83 118 38 q 18 192 33 128 q 18 333 3 256 m 297 344 q 288 251 289 296 q 297 171 288 206 q 325 115 306 136 q 375 94 344 94 q 415 109 396 94 q 449 151 433 124 q 477 215 465 178 q 496 297 489 253 q 491 486 517 424 q 419 549 465 549 q 343 491 375 549 q 297 344 311 433 m 453 999 q 512 1001 481 1003 q 571 989 543 999 q 651 885 607 938 q 757 767 696 832 q 706 737 738 747 q 635 724 674 726 q 552 783 596 756 q 468 831 508 811 q 417 803 444 819 q 361 771 389 788 q 308 738 333 754 q 267 710 283 722 q 212 753 232 724 q 188 807 192 783 q 257 849 221 825 q 328 898 293 872 q 396 949 364 924 q 453 999 428 975 z "},"ö":{"ha":792,"x_min":3,"x_max":789,"o":"m 18 333 q 155 570 50 492 q 450 649 260 649 q 605 624 538 649 q 715 555 672 600 q 773 446 757 510 q 774 301 789 382 q 637 66 743 144 q 338 -12 531 -12 q 184 13 250 -12 q 76 83 118 38 q 18 192 33 128 q 18 333 3 256 m 297 344 q 288 251 289 296 q 297 171 288 206 q 325 115 306 136 q 375 94 344 94 q 415 109 396 94 q 449 151 433 124 q 477 215 465 178 q 496 297 489 253 q 491 486 517 424 q 419 549 465 549 q 343 491 375 549 q 297 344 311 433 m 194 839 q 235 916 204 889 q 324 943 267 943 q 418 903 389 943 q 432 797 447 864 q 388 718 419 746 q 304 690 357 690 q 210 731 239 690 q 194 839 181 772 m 751 800 q 619 690 731 690 q 524 728 554 690 q 507 831 494 767 q 549 914 515 885 q 644 943 582 943 q 736 905 707 943 q 751 800 765 867 z "},"ò":{"ha":792,"x_min":3,"x_max":789,"o":"m 18 333 q 155 570 50 492 q 450 649 260 649 q 605 624 538 649 q 715 555 672 600 q 773 446 757 510 q 774 301 789 382 q 637 66 743 144 q 338 -12 531 -12 q 184 13 250 -12 q 76 83 118 38 q 18 192 33 128 q 18 333 3 256 m 297 344 q 288 251 289 296 q 297 171 288 206 q 325 115 306 136 q 375 94 344 94 q 415 109 396 94 q 449 151 433 124 q 477 215 465 178 q 496 297 489 253 q 491 486 517 424 q 419 549 465 549 q 343 491 375 549 q 297 344 311 433 m 247 967 q 356 985 297 981 q 472 979 414 990 q 498 867 482 928 q 533 753 514 806 q 467 744 504 744 q 403 754 431 744 q 335 857 371 808 q 247 967 299 906 z "},"ª":{"ha":779,"x_min":149,"x_max":761,"o":"m 706 721 q 697 659 694 672 q 710 646 699 646 q 738 657 724 646 q 755 613 749 643 q 757 563 761 583 q 682 515 722 529 q 594 500 642 500 q 504 537 526 500 q 490 622 482 574 l 488 622 q 392 531 444 563 q 286 500 340 500 q 206 526 236 500 q 163 589 176 551 q 149 670 150 626 q 156 750 149 714 q 188 843 165 799 q 248 922 210 888 q 341 976 286 956 q 471 996 396 996 q 540 991 510 996 q 593 978 569 986 q 659 985 628 981 q 718 996 690 989 q 748 957 742 978 q 747 904 754 936 l 706 721 m 510 890 q 474 894 490 894 q 425 864 450 894 q 385 754 400 833 q 381 694 378 719 q 400 668 385 668 q 451 713 424 668 q 504 861 479 757 l 510 890 z "},"º":{"ha":715,"x_min":149,"x_max":735,"o":"m 161 783 q 257 942 182 888 q 478 996 332 996 q 595 978 544 996 q 678 925 646 960 q 723 841 711 890 q 724 729 735 792 q 394 496 683 496 q 278 516 328 496 q 199 574 229 536 q 158 665 168 611 q 161 783 149 718 m 372 768 q 367 706 367 736 q 372 652 367 675 q 390 615 378 629 q 419 601 401 601 q 473 638 451 601 q 506 733 494 675 q 502 858 519 817 q 457 899 485 899 q 403 862 424 899 q 372 768 383 825 z "},"ø":{"ha":792,"x_min":-25,"x_max":803,"o":"m 699 668 q 763 649 735 665 q 803 610 790 633 q 765 581 785 596 q 722 547 744 565 q 775 441 761 503 q 774 301 789 379 q 637 66 743 144 q 338 -12 531 -12 q 150 26 231 -12 l 89 -36 q 24 -22 56 -36 q -25 14 -7 -8 l 65 96 q 16 200 29 140 q 18 333 3 260 q 155 570 50 492 q 450 649 260 649 q 636 611 558 649 l 699 668 m 492 482 q 419 549 471 549 q 343 491 375 549 q 297 344 311 433 q 294 322 294 333 q 292 300 293 311 l 492 482 m 496 297 q 500 329 499 314 q 503 360 501 344 q 399 266 451 314 q 297 169 347 218 q 326 115 307 135 q 375 94 344 94 q 415 109 396 94 q 449 151 433 124 q 477 215 465 178 q 496 297 489 253 z "},"õ":{"ha":792,"x_min":3,"x_max":789,"o":"m 18 333 q 155 570 50 492 q 450 649 260 649 q 605 624 538 649 q 715 555 672 600 q 773 446 757 510 q 774 301 789 382 q 637 66 743 144 q 338 -12 531 -12 q 184 13 250 -12 q 76 83 118 38 q 18 192 33 128 q 18 333 3 256 m 297 344 q 288 251 289 296 q 297 171 288 206 q 325 115 306 136 q 375 94 344 94 q 415 109 396 94 q 449 151 433 124 q 477 215 465 178 q 496 297 489 253 q 491 486 517 424 q 419 549 465 549 q 343 491 375 549 q 297 344 311 433 m 399 954 q 461 945 435 954 q 510 926 488 936 q 553 906 533 915 q 597 897 574 897 q 672 914 640 897 q 725 946 704 931 q 760 901 746 925 q 778 844 774 876 q 670 730 719 765 q 560 694 621 694 q 494 704 521 694 q 446 726 468 714 q 402 749 424 739 q 353 758 381 758 q 274 739 317 758 q 199 693 232 719 q 167 745 178 719 q 157 807 157 771 q 232 883 197 854 q 297 927 267 911 q 353 949 328 943 q 399 954 378 954 z "},"p":{"ha":817,"x_min":-25,"x_max":811,"o":"m 336 449 q 472 597 396 546 q 629 649 549 649 q 735 615 696 649 q 792 530 775 581 q 810 421 810 479 q 801 314 811 363 q 760 191 789 250 q 680 87 731 132 q 555 15 629 42 q 381 -12 481 -12 q 331 -10 354 -12 q 288 -6 308 -8 q 288 -68 290 -33 q 276 -153 285 -103 l 243 -337 l -25 -337 l 99 365 q 106 426 104 403 q 101 463 108 450 q 76 482 94 476 q 25 488 58 488 q 29 540 25 513 q 43 592 33 568 q 199 608 129 594 q 339 649 269 621 q 374 598 367 624 q 375 544 381 572 q 361 500 371 522 q 335 449 351 478 l 336 449 m 306 106 q 348 94 322 99 q 390 90 374 90 q 472 142 442 90 q 517 269 501 193 q 529 414 535 364 q 483 464 524 464 q 445 450 467 464 q 401 403 424 436 q 358 313 379 369 q 321 169 338 256 l 306 106 z "},"q":{"ha":814,"x_min":6,"x_max":800,"o":"m 463 161 q 333 32 404 76 q 188 -12 263 -12 q 81 22 121 -12 q 24 106 42 56 q 6 215 7 157 q 15 322 6 274 q 56 447 28 389 q 135 549 85 506 q 260 619 186 593 q 436 649 333 646 q 649 616 554 649 q 800 525 744 583 q 765 454 781 496 q 736 335 750 413 l 618 -336 l 350 -336 l 404 -26 q 414 22 408 0 q 426 65 419 44 q 442 109 432 86 q 464 161 451 132 l 463 161 m 511 531 q 469 542 496 538 q 426 546 443 546 q 380 532 400 546 q 344 494 360 518 q 319 438 329 471 q 300 367 308 404 q 288 222 282 272 q 333 172 293 172 q 372 186 350 172 q 415 233 393 200 q 458 324 438 267 q 496 467 479 381 l 511 531 z "},"r":{"ha":692,"x_min":25,"x_max":732,"o":"m 97 364 q 106 426 104 401 q 101 463 108 450 q 76 482 94 476 q 25 488 58 488 q 29 540 25 513 q 43 592 33 568 q 210 608 129 594 q 360 649 290 621 q 400 544 413 621 q 376 444 393 497 q 338 342 360 390 l 339 342 l 379 432 q 430 517 400 478 q 496 586 460 557 q 573 632 532 615 q 657 649 614 649 q 732 632 700 649 q 696 492 710 571 q 681 346 682 414 q 609 325 649 331 q 531 322 569 319 q 522 364 536 346 q 489 382 508 382 q 447 369 471 382 q 394 315 422 356 q 349 220 371 279 q 310 69 326 161 l 297 0 l 29 0 l 97 364 z "},"s":{"ha":636,"x_min":-28,"x_max":643,"o":"m 247 96 q 283 105 271 96 q 299 129 296 114 q 285 174 304 153 q 237 219 267 196 q 172 267 207 242 q 107 325 136 293 q 63 397 78 357 q 57 489 47 438 q 95 569 67 538 q 167 617 124 600 q 269 642 211 635 q 394 649 326 649 q 462 644 428 649 q 529 633 496 640 q 592 617 563 626 q 643 597 621 608 q 617 404 618 517 q 548 385 585 389 q 475 386 511 382 q 449 503 472 457 q 379 549 426 549 q 346 542 360 549 q 328 511 332 535 q 341 457 322 482 q 391 408 360 432 q 460 359 422 385 q 527 303 497 333 q 574 233 557 272 q 581 143 590 194 q 549 66 572 96 q 483 19 525 36 q 381 -6 442 1 q 238 -12 321 -12 q -28 43 58 -12 q 6 233 4 125 q 151 246 68 254 q 247 96 153 96 z "},"t":{"ha":529,"x_min":25,"x_max":542,"o":"m 353 338 q 335 240 339 276 q 335 182 331 203 q 350 154 339 161 q 376 147 361 147 q 408 154 392 147 q 440 176 425 161 q 464 128 454 157 q 476 74 474 100 q 433 39 460 54 q 375 12 407 24 q 310 -6 343 0 q 246 -12 276 -12 q 140 12 181 -12 q 78 81 99 36 q 59 186 58 125 q 78 321 60 247 l 121 499 q 25 513 65 513 q 29 572 25 542 q 44 622 33 603 l 151 622 l 154 636 q 176 739 169 699 q 185 808 182 779 q 299 828 242 814 q 393 861 357 843 q 431 834 419 854 q 444 784 443 814 q 439 716 446 754 q 422 636 432 678 l 419 622 l 542 622 q 539 557 542 589 q 528 507 536 525 q 458 503 490 507 q 388 489 425 500 l 353 338 z "},"þ":{"ha":801,"x_min":-40,"x_max":796,"o":"m 324 451 q 458 598 382 547 q 614 649 535 649 q 720 615 681 649 q 777 530 760 581 q 795 421 794 479 q 786 314 796 363 q 744 191 774 250 q 665 87 715 132 q 540 15 614 42 q 365 -12 465 -12 q 318 -10 340 -12 q 276 -6 296 -8 q 268 -112 276 -67 l 228 -337 l -40 -337 l 143 703 q 151 764 149 740 q 146 801 153 788 q 121 819 139 814 q 69 825 103 825 q 74 878 69 850 q 88 929 78 906 q 254 945 174 932 q 404 986 335 958 q 427 963 418 974 q 440 940 436 953 q 444 908 444 926 q 440 864 444 890 q 411 713 424 772 q 386 609 399 653 q 358 530 374 565 q 322 451 343 494 l 324 451 m 290 106 q 333 94 307 99 q 375 90 358 90 q 456 142 426 90 q 501 269 486 193 q 514 414 519 364 q 468 464 508 464 q 430 450 451 464 q 386 403 408 436 q 343 313 364 369 q 306 169 322 256 l 290 106 z "},"u":{"ha":931,"x_min":25,"x_max":897,"o":"m 533 217 q 392 48 481 108 q 197 -12 303 -12 q 126 0 157 -12 q 79 44 96 13 q 62 133 63 76 q 82 279 61 190 q 106 394 99 353 q 107 455 113 435 q 81 480 101 475 q 25 488 61 485 q 29 540 25 513 q 43 592 33 568 q 210 608 129 594 q 360 649 290 621 q 391 622 381 636 q 403 583 401 608 q 397 515 404 558 q 374 400 389 472 q 357 303 361 340 q 356 247 353 267 q 370 219 360 226 q 397 213 381 213 q 444 231 418 213 q 496 292 469 250 q 547 401 522 333 q 589 567 571 468 l 601 636 l 869 636 l 808 285 q 797 211 800 239 q 794 169 793 183 q 799 149 794 154 q 813 144 804 144 q 853 164 826 144 q 882 124 868 151 q 897 72 896 97 q 792 8 851 28 q 671 -12 733 -12 q 582 1 615 -12 q 531 38 549 15 q 510 89 514 60 q 514 150 507 118 q 522 182 517 165 q 535 217 526 199 l 533 217 z "},"ú":{"ha":931,"x_min":25,"x_max":897,"o":"m 533 217 q 392 48 481 108 q 197 -12 303 -12 q 126 0 157 -12 q 79 44 96 13 q 62 133 63 76 q 82 279 61 190 q 106 394 99 353 q 107 455 113 435 q 81 480 101 475 q 25 488 61 485 q 29 540 25 513 q 43 592 33 568 q 210 608 129 594 q 360 649 290 621 q 391 622 381 636 q 403 583 401 608 q 397 515 404 558 q 374 400 389 472 q 357 303 361 340 q 356 247 353 267 q 370 219 360 226 q 397 213 381 213 q 444 231 418 213 q 496 292 469 250 q 547 401 522 333 q 589 567 571 468 l 601 636 l 869 636 l 808 285 q 797 211 800 239 q 794 169 793 183 q 799 149 794 154 q 813 144 804 144 q 853 164 826 144 q 882 124 868 151 q 897 72 896 97 q 792 8 851 28 q 671 -12 733 -12 q 582 1 615 -12 q 531 38 549 15 q 510 89 514 60 q 514 150 507 118 q 522 182 517 165 q 535 217 526 199 l 533 217 m 499 999 q 632 1001 568 1008 q 732 975 696 994 q 608 844 664 908 q 515 724 551 779 q 385 769 443 731 q 420 831 403 799 q 453 894 438 863 q 480 952 468 925 q 499 999 492 979 z "},"û":{"ha":931,"x_min":25,"x_max":897,"o":"m 533 217 q 392 48 481 108 q 197 -12 303 -12 q 126 0 157 -12 q 79 44 96 13 q 62 133 63 76 q 82 279 61 190 q 106 394 99 353 q 107 455 113 435 q 81 480 101 475 q 25 488 61 485 q 29 540 25 513 q 43 592 33 568 q 210 608 129 594 q 360 649 290 621 q 391 622 381 636 q 403 583 401 608 q 397 515 404 558 q 374 400 389 472 q 357 303 361 340 q 356 247 353 267 q 370 219 360 226 q 397 213 381 213 q 444 231 418 213 q 496 292 469 250 q 547 401 522 333 q 589 567 571 468 l 601 636 l 869 636 l 808 285 q 797 211 800 239 q 794 169 793 183 q 799 149 794 154 q 813 144 804 144 q 853 164 826 144 q 882 124 868 151 q 897 72 896 97 q 792 8 851 28 q 671 -12 733 -12 q 582 1 615 -12 q 531 38 549 15 q 510 89 514 60 q 514 150 507 118 q 522 182 517 165 q 535 217 526 199 l 533 217 m 489 999 q 548 1001 517 1003 q 607 989 579 999 q 688 885 643 938 q 793 767 732 832 q 742 737 774 747 q 671 724 710 726 q 588 783 632 756 q 504 831 544 811 q 453 803 481 819 q 397 771 425 788 q 344 738 369 754 q 303 710 319 722 q 248 753 268 724 q 224 807 228 783 q 293 849 257 825 q 365 898 329 872 q 432 949 400 924 q 489 999 464 975 z "},"ü":{"ha":931,"x_min":25,"x_max":897,"o":"m 533 217 q 392 48 481 108 q 197 -12 303 -12 q 126 0 157 -12 q 79 44 96 13 q 62 133 63 76 q 82 279 61 190 q 106 394 99 353 q 107 455 113 435 q 81 480 101 475 q 25 488 61 485 q 29 540 25 513 q 43 592 33 568 q 210 608 129 594 q 360 649 290 621 q 391 622 381 636 q 403 583 401 608 q 397 515 404 558 q 374 400 389 472 q 357 303 361 340 q 356 247 353 267 q 370 219 360 226 q 397 213 381 213 q 444 231 418 213 q 496 292 469 250 q 547 401 522 333 q 589 567 571 468 l 601 636 l 869 636 l 808 285 q 797 211 800 239 q 794 169 793 183 q 799 149 794 154 q 813 144 804 144 q 853 164 826 144 q 882 124 868 151 q 897 72 896 97 q 792 8 851 28 q 671 -12 733 -12 q 582 1 615 -12 q 531 38 549 15 q 510 89 514 60 q 514 150 507 118 q 522 182 517 165 q 535 217 526 199 l 533 217 m 231 839 q 272 916 240 889 q 360 943 303 943 q 454 903 425 943 q 468 797 483 864 q 424 718 456 746 q 340 690 393 690 q 246 731 275 690 q 231 839 217 772 m 788 800 q 656 690 767 690 q 560 728 590 690 q 543 831 531 767 q 585 914 551 885 q 681 943 618 943 q 772 905 743 943 q 788 800 801 867 z "},"ù":{"ha":931,"x_min":25,"x_max":897,"o":"m 533 217 q 392 48 481 108 q 197 -12 303 -12 q 126 0 157 -12 q 79 44 96 13 q 62 133 63 76 q 82 279 61 190 q 106 394 99 353 q 107 455 113 435 q 81 480 101 475 q 25 488 61 485 q 29 540 25 513 q 43 592 33 568 q 210 608 129 594 q 360 649 290 621 q 391 622 381 636 q 403 583 401 608 q 397 515 404 558 q 374 400 389 472 q 357 303 361 340 q 356 247 353 267 q 370 219 360 226 q 397 213 381 213 q 444 231 418 213 q 496 292 469 250 q 547 401 522 333 q 589 567 571 468 l 601 636 l 869 636 l 808 285 q 797 211 800 239 q 794 169 793 183 q 799 149 794 154 q 813 144 804 144 q 853 164 826 144 q 882 124 868 151 q 897 72 896 97 q 792 8 851 28 q 671 -12 733 -12 q 582 1 615 -12 q 531 38 549 15 q 510 89 514 60 q 514 150 507 118 q 522 182 517 165 q 535 217 526 199 l 533 217 m 283 967 q 392 985 333 981 q 508 979 450 990 q 534 867 518 928 q 569 753 550 806 q 503 744 540 744 q 439 754 467 744 q 371 857 407 808 q 283 967 335 906 z "},"v":{"ha":786,"x_min":6,"x_max":776,"o":"m 699 649 q 758 603 739 636 q 776 508 776 571 q 755 394 776 451 q 683 274 733 336 q 549 141 632 211 q 342 -12 465 71 q 272 -6 310 -12 q 213 15 235 0 q 165 240 189 142 q 121 406 142 339 q 83 471 106 453 q 6 486 60 489 q 22 592 6 546 q 86 599 50 593 q 158 614 122 606 q 228 631 194 622 q 282 649 261 640 q 322 625 310 640 q 346 571 335 610 q 396 372 375 469 q 432 179 417 275 q 513 290 492 242 q 535 386 535 339 q 506 463 535 436 q 422 486 476 489 q 439 592 422 546 q 503 599 467 593 q 575 614 539 606 q 644 631 611 622 q 699 649 678 640 z "},"w":{"ha":1160,"x_min":6,"x_max":1146,"o":"m 1060 649 q 1123 601 1100 636 q 1146 488 1146 565 q 1125 383 1146 438 q 1058 266 1104 328 q 940 135 1013 204 q 764 -12 867 65 q 697 -6 732 -12 q 639 15 661 0 q 616 141 628 85 q 582 261 604 197 q 494 115 556 183 q 342 -12 433 47 q 272 -6 310 -12 q 213 15 235 0 q 165 240 189 142 q 121 406 142 339 q 83 471 106 453 q 6 486 60 489 q 22 592 6 546 q 86 599 50 593 q 158 614 122 606 q 228 631 194 622 q 282 649 261 640 q 322 625 310 640 q 346 571 335 610 q 395 376 374 471 q 432 186 417 281 q 484 275 467 232 q 505 365 501 318 q 499 466 508 411 q 469 592 490 521 q 564 614 522 600 q 643 649 606 628 q 683 625 671 640 q 711 571 696 610 q 772 373 746 469 q 818 181 799 276 q 889 283 869 238 q 908 369 908 329 q 877 460 908 432 q 792 486 846 489 q 794 542 792 517 q 804 592 796 568 q 867 599 832 593 q 938 614 903 606 q 1006 631 974 622 q 1060 649 1039 640 z "},"x":{"ha":740,"x_min":-35,"x_max":760,"o":"m 708 374 q 644 353 676 358 q 572 350 611 347 q 563 392 575 376 q 531 408 550 408 q 483 358 503 408 q 508 280 492 322 q 542 201 524 238 q 573 163 557 172 q 610 153 589 153 q 642 164 631 153 q 672 122 661 144 q 685 72 682 99 q 644 38 668 53 q 592 11 619 22 q 538 -6 565 0 q 485 -12 510 -12 q 388 7 429 -12 q 324 61 346 26 q 294 115 306 89 q 279 164 283 142 q 166 28 226 68 q 35 -12 106 -12 q -35 4 -8 -12 q -20 61 -26 29 q -9 126 -14 93 q -1 190 -4 158 q 1 247 1 222 q 70 267 33 263 q 146 268 107 271 q 154 226 143 242 q 181 211 165 211 q 201 217 192 211 q 221 240 211 224 q 202 323 214 281 q 176 406 190 365 q 158 447 168 431 q 133 473 147 464 q 101 485 119 482 q 56 486 82 488 q 58 542 53 515 q 71 592 63 568 q 134 599 99 593 q 206 613 169 604 q 274 630 242 621 q 328 649 307 639 q 369 630 351 644 q 397 575 388 615 q 414 494 408 531 q 419 433 419 457 q 542 601 478 553 q 685 649 606 649 q 760 632 728 649 q 724 506 738 571 q 708 374 710 442 z "},"y":{"ha":817,"x_min":-162,"x_max":793,"o":"m 299 649 q 339 625 326 640 q 363 571 351 610 q 411 362 393 465 q 440 156 429 258 q 497 237 475 203 q 531 298 519 271 q 547 347 543 325 q 551 390 551 369 q 522 463 551 438 q 439 486 493 489 q 456 592 439 546 q 519 599 483 593 q 592 614 556 606 q 661 631 628 622 q 715 649 694 640 q 793 521 793 624 q 785 457 793 490 q 747 374 776 424 q 660 249 718 324 q 503 60 603 174 q 315 -151 390 -71 q 186 -274 240 -231 q 90 -331 132 -317 q -1 -344 47 -344 q -91 -328 -51 -344 q -162 -276 -131 -312 q -154 -203 -162 -244 q -131 -132 -146 -161 q -60 -156 -97 -149 q 18 -162 -22 -162 q 81 -159 53 -162 q 136 -147 110 -156 q 188 -121 163 -137 q 242 -79 214 -104 q 222 54 232 -8 q 199 175 211 117 q 171 290 186 233 q 138 406 156 347 q 99 471 122 453 q 22 486 76 489 q 39 592 22 546 q 103 599 67 593 q 175 614 139 606 q 244 631 211 622 q 299 649 278 640 z "},"ý":{"ha":817,"x_min":-162,"x_max":793,"o":"m 299 649 q 339 625 326 640 q 363 571 351 610 q 411 362 393 465 q 440 156 429 258 q 497 237 475 203 q 531 298 519 271 q 547 347 543 325 q 551 390 551 369 q 522 463 551 438 q 439 486 493 489 q 456 592 439 546 q 519 599 483 593 q 592 614 556 606 q 661 631 628 622 q 715 649 694 640 q 793 521 793 624 q 785 457 793 490 q 747 374 776 424 q 660 249 718 324 q 503 60 603 174 q 315 -151 390 -71 q 186 -274 240 -231 q 90 -331 132 -317 q -1 -344 47 -344 q -91 -328 -51 -344 q -162 -276 -131 -312 q -154 -203 -162 -244 q -131 -132 -146 -161 q -60 -156 -97 -149 q 18 -162 -22 -162 q 81 -159 53 -162 q 136 -147 110 -156 q 188 -121 163 -137 q 242 -79 214 -104 q 222 54 232 -8 q 199 175 211 117 q 171 290 186 233 q 138 406 156 347 q 99 471 122 453 q 22 486 76 489 q 39 592 22 546 q 103 599 67 593 q 175 614 139 606 q 244 631 211 622 q 299 649 278 640 m 474 999 q 607 1001 543 1008 q 707 975 671 994 q 583 844 639 908 q 490 724 526 779 q 360 769 418 731 q 395 831 378 799 q 428 894 413 863 q 455 952 443 925 q 474 999 467 979 z "},"ÿ":{"ha":817,"x_min":-162,"x_max":793,"o":"m 299 649 q 339 625 326 640 q 363 571 351 610 q 411 362 393 465 q 440 156 429 258 q 497 237 475 203 q 531 298 519 271 q 547 347 543 325 q 551 390 551 369 q 522 463 551 438 q 439 486 493 489 q 456 592 439 546 q 519 599 483 593 q 592 614 556 606 q 661 631 628 622 q 715 649 694 640 q 793 521 793 624 q 785 457 793 490 q 747 374 776 424 q 660 249 718 324 q 503 60 603 174 q 315 -151 390 -71 q 186 -274 240 -231 q 90 -331 132 -317 q -1 -344 47 -344 q -91 -328 -51 -344 q -162 -276 -131 -312 q -154 -203 -162 -244 q -131 -132 -146 -161 q -60 -156 -97 -149 q 18 -162 -22 -162 q 81 -159 53 -162 q 136 -147 110 -156 q 188 -121 163 -137 q 242 -79 214 -104 q 222 54 232 -8 q 199 175 211 117 q 171 290 186 233 q 138 406 156 347 q 99 471 122 453 q 22 486 76 489 q 39 592 22 546 q 103 599 67 593 q 175 614 139 606 q 244 631 211 622 q 299 649 278 640 m 207 839 q 248 916 217 889 q 336 943 279 943 q 431 903 401 943 q 444 797 460 864 q 401 718 432 746 q 317 690 369 690 q 222 731 251 690 q 207 839 193 772 m 764 800 q 632 690 743 690 q 537 728 567 690 q 519 831 507 767 q 561 914 528 885 q 657 943 594 943 q 749 905 719 943 q 764 800 778 867 z "},"z":{"ha":639,"x_min":-26,"x_max":643,"o":"m 426 229 q 451 238 439 229 q 479 279 464 247 q 552 272 515 279 q 617 251 589 264 q 588 149 597 210 q 578 39 579 89 q 553 6 571 18 q 511 -6 535 -6 q 449 -5 476 -6 q 394 -3 421 -4 q 338 -1 367 -1 q 275 0 310 0 q 188 0 226 0 q 118 -1 150 0 q 58 -3 86 -1 q 1 -6 31 -4 q -20 44 -14 14 q -21 101 -26 74 q 189 256 97 182 q 353 400 281 329 q 316 406 333 404 q 285 407 299 407 q 226 389 249 407 q 189 335 204 371 q 108 345 150 335 q 42 375 65 356 q 95 502 75 440 q 126 631 115 564 q 229 644 163 640 q 388 649 296 649 q 517 645 467 649 q 613 635 568 642 q 643 536 643 589 q 502 382 581 460 q 336 232 424 304 q 351 233 343 233 q 368 233 358 233 q 394 231 381 233 q 426 229 407 229 z "},"ﬀ":{"ha":1136,"x_min":-218,"x_max":1325,"o":"m 181 622 q 240 769 203 706 q 335 874 278 832 q 470 939 392 917 q 651 961 549 961 q 764 951 710 961 q 867 917 818 940 q 981 972 913 953 q 1150 992 1050 992 q 1256 985 1208 992 q 1325 967 1303 978 q 1312 917 1318 946 q 1300 856 1306 888 q 1292 796 1294 825 q 1289 746 1289 767 q 1263 738 1281 742 q 1226 733 1246 735 q 1186 729 1207 731 q 1149 728 1165 728 q 1149 779 1149 751 q 1146 831 1149 807 q 1135 872 1143 856 q 1110 888 1126 888 q 1076 876 1090 888 q 1051 833 1063 864 q 1027 752 1039 803 q 1001 622 1015 701 l 1129 622 q 1126 557 1129 589 q 1115 507 1124 525 q 1046 502 1078 507 q 976 489 1014 497 q 950 354 964 419 q 922 233 936 289 q 892 134 907 178 q 864 65 876 90 q 768 -76 824 -12 q 649 -186 713 -140 q 519 -258 586 -232 q 393 -283 453 -283 q 279 -261 329 -283 q 194 -206 229 -239 q 78 -306 143 -268 q -65 -344 14 -344 q -148 -328 -110 -344 q -218 -276 -186 -312 q -210 -203 -218 -244 q -186 -132 -201 -161 q -115 -156 -153 -149 q -37 -162 -78 -162 q 19 -155 -4 -162 q 56 -125 42 -147 q 80 -61 71 -103 q 96 49 89 -19 q 104 135 99 86 q 118 242 110 185 q 136 364 126 300 q 158 493 146 428 q 95 508 124 504 q 46 513 67 513 q 50 572 46 542 q 65 622 54 603 l 181 622 m 732 631 q 753 721 742 679 q 779 799 764 763 q 719 844 754 828 q 635 860 685 860 q 574 849 601 860 q 524 812 547 839 q 483 739 501 785 q 451 622 465 693 l 731 622 l 732 631 m 632 54 q 656 146 644 94 q 677 255 667 197 q 697 374 688 313 q 711 493 706 435 q 571 510 663 510 q 497 505 531 510 q 424 489 464 500 q 397 347 411 419 q 363 172 383 274 q 326 38 349 106 q 269 -92 303 -29 q 334 -112 300 -106 q 410 -119 368 -119 q 496 -113 461 -119 q 556 -88 531 -107 q 598 -35 581 -69 q 632 54 615 -1 z "},"ﬃ":{"ha":1556,"x_min":-218,"x_max":1522,"o":"m 181 622 q 240 769 203 706 q 335 874 278 832 q 470 939 392 917 q 651 961 549 961 q 776 947 715 961 q 889 904 836 933 q 1023 969 944 946 q 1201 992 1101 992 q 1367 982 1293 992 q 1488 953 1440 972 q 1461 844 1471 901 q 1451 746 1451 788 q 1412 734 1436 739 q 1362 727 1388 729 q 1311 725 1336 725 q 1269 728 1286 725 q 1242 843 1268 799 q 1168 888 1217 888 q 1111 875 1136 888 q 1067 833 1086 863 q 1031 751 1047 803 q 1001 622 1015 700 l 1099 622 q 1237 624 1182 622 q 1328 628 1292 625 q 1388 635 1364 631 q 1431 649 1411 640 q 1476 603 1461 632 q 1479 515 1490 574 l 1429 256 q 1417 165 1415 185 q 1433 144 1418 144 q 1452 149 1442 144 q 1478 164 1463 153 q 1506 123 1492 150 q 1522 72 1519 96 q 1417 8 1476 28 q 1296 -12 1358 -12 q 1203 6 1236 -12 q 1155 57 1169 24 q 1142 136 1140 90 q 1156 239 1143 182 l 1182 364 q 1192 432 1190 404 q 1185 476 1193 460 q 1156 500 1176 493 q 1100 507 1135 507 q 1065 506 1079 507 q 1038 503 1051 506 q 1010 498 1025 501 q 976 489 996 494 q 950 354 964 419 q 922 233 936 289 q 892 134 907 178 q 864 65 876 90 q 768 -76 824 -12 q 649 -186 713 -140 q 519 -258 586 -232 q 393 -283 453 -283 q 279 -261 329 -283 q 194 -206 229 -239 q 78 -306 143 -268 q -65 -344 14 -344 q -148 -328 -110 -344 q -218 -276 -186 -312 q -210 -203 -218 -244 q -186 -132 -201 -161 q -115 -156 -153 -149 q -37 -162 -78 -162 q 19 -155 -4 -162 q 56 -125 42 -147 q 80 -61 71 -103 q 96 49 89 -19 q 104 135 99 86 q 118 242 110 185 q 136 364 126 300 q 158 493 146 428 q 95 508 124 504 q 46 513 67 513 q 50 572 46 542 q 65 622 54 603 l 181 622 m 731 622 q 789 786 750 717 q 726 841 764 822 q 635 860 689 860 q 574 849 601 860 q 524 812 547 839 q 483 739 501 785 q 451 622 465 693 l 731 622 m 571 510 q 497 505 531 510 q 424 489 464 500 q 397 347 411 419 q 363 172 383 274 q 326 38 349 106 q 269 -92 303 -29 q 334 -112 300 -106 q 410 -119 368 -119 q 496 -113 461 -119 q 556 -88 531 -107 q 598 -35 581 -69 q 632 54 615 -1 q 656 146 644 94 q 677 255 667 197 q 697 374 688 313 q 711 493 706 435 q 571 510 663 510 z "},"ﬄ":{"ha":1574,"x_min":-218,"x_max":1539,"o":"m 181 622 q 240 769 203 706 q 335 874 278 832 q 470 939 392 917 q 651 961 549 961 q 889 904 785 961 q 1022 969 946 947 q 1201 992 1099 992 q 1315 983 1267 992 q 1407 954 1363 975 q 1499 986 1457 963 q 1522 963 1513 974 q 1535 940 1531 953 q 1539 908 1539 926 q 1535 864 1539 890 q 1422 256 1481 560 q 1413 198 1415 219 q 1413 165 1411 176 q 1420 149 1415 153 q 1432 144 1425 144 q 1451 149 1442 144 q 1479 164 1461 153 q 1507 123 1493 150 q 1524 72 1521 96 q 1419 8 1478 28 q 1297 -12 1360 -12 q 1221 -1 1251 -12 q 1173 28 1190 10 q 1148 73 1156 47 q 1140 129 1140 99 q 1143 176 1140 149 q 1156 263 1146 203 q 1185 426 1167 322 q 1238 703 1204 531 q 1248 780 1246 746 q 1243 838 1250 814 q 1218 874 1236 861 q 1168 888 1200 888 q 1111 875 1136 888 q 1067 833 1086 863 q 1031 751 1047 803 q 1001 622 1015 700 l 1129 622 q 1126 557 1129 589 q 1115 507 1124 525 q 1046 503 1078 507 q 976 489 1014 500 q 950 354 964 419 q 922 233 936 289 q 892 134 907 178 q 864 65 876 90 q 768 -76 824 -12 q 649 -186 713 -140 q 519 -258 586 -232 q 393 -283 453 -283 q 279 -261 329 -283 q 194 -206 229 -239 q 78 -306 143 -268 q -65 -344 14 -344 q -148 -328 -110 -344 q -218 -276 -186 -312 q -210 -203 -218 -244 q -186 -132 -201 -161 q -115 -156 -153 -149 q -37 -162 -78 -162 q 19 -155 -4 -162 q 56 -125 42 -147 q 80 -61 71 -103 q 96 49 89 -19 q 104 135 99 86 q 118 242 110 185 q 136 364 126 300 q 158 493 146 428 q 95 508 124 504 q 46 513 67 513 q 50 572 46 542 q 65 622 54 603 l 181 622 m 731 622 q 789 786 750 717 q 726 841 764 822 q 635 860 689 860 q 574 849 601 860 q 524 812 547 839 q 483 739 501 785 q 451 622 465 693 l 731 622 m 632 54 q 656 146 644 94 q 677 255 667 197 q 697 374 688 313 q 711 493 706 435 q 571 510 663 510 q 497 505 531 510 q 424 489 464 500 q 397 347 411 419 q 363 172 383 274 q 326 38 349 106 q 269 -92 303 -29 q 334 -112 300 -106 q 410 -119 368 -119 q 496 -113 461 -119 q 556 -88 531 -107 q 598 -35 581 -69 q 632 54 615 -1 z "},"ﬁ":{"ha":994,"x_min":-218,"x_max":961,"o":"m 621 364 q 631 432 629 404 q 624 476 632 460 q 594 500 615 493 q 539 507 574 507 q 504 506 518 507 q 477 503 490 506 q 449 498 464 501 q 415 489 435 494 q 394 361 404 422 q 374 232 385 300 q 319 15 357 119 q 224 -169 281 -89 q 95 -297 168 -249 q -65 -344 22 -344 q -148 -328 -110 -344 q -218 -276 -186 -312 q -210 -203 -218 -244 q -186 -132 -201 -161 q -115 -156 -153 -149 q -37 -162 -78 -162 q 19 -155 -4 -162 q 56 -125 42 -147 q 80 -61 71 -103 q 96 49 89 -19 q 116 239 103 124 q 150 493 129 354 q 87 508 115 504 q 38 513 58 513 q 42 572 38 542 q 57 622 46 603 l 169 622 q 224 780 188 711 q 317 896 260 849 q 453 967 374 943 q 640 992 533 992 q 806 982 732 992 q 926 953 879 972 q 900 844 910 901 q 890 746 890 788 q 851 734 875 739 q 801 727 826 729 q 750 725 775 725 q 708 728 725 725 q 681 843 707 799 q 607 888 656 888 q 550 875 575 888 q 506 833 525 863 q 470 751 486 803 q 440 622 454 700 l 538 622 q 676 624 621 622 q 767 628 731 625 q 826 635 803 631 q 869 649 850 640 q 915 603 900 632 q 918 515 929 574 l 868 256 q 856 165 854 185 q 872 144 857 144 q 891 149 881 144 q 917 164 901 153 q 944 123 931 150 q 961 72 958 96 q 856 8 915 28 q 735 -12 797 -12 q 642 6 675 -12 q 594 57 608 24 q 581 136 579 90 q 594 239 582 182 l 621 364 z "},"ﬂ":{"ha":1013,"x_min":-218,"x_max":978,"o":"m 169 622 q 224 780 188 711 q 317 896 260 849 q 453 967 374 943 q 640 992 533 992 q 753 983 706 992 q 846 954 801 975 q 938 986 896 963 q 960 963 951 974 q 974 940 969 953 q 978 908 978 926 q 974 864 978 890 q 861 256 919 560 q 852 198 854 219 q 852 165 850 176 q 859 149 854 153 q 871 144 864 144 q 890 149 881 144 q 918 164 900 153 q 946 123 932 150 q 963 72 960 96 q 858 8 917 28 q 736 -12 799 -12 q 660 -1 690 -12 q 612 28 629 10 q 587 73 594 47 q 579 129 579 99 q 582 176 579 149 q 595 263 585 203 q 624 426 606 322 q 676 703 643 531 q 687 780 685 746 q 682 838 689 814 q 657 874 675 861 q 607 888 639 888 q 550 875 575 888 q 506 833 525 863 q 470 751 486 803 q 440 622 454 700 l 568 622 q 565 557 568 589 q 554 507 563 525 q 485 503 517 507 q 415 489 453 500 q 394 361 404 422 q 374 232 385 300 q 319 15 357 119 q 224 -169 281 -89 q 95 -297 168 -249 q -65 -344 22 -344 q -148 -328 -110 -344 q -218 -276 -186 -312 q -210 -203 -218 -244 q -186 -132 -201 -161 q -115 -156 -153 -149 q -37 -162 -78 -162 q 19 -155 -4 -162 q 56 -125 42 -147 q 80 -61 71 -103 q 96 49 89 -19 q 116 239 103 124 q 150 493 129 354 q 87 508 115 504 q 38 513 58 513 q 42 572 38 542 q 57 622 46 603 l 169 622 z "},"µ":{"ha":936,"x_min":-42,"x_max":907,"o":"m 424 636 l 393 456 q 379 268 369 324 q 435 213 389 213 q 523 281 488 213 q 588 511 558 350 l 611 636 l 879 636 l 818 285 q 806 211 810 239 q 803 169 803 183 q 809 149 804 154 q 822 144 814 144 q 863 164 836 144 q 892 124 878 151 q 907 72 906 97 q 802 8 861 28 q 681 -12 743 -12 q 560 136 531 -12 q 565 158 563 147 q 569 175 567 168 l 568 175 q 486 28 532 68 q 386 -12 440 -12 q 293 56 314 -12 l 292 56 q 290 -14 294 19 q 278 -83 285 -47 q 266 -169 269 -124 q 268 -246 263 -214 q 199 -262 238 -253 q 122 -285 161 -272 q 49 -310 83 -297 q -10 -336 14 -324 q -33 -308 -25 -325 q -35 -258 -42 -290 q -25 -224 -32 -242 q -10 -179 -18 -206 q 9 -115 -1 -153 q 31 -18 19 -76 l 156 636 l 424 636 z "},"¼":{"ha":1353,"x_min":79,"x_max":1317,"o":"m 222 683 q 231 755 231 728 q 222 797 232 782 q 188 815 211 811 q 125 819 165 819 q 129 873 125 847 q 144 922 133 899 q 312 949 239 931 q 460 996 385 967 q 499 956 489 981 q 499 874 510 931 l 453 640 q 443 568 444 594 q 449 527 442 542 q 472 506 456 513 q 513 494 488 499 q 517 441 517 467 q 515 386 518 415 q 406 390 456 389 q 301 390 357 390 q 181 390 233 390 q 79 386 128 389 q 88 442 82 417 q 106 494 94 467 q 148 504 131 499 q 177 524 165 510 q 197 565 189 539 q 214 636 206 592 l 222 683 m 1111 996 q 1164 958 1143 983 q 1192 901 1185 933 q 995 665 1085 774 q 819 451 906 557 q 643 233 732 344 q 449 -12 554 121 q 395 25 419 -3 q 367 82 371 53 l 1111 996 m 1271 256 q 1301 244 1289 256 q 1317 215 1313 233 q 1306 187 1311 204 q 1295 151 1300 169 q 1286 113 1290 132 q 1279 78 1282 94 l 1193 78 l 1178 0 l 933 0 l 950 76 q 843 74 890 75 q 764 72 796 74 q 744 135 750 96 q 743 208 738 175 q 949 415 847 311 q 1150 624 1051 518 q 1228 618 1188 624 q 1293 601 1268 613 l 1226 256 l 1271 256 m 992 268 q 1006 327 999 303 q 1025 374 1014 351 l 1024 374 q 996 340 1008 354 q 965 311 983 326 q 931 282 946 294 q 896 256 915 269 l 989 256 l 992 268 z "},"½":{"ha":1507,"x_min":79,"x_max":1488,"o":"m 222 683 q 231 755 231 728 q 222 797 232 782 q 188 815 211 811 q 125 819 165 819 q 129 873 125 847 q 144 922 133 899 q 312 949 239 931 q 460 996 385 967 q 499 956 489 981 q 499 874 510 931 l 453 640 q 443 568 444 594 q 449 527 442 542 q 472 506 456 513 q 513 494 488 499 q 517 441 517 467 q 515 386 518 415 q 406 390 456 389 q 301 390 357 390 q 181 390 233 390 q 79 386 128 389 q 88 442 82 417 q 106 494 94 467 q 148 504 131 499 q 177 524 165 510 q 197 565 189 539 q 214 636 206 592 l 222 683 m 1111 996 q 1164 958 1143 983 q 1192 901 1185 933 q 995 665 1085 774 q 819 451 906 557 q 643 233 732 344 q 449 -12 554 121 q 395 25 419 -3 q 367 82 371 53 l 1111 996 m 1481 450 q 1465 401 1476 424 q 1429 358 1453 379 q 1367 315 1406 336 q 1274 268 1329 293 q 1210 237 1242 254 q 1147 199 1179 219 q 1174 200 1161 200 q 1200 200 1186 200 q 1244 199 1225 200 q 1278 197 1263 197 q 1310 210 1299 197 q 1333 268 1322 224 q 1394 268 1361 274 q 1451 250 1428 263 q 1434 148 1439 201 q 1433 53 1429 94 q 1403 11 1424 26 q 1358 -4 1382 -4 q 1279 -2 1324 -4 q 1169 0 1235 0 q 1060 -1 1114 0 q 944 -4 1007 -1 q 925 54 931 19 q 922 122 919 89 q 1003 198 963 165 q 1099 265 1043 231 q 1195 342 1165 307 q 1235 425 1225 376 q 1231 497 1244 474 q 1193 521 1218 521 q 1172 513 1181 521 q 1154 486 1163 506 q 1138 434 1146 467 q 1119 350 1129 401 q 1046 357 1081 350 q 988 376 1011 364 q 1007 467 1001 419 q 1013 558 1013 514 q 1120 608 1067 593 q 1256 624 1174 624 q 1357 611 1313 624 q 1431 576 1401 599 q 1474 522 1461 554 q 1481 450 1488 489 z "},"¾":{"ha":1256,"x_min":49,"x_max":1219,"o":"m 1014 996 q 1067 958 1046 983 q 1094 901 1088 933 q 898 665 988 774 q 722 451 808 557 q 546 233 635 344 q 351 -12 457 121 q 298 25 322 -3 q 269 82 274 53 l 1014 996 m 1174 256 q 1203 244 1192 256 q 1219 215 1215 233 q 1208 187 1214 204 q 1198 151 1203 169 q 1189 113 1193 132 q 1182 78 1185 94 l 1096 78 l 1081 0 l 836 0 l 853 76 q 746 74 793 75 q 667 72 699 74 q 647 135 653 96 q 646 208 640 175 q 852 415 750 311 q 1053 624 954 518 q 1131 618 1090 624 q 1196 601 1171 613 l 1129 256 l 1174 256 m 894 268 q 909 327 901 303 q 928 374 917 351 l 926 374 q 899 340 911 354 q 868 311 886 326 q 833 282 849 294 q 799 256 818 269 l 892 256 l 894 268 m 542 861 q 498 781 533 811 q 396 731 463 750 q 497 673 464 715 q 514 558 531 631 q 474 479 504 513 q 401 424 443 446 q 310 390 358 401 q 215 379 261 379 q 108 389 147 379 q 49 415 69 399 q 63 465 51 439 q 92 501 74 492 q 129 485 107 493 q 181 478 151 478 q 242 497 217 478 q 274 547 267 515 q 265 622 285 593 q 190 654 244 651 q 184 690 183 669 q 193 729 185 711 q 297 772 264 738 q 336 849 329 806 q 301 910 347 910 q 260 885 276 910 q 228 794 244 861 q 179 795 208 792 q 126 808 150 799 q 144 883 138 840 q 153 956 151 925 q 342 994 231 994 q 503 958 451 994 q 542 861 554 922 z "},"⁄":{"ha":665,"x_min":-46,"x_max":779,"o":"m 699 996 q 751 958 731 983 q 779 901 772 933 q 583 665 672 774 q 406 451 493 557 q 231 233 319 344 q 36 -12 142 121 q -17 25 7 -3 q -46 82 -42 53 l 699 996 z "},"²":{"ha":531,"x_min":81,"x_max":576,"o":"m 568 858 q 533 790 561 822 q 444 726 504 758 q 383 688 413 710 q 331 647 353 667 q 349 649 340 649 q 365 649 358 649 q 383 648 374 649 q 404 647 393 647 q 438 656 422 647 q 460 703 453 665 q 512 701 488 703 q 558 692 536 699 q 543 609 551 656 q 535 525 535 563 q 514 504 528 514 q 474 494 500 494 q 439 495 456 494 q 402 497 422 496 q 356 499 382 499 q 294 500 331 500 q 179 499 228 500 q 90 497 131 499 q 82 531 83 515 q 85 569 81 546 q 158 639 117 603 q 246 708 199 675 q 295 746 275 729 q 328 778 315 763 q 349 809 342 794 q 360 839 357 824 q 356 888 367 869 q 322 906 344 906 q 279 869 296 906 q 254 785 263 833 q 197 785 226 782 q 147 797 168 789 q 158 836 153 814 q 166 881 163 858 q 172 926 169 904 q 175 965 175 949 q 272 989 224 982 q 386 996 321 996 q 462 990 425 996 q 525 967 499 983 q 564 925 551 951 q 568 858 576 899 z "},"³":{"ha":514,"x_min":51,"x_max":553,"o":"m 540 854 q 503 782 532 813 q 413 725 475 751 q 509 666 478 710 q 522 543 540 622 q 480 453 511 492 q 404 390 449 415 q 303 353 360 365 q 182 340 246 340 q 106 350 144 340 q 51 374 67 360 q 65 425 54 397 q 96 464 76 453 q 136 449 113 456 q 193 443 160 443 q 287 469 247 443 q 336 542 326 496 q 314 615 347 590 q 218 636 281 640 q 206 673 208 650 q 208 715 204 696 q 310 762 271 729 q 357 842 349 794 q 317 906 369 906 q 274 880 290 906 q 239 785 257 854 q 188 785 219 782 q 133 799 157 789 q 151 877 144 832 q 160 954 158 922 q 358 994 240 994 q 510 956 467 994 q 540 854 553 917 z "},"¹":{"ha":467,"x_min":114,"x_max":519,"o":"m 231 794 q 226 857 238 835 q 175 888 214 879 q 172 986 164 933 q 260 983 213 983 q 343 982 307 982 q 422 983 376 982 q 519 986 468 983 q 516 938 519 960 q 501 888 513 915 q 451 862 465 883 q 426 793 436 840 l 404 686 q 399 646 400 661 q 404 621 399 631 q 422 606 410 611 q 454 596 433 600 q 461 548 461 572 q 458 496 461 524 q 381 499 419 499 q 294 500 342 500 q 195 499 239 500 q 114 496 151 499 q 122 549 117 524 q 139 596 128 574 q 172 605 160 600 q 191 619 183 610 q 203 643 199 628 q 211 682 207 658 l 231 794 z "},"*":{"ha":701,"x_min":151,"x_max":700,"o":"m 569 906 q 514 818 540 864 q 465 726 488 772 q 569 762 521 743 q 664 803 618 781 q 696 706 692 754 q 685 597 700 657 q 577 626 625 615 q 471 646 529 638 q 540 565 507 601 q 617 486 574 528 q 534 424 583 447 q 424 403 485 401 q 417 510 422 461 q 401 617 413 558 q 343 532 369 572 q 286 438 317 492 q 164 586 185 474 q 260 628 217 607 q 351 675 304 649 q 258 704 303 693 q 151 726 213 715 q 181 821 157 778 q 249 890 206 864 q 314 811 283 844 q 390 736 344 778 q 388 840 390 790 q 378 947 385 889 q 483 944 433 954 q 569 906 533 933 z "},"\\":{"ha":424,"x_min":131,"x_max":361,"o":"m 361 0 q 304 -15 338 -11 q 239 -12 271 -19 q 192 481 219 226 q 131 975 164 736 q 250 990 186 1006 l 361 0 z "},"•":{"ha":515,"x_min":40,"x_max":492,"o":"m 482 328 q 405 193 465 244 q 261 142 344 142 q 160 161 204 142 q 88 215 115 181 q 50 296 60 249 q 51 400 40 343 q 131 525 68 481 q 286 569 194 569 q 380 551 339 569 q 447 501 421 533 q 483 424 474 468 q 482 328 492 379 z "},":":{"ha":403,"x_min":4,"x_max":393,"o":"m 385 479 q 338 394 374 425 q 235 363 301 363 q 116 406 157 363 q 92 533 75 450 q 142 619 103 589 q 251 649 181 649 q 308 638 281 649 q 356 605 336 626 q 384 552 375 583 q 385 479 393 521 m 314 115 q 267 30 303 61 q 164 -1 231 -1 q 45 42 86 -1 q 21 169 4 86 q 71 255 32 225 q 181 285 110 285 q 238 274 210 285 q 285 241 265 263 q 313 188 304 219 q 314 115 322 157 z "},",":{"ha":376,"x_min":-22,"x_max":299,"o":"m 242 257 q 283 208 268 246 q 283 90 299 171 q 205 -108 264 -19 q 64 -256 146 -196 q -22 -204 1 -247 q 58 -113 28 -157 q 94 -35 89 -69 q 78 22 100 -1 q 4 53 57 46 q 47 206 4 138 q 154 222 103 208 q 242 257 206 236 z "},"…":{"ha":1318,"x_min":1,"x_max":1236,"o":"m 311 104 q 264 19 300 50 q 161 -12 228 -12 q 42 31 83 -12 q 18 158 1 75 q 68 244 29 214 q 178 274 107 274 q 235 263 207 274 q 282 230 263 251 q 310 177 301 208 q 311 104 319 146 m 769 104 q 722 19 758 50 q 619 -12 686 -12 q 501 31 542 -12 q 476 158 460 75 q 526 244 488 214 q 636 274 565 274 q 693 263 665 274 q 740 230 721 251 q 769 177 760 208 q 769 104 778 146 m 1228 104 q 1181 19 1217 50 q 1078 -12 1144 -12 q 959 31 1000 -12 q 935 158 918 75 q 985 244 946 214 q 1094 274 1024 274 q 1151 263 1124 274 q 1199 230 1179 251 q 1227 177 1218 208 q 1228 104 1236 146 z "},"!":{"ha":496,"x_min":54,"x_max":492,"o":"m 471 865 q 440 763 457 824 q 402 631 422 701 q 363 486 382 561 q 325 340 343 411 q 250 341 288 338 q 185 358 213 344 q 205 650 199 506 q 211 938 211 794 q 331 959 269 944 q 442 996 393 974 q 483 958 474 986 q 471 865 492 929 m 364 104 q 317 19 353 50 q 214 -12 281 -12 q 95 31 136 -12 q 71 158 54 75 q 121 244 82 214 q 231 274 160 274 q 288 263 260 274 q 335 230 315 251 q 363 177 354 208 q 364 104 372 146 z "},"¡":{"ha":496,"x_min":4,"x_max":442,"o":"m 132 532 q 179 617 143 586 q 282 649 215 649 q 401 605 360 649 q 425 478 442 561 q 375 392 414 422 q 265 363 336 363 q 208 374 236 363 q 161 406 181 385 q 133 459 142 428 q 132 532 124 490 m 25 -229 q 56 -126 39 -187 q 94 5 74 -65 q 133 150 114 75 q 171 296 153 225 q 246 295 208 299 q 311 278 283 292 q 291 -14 297 131 q 285 -301 285 -158 q 165 -323 226 -308 q 54 -360 103 -337 q 13 -322 22 -350 q 25 -229 4 -293 z "},"#":{"ha":806,"x_min":36,"x_max":825,"o":"m 615 365 l 767 365 q 761 309 767 333 q 742 261 756 285 l 593 261 l 536 -11 q 478 -4 504 -11 q 433 19 453 3 l 485 260 l 303 260 l 246 -11 q 146 25 178 -11 l 196 260 q 109 258 149 258 q 36 257 69 258 q 42 312 36 288 q 61 365 47 336 l 218 365 l 264 578 q 179 577 218 578 q 110 575 140 576 q 115 633 110 608 q 135 683 121 658 l 286 683 l 351 992 q 406 983 381 990 q 451 961 432 976 l 393 683 l 575 683 l 640 992 q 694 985 668 990 q 742 964 721 979 l 682 683 l 825 683 q 819 625 825 649 q 800 579 814 601 l 661 579 l 615 365 m 371 579 l 325 365 l 507 365 l 553 579 l 371 579 z "},".":{"ha":401,"x_min":1,"x_max":319,"o":"m 311 104 q 264 19 300 50 q 161 -12 228 -12 q 42 31 83 -12 q 18 158 1 75 q 68 244 29 214 q 178 274 107 274 q 235 263 207 274 q 282 230 263 251 q 310 177 301 208 q 311 104 319 146 z "},"·":{"ha":374,"x_min":38,"x_max":356,"o":"m 347 361 q 300 276 336 307 q 197 244 264 244 q 78 288 119 244 q 54 415 38 332 q 104 501 65 471 q 214 531 143 531 q 271 519 243 531 q 318 487 299 508 q 347 434 338 465 q 347 361 356 403 z "},"?":{"ha":740,"x_min":163,"x_max":761,"o":"m 211 933 q 333 980 268 964 q 461 996 397 996 q 688 943 615 996 q 742 792 761 890 q 709 713 733 746 q 653 654 685 681 q 587 605 622 628 q 520 556 551 582 q 465 497 489 531 q 431 417 440 464 q 428 378 428 396 q 431 336 428 360 q 372 314 407 321 q 306 310 338 307 q 260 381 275 331 q 257 488 246 432 q 300 590 269 551 q 365 657 331 628 q 428 717 399 686 q 468 797 458 747 q 463 868 478 847 q 422 889 447 889 q 395 881 408 889 q 369 853 382 874 q 340 796 356 832 q 307 703 325 760 q 231 710 261 703 q 172 735 200 718 q 199 838 190 793 q 211 933 208 883 m 472 103 q 425 17 461 49 q 322 -14 389 -14 q 203 30 244 -14 q 179 157 163 74 q 229 242 190 213 q 339 272 268 272 q 396 261 368 272 q 443 228 424 250 q 472 176 463 207 q 472 103 481 144 z "},"¿":{"ha":739,"x_min":-21,"x_max":578,"o":"m 268 532 q 315 617 279 586 q 418 649 351 649 q 537 605 496 649 q 561 478 578 561 q 511 392 550 422 q 401 363 472 363 q 344 374 372 363 q 297 406 317 385 q 269 459 278 428 q 268 532 260 490 m 529 -299 q 408 -345 472 -329 q 279 -361 343 -361 q 52 -308 125 -361 q -1 -157 -21 -256 q 31 -78 7 -111 q 87 -19 56 -46 q 153 30 118 7 q 220 78 189 53 q 276 138 251 104 q 310 218 300 171 q 313 257 313 239 q 310 299 313 275 q 368 321 333 314 q 435 325 403 328 q 480 253 465 304 q 483 147 494 203 q 458 74 475 104 q 419 20 440 43 q 375 -22 399 -3 q 331 -62 351 -42 q 295 -106 311 -82 q 272 -162 279 -129 q 278 -233 263 -212 q 318 -254 293 -254 q 345 -247 332 -254 q 372 -218 358 -239 q 400 -161 385 -197 q 433 -68 415 -125 q 510 -76 479 -68 q 568 -100 540 -83 q 541 -203 550 -158 q 529 -299 532 -249 z "},"\"":{"ha":560,"x_min":164,"x_max":613,"o":"m 342 996 q 372 955 367 985 q 358 882 376 925 q 314 751 338 832 q 267 571 290 671 q 213 576 239 571 q 164 592 186 581 q 187 780 179 685 q 194 954 194 875 q 274 969 236 958 q 342 996 311 979 m 578 996 q 608 955 603 985 q 594 882 613 925 q 550 751 574 832 q 503 571 526 671 q 449 576 475 571 q 400 592 422 581 q 423 780 415 685 q 431 954 431 875 q 510 969 472 958 q 578 996 547 979 z "},"'":{"ha":324,"x_min":164,"x_max":376,"o":"m 342 996 q 372 955 367 985 q 358 882 376 925 q 314 751 338 832 q 267 571 290 671 q 213 576 239 571 q 164 592 186 581 q 187 780 179 685 q 194 954 194 875 q 274 969 236 958 q 342 996 311 979 z "},";":{"ha":401,"x_min":-11,"x_max":392,"o":"m 383 479 q 336 394 372 425 q 233 363 300 363 q 115 406 156 363 q 90 533 74 450 q 140 619 101 589 q 250 649 179 649 q 307 638 279 649 q 354 605 335 626 q 383 552 374 583 q 383 479 392 521 m 253 257 q 294 208 279 246 q 294 90 310 171 q 216 -108 275 -19 q 75 -256 157 -196 q -11 -204 13 -247 q 69 -113 39 -157 q 106 -35 100 -69 q 90 22 111 -1 q 15 53 68 46 q 58 206 15 138 q 165 222 114 208 q 253 257 217 236 z "},"/":{"ha":419,"x_min":-39,"x_max":529,"o":"m 418 996 q 529 954 486 994 q 439 773 479 854 q 363 619 399 692 q 295 476 328 546 q 228 333 263 407 q 155 174 193 258 q 71 -12 117 90 q 8 6 36 -8 q -39 43 -19 19 l 418 996 z "},"_":{"ha":731,"x_min":-67,"x_max":611,"o":"m 611 -96 q 601 -160 610 -128 q 574 -217 592 -193 q 422 -217 496 -217 q 271 -217 347 -217 q 112 -219 194 -218 q -67 -222 29 -221 q -56 -156 -65 -189 q -28 -96 -46 -122 l 611 -96 z "},"{":{"ha":533,"x_min":38,"x_max":624,"o":"m 599 1047 q 619 1002 614 1032 q 618 947 624 972 q 522 900 554 932 q 475 826 489 868 q 460 734 461 783 q 459 635 460 685 q 453 538 458 585 q 426 453 449 490 q 357 390 403 415 q 229 360 311 365 q 340 310 304 343 q 385 233 375 278 q 384 138 394 189 q 357 33 374 86 q 324 -72 340 -21 q 306 -168 308 -124 q 323 -246 304 -212 q 394 -296 342 -279 q 389 -348 397 -322 q 361 -393 381 -374 q 200 -339 256 -374 q 122 -259 144 -304 q 101 -160 99 -214 q 115 -52 103 -107 q 140 58 126 3 q 151 161 153 113 q 125 250 149 210 q 39 315 101 290 q 43 360 38 336 q 61 401 49 385 q 164 449 129 417 q 213 525 199 482 q 231 619 228 568 q 238 722 233 669 q 257 824 243 774 q 309 919 271 875 q 416 996 347 963 q 599 1047 485 1029 z "},"}":{"ha":526,"x_min":-101,"x_max":497,"o":"m 188 1047 q 330 980 281 1017 q 399 902 379 943 q 418 817 419 861 q 407 727 417 772 q 387 638 397 682 q 380 551 376 593 q 407 472 383 510 q 489 404 431 435 q 497 360 497 383 q 489 318 496 338 q 388 254 422 296 q 335 160 353 213 q 312 49 318 108 q 297 -71 306 -11 q 269 -187 288 -131 q 210 -287 251 -243 q 99 -359 169 -331 q -86 -393 28 -387 q -100 -341 -101 -367 q -85 -289 -99 -315 q 15 -255 -19 -282 q 63 -186 49 -228 q 78 -93 76 -144 q 79 13 79 -42 q 85 122 79 68 q 113 223 90 176 q 183 304 136 269 q 311 356 229 339 q 191 404 231 374 q 140 472 151 435 q 137 553 128 510 q 163 642 146 597 q 196 733 179 688 q 217 819 213 778 q 205 897 221 861 q 140 958 189 932 q 155 1008 143 983 q 188 1047 167 1032 z "},"[":{"ha":456,"x_min":-53,"x_max":504,"o":"m 194 1031 q 496 1031 346 1024 q 503 975 504 1004 q 493 915 501 946 q 418 906 447 911 q 372 888 389 900 q 345 853 354 875 q 331 799 336 832 l 165 -133 q 160 -192 158 -169 q 172 -228 161 -215 q 208 -248 183 -242 q 272 -256 232 -254 q 263 -372 282 -312 q 193 -370 233 -371 q 110 -369 153 -369 q 24 -370 67 -369 q -53 -372 -18 -371 l 194 1031 z "},"]":{"ha":453,"x_min":-56,"x_max":510,"o":"m 263 -374 q 185 -371 226 -372 q 103 -369 144 -369 q 21 -371 61 -369 q -54 -374 -19 -372 q -49 -312 -56 -346 q -26 -256 -42 -279 q 42 -248 15 -254 q 85 -228 68 -242 q 112 -192 103 -215 q 128 -133 121 -169 l 293 799 q 298 853 299 832 q 285 888 297 875 q 247 906 274 900 q 176 915 221 911 q 184 978 176 947 q 207 1031 192 1010 q 352 1028 281 1028 q 510 1031 424 1028 l 263 -374 z "},"(":{"ha":482,"x_min":51,"x_max":547,"o":"m 547 999 q 451 874 493 938 q 378 738 410 810 q 322 582 346 665 q 281 397 299 499 q 255 -15 243 179 q 322 -354 267 -208 q 275 -372 301 -367 q 221 -376 249 -376 q 134 -212 171 -301 q 77 -26 97 -122 q 54 173 57 71 q 68 375 51 275 q 113 563 86 476 q 183 727 140 649 q 289 880 226 806 q 440 1029 351 954 q 501 1023 472 1032 q 547 999 531 1014 z "},")":{"ha":465,"x_min":-83,"x_max":444,"o":"m 413 340 q 363 136 393 231 q 285 -44 332 42 q 174 -212 238 -131 q 24 -376 110 -293 q -33 -371 -4 -376 q -83 -350 -61 -365 q 22 -192 -24 -269 q 100 -36 67 -115 q 158 128 133 43 q 199 311 182 214 q 227 693 236 526 q 161 999 218 860 q 209 1022 182 1014 q 260 1029 236 1029 q 408 697 371 865 q 413 340 444 529 z "},"—":{"ha":1369,"x_min":39,"x_max":1356,"o":"m 1356 444 q 1344 381 1353 411 q 1319 326 1336 350 q 1015 326 1167 326 q 705 326 863 326 q 382 324 547 325 q 39 321 217 322 q 76 444 42 394 l 1356 444 z "},"–":{"ha":731,"x_min":39,"x_max":717,"o":"m 717 444 q 706 380 715 413 q 679 324 697 347 q 527 324 601 324 q 376 323 453 324 q 217 321 300 322 q 39 318 135 319 q 50 385 40 351 q 78 444 60 418 l 717 444 z "},"-":{"ha":456,"x_min":38,"x_max":440,"o":"m 440 453 q 433 381 439 413 q 411 318 426 350 q 250 317 342 318 q 38 314 158 317 q 51 394 43 363 q 72 453 58 426 l 440 453 z "},"­":{"ha":456,"x_min":38,"x_max":440,"o":"m 440 453 q 433 381 439 413 q 411 318 426 350 q 250 317 342 318 q 38 314 158 317 q 51 394 43 363 q 72 453 58 426 l 440 453 z "},"«":{"ha":668,"x_min":31,"x_max":654,"o":"m 268 574 q 325 564 299 576 q 367 533 351 551 q 294 448 335 497 q 221 354 253 399 q 254 253 233 307 q 296 156 275 200 q 255 113 275 129 q 206 82 235 96 q 122 185 168 131 q 31 285 75 239 q 45 354 33 319 q 74 410 57 389 q 174 489 128 450 q 268 574 219 528 m 556 560 q 613 550 586 563 q 654 519 639 538 q 590 441 622 483 q 526 354 557 399 q 583 169 546 257 q 542 126 563 143 q 493 96 522 110 q 418 193 456 147 q 336 285 381 239 q 351 354 339 319 q 379 410 363 389 q 476 485 432 449 q 556 560 519 522 z "},"»":{"ha":676,"x_min":32,"x_max":644,"o":"m 375 74 q 304 157 324 104 q 391 240 347 196 q 467 322 435 283 q 424 428 447 375 q 371 539 401 481 q 423 565 399 558 q 474 572 447 572 q 546 496 501 540 q 635 413 590 451 q 644 349 644 383 q 635 286 643 315 q 499 180 564 233 q 375 74 435 126 m 103 88 q 32 171 51 118 q 110 246 74 208 q 174 322 146 283 q 142 419 161 369 q 96 525 124 469 q 148 551 124 544 q 199 558 172 558 q 260 488 225 525 q 335 413 294 451 q 344 349 344 383 q 335 286 343 315 q 213 188 265 233 q 103 88 160 143 z "},"‹":{"ha":360,"x_min":31,"x_max":367,"o":"m 268 574 q 325 564 299 576 q 367 533 351 551 q 294 448 335 497 q 221 354 253 399 q 254 253 233 307 q 296 156 275 200 q 255 113 275 129 q 206 82 235 96 q 122 185 168 131 q 31 285 75 239 q 45 354 33 319 q 74 410 57 389 q 174 489 128 450 q 268 574 219 528 z "},"›":{"ha":394,"x_min":22,"x_max":363,"o":"m 93 74 q 22 157 42 104 q 109 240 65 196 q 185 322 153 283 q 142 428 165 375 q 89 539 119 481 q 141 565 117 558 q 192 572 165 572 q 264 496 219 540 q 353 413 308 451 q 362 349 363 383 q 353 286 361 315 q 217 180 282 233 q 93 74 153 126 z "},"„":{"ha":639,"x_min":4,"x_max":581,"o":"m 225 257 q 272 195 263 240 q 260 64 282 150 q 199 -83 240 -12 q 103 -192 157 -153 q 17 -140 40 -183 q 91 -12 96 -65 q 4 53 86 42 q 47 206 4 138 q 146 222 103 208 q 225 257 189 236 m 524 257 q 565 208 550 246 q 565 90 581 171 q 504 -69 550 7 q 382 -201 458 -146 q 296 -150 319 -193 q 354 -81 333 -114 q 376 -20 375 -47 q 360 26 378 7 q 301 53 342 44 q 344 206 301 138 q 444 222 400 208 q 524 257 488 236 z "},"“":{"ha":701,"x_min":135,"x_max":704,"o":"m 185 525 q 161 542 172 531 q 143 574 150 554 q 135 622 136 593 q 143 692 135 651 q 204 851 158 775 q 326 983 250 928 q 413 932 389 975 q 354 863 375 896 q 332 802 333 829 q 349 756 331 775 q 407 729 367 738 q 364 576 407 644 q 265 560 308 574 q 185 525 221 546 m 483 525 q 436 587 446 542 q 449 718 426 632 q 510 865 468 794 q 606 974 551 935 q 692 922 668 965 q 617 794 613 847 q 704 729 622 740 q 661 576 704 644 q 563 560 606 574 q 483 525 519 546 z "},"”":{"ha":701,"x_min":169,"x_max":746,"o":"m 390 996 q 438 934 428 979 q 425 803 447 889 q 364 656 406 726 q 268 547 322 586 q 182 599 206 556 q 256 727 261 674 q 169 792 251 781 q 213 944 169 876 q 311 961 268 947 q 390 996 354 975 m 689 996 q 731 947 715 985 q 731 829 746 910 q 669 669 715 746 q 547 538 624 593 q 461 589 485 546 q 519 658 499 625 q 542 719 540 692 q 525 765 543 746 q 467 792 507 783 q 510 944 467 876 q 609 961 565 947 q 689 996 653 975 z "},"‘":{"ha":411,"x_min":138,"x_max":417,"o":"m 188 538 q 164 555 175 543 q 146 586 153 567 q 138 635 139 606 q 146 704 138 664 q 207 864 161 788 q 329 996 253 940 q 415 944 392 988 q 353 872 375 906 q 332 810 332 838 q 353 765 332 783 q 417 742 374 747 q 374 589 417 657 q 271 572 318 586 q 188 538 224 558 z "},"’":{"ha":411,"x_min":169,"x_max":456,"o":"m 399 996 q 440 947 425 985 q 440 829 456 910 q 379 669 425 746 q 257 538 333 593 q 171 589 194 546 q 233 662 211 628 q 254 723 254 696 q 233 768 254 750 q 169 792 213 786 q 213 944 169 876 q 315 961 268 947 q 399 996 363 975 z "},"‚":{"ha":375,"x_min":4,"x_max":290,"o":"m 233 257 q 275 208 260 246 q 275 90 290 171 q 214 -69 260 7 q 92 -201 168 -146 q 6 -150 29 -193 q 67 -77 46 -111 q 89 -16 89 -43 q 68 29 89 11 q 4 53 47 47 q 47 206 4 138 q 150 222 103 208 q 233 257 197 236 z "}," ":{"ha":278,"x_min":0,"x_max":0,"o":""},"€":{"ha":956,"x_min":44,"x_max":999,"o":"m 176 597 q 263 752 207 686 q 388 863 318 818 q 537 929 457 907 q 696 951 617 951 q 856 935 781 951 q 999 878 932 919 q 953 663 965 779 q 890 649 925 651 q 821 653 856 646 q 822 748 828 711 q 799 806 815 785 q 756 836 782 828 q 699 844 731 844 q 619 825 656 844 q 553 772 583 806 q 501 694 524 739 q 461 597 478 649 l 746 597 q 714 476 749 528 l 432 476 q 426 428 428 451 q 422 381 424 404 l 721 381 q 716 317 724 349 q 692 260 708 285 l 436 260 q 504 156 456 193 q 638 118 553 118 q 733 130 682 118 q 843 171 783 142 q 867 128 860 153 q 878 75 875 104 q 733 10 811 32 q 558 -12 656 -12 q 297 59 399 -12 q 160 254 196 131 l 57 254 q 76 381 44 324 l 142 381 q 143 425 142 403 q 147 471 144 447 l 74 471 q 79 538 71 504 q 107 597 88 571 l 176 597 z "},"¤":{"ha":750,"x_min":-14,"x_max":667,"o":"m 547 493 q 571 420 565 460 q 568 336 576 381 q 513 210 556 264 l 611 106 q 568 78 597 89 q 513 65 539 68 l 440 147 q 301 111 379 111 q 227 122 261 111 q 165 151 193 132 l 79 69 q 27 85 53 71 q -14 118 1 99 l 104 221 q 76 306 83 258 q 79 404 69 353 q 124 507 89 463 l 32 606 q 76 631 47 621 q 131 640 106 640 l 194 569 q 335 606 256 606 q 490 558 428 606 l 585 642 q 631 621 608 636 q 667 586 654 606 l 547 493 m 189 385 q 188 317 182 349 q 210 261 194 285 q 253 224 226 238 q 313 210 279 210 q 408 243 368 210 q 457 331 447 276 q 432 456 469 406 q 324 507 394 507 q 236 474 272 507 q 189 385 200 440 z "},"$":{"ha":740,"x_min":-10,"x_max":731,"o":"m 542 949 q 655 924 607 942 q 731 883 703 907 q 719 769 724 829 q 715 668 714 708 q 561 654 646 646 q 513 807 560 758 q 492 702 501 753 q 471 601 482 651 q 560 547 515 576 q 640 478 606 518 q 690 384 674 439 q 693 254 706 329 q 654 153 683 199 q 581 74 625 108 q 480 19 538 40 q 357 -10 422 -3 l 338 -118 q 274 -112 306 -118 q 217 -92 243 -107 l 232 -11 q 160 -1 192 -8 q 99 19 128 7 q 45 47 71 31 q -10 86 19 64 q 43 303 29 189 q 125 311 83 310 q 207 304 167 313 q 258 121 194 163 l 303 353 q 223 408 263 378 q 156 482 183 439 q 115 583 128 525 q 118 722 103 642 q 220 881 138 824 q 418 949 303 938 l 439 1053 q 501 1049 472 1053 q 558 1032 529 1044 l 542 949 m 397 839 q 351 818 369 833 q 326 775 332 803 q 331 718 319 743 q 365 672 342 693 l 397 839 m 378 108 q 426 137 406 118 q 451 182 447 156 q 445 238 457 214 q 410 281 433 261 l 378 108 z "},"£":{"ha":888,"x_min":-7,"x_max":825,"o":"m 147 521 q 132 612 138 565 q 136 714 126 658 q 263 885 156 818 q 561 951 371 951 q 715 933 644 951 q 825 890 785 915 q 800 790 810 842 q 789 689 790 738 q 719 671 761 675 q 640 669 676 667 q 609 801 646 760 q 519 842 572 842 q 459 817 483 842 q 428 750 435 793 q 426 688 421 715 q 439 634 431 660 q 456 581 447 608 q 467 521 464 554 l 639 521 q 633 456 642 489 q 610 400 625 424 l 451 400 q 432 356 443 376 q 403 314 421 335 q 361 269 386 293 q 300 217 336 246 q 366 253 338 239 q 419 274 394 267 q 464 285 443 282 q 508 288 485 288 q 546 283 529 288 q 578 272 563 278 q 608 262 593 267 q 639 257 622 257 q 677 270 660 257 q 704 310 694 283 q 761 292 732 306 q 807 264 790 279 q 778 157 797 207 q 731 69 760 107 q 661 10 701 32 q 569 -12 621 -12 q 472 -2 511 -12 q 399 20 433 8 q 329 42 365 32 q 242 53 293 53 q 191 49 214 53 q 146 38 168 46 q 101 19 124 31 q 53 -11 79 7 q 11 38 26 6 q -7 103 -4 69 q 64 151 35 128 q 113 199 93 174 q 144 252 133 224 q 163 315 156 281 q 167 397 171 360 q 95 397 128 397 q 40 394 63 396 q 46 461 38 428 q 71 521 54 494 l 147 521 z "},"¥":{"ha":842,"x_min":119,"x_max":950,"o":"m 276 568 q 254 627 265 596 q 229 694 243 658 q 201 763 213 738 q 178 803 189 789 q 156 824 167 818 q 131 835 144 831 q 126 883 126 854 q 129 943 125 911 q 188 941 156 942 q 250 940 219 940 q 306 939 281 939 q 347 939 332 939 q 394 939 365 939 q 457 940 424 939 q 526 941 490 940 q 594 943 561 942 q 588 882 593 910 q 575 835 582 854 q 503 800 515 828 q 510 724 492 772 q 541 631 525 683 q 571 521 557 579 q 633 626 606 576 q 686 731 661 676 q 701 803 710 779 q 646 835 693 828 q 644 943 636 883 q 728 940 679 940 q 807 939 776 939 q 876 940 846 939 q 950 943 906 940 q 931 835 947 885 q 910 828 919 832 q 888 810 900 824 q 858 773 875 797 q 814 706 840 749 q 769 634 790 668 q 726 568 747 600 l 826 568 q 821 503 828 536 q 796 447 814 471 l 646 447 l 606 388 l 600 356 l 797 356 q 792 292 800 324 q 765 235 783 260 l 579 235 l 578 224 q 576 173 574 193 q 590 140 578 153 q 628 118 603 126 q 696 104 654 110 q 702 49 701 78 q 700 -4 703 21 q 583 -1 654 -1 q 428 0 513 0 q 256 -1 335 0 q 119 -4 176 -1 q 129 55 122 26 q 144 104 136 83 q 212 117 185 110 q 256 135 239 124 q 282 168 272 147 q 299 225 292 189 l 300 232 q 217 231 260 232 q 126 229 174 231 q 133 295 125 261 q 158 356 140 329 l 322 356 l 331 406 l 318 446 q 229 445 268 446 q 151 442 190 444 q 161 508 151 475 q 190 568 171 542 l 276 568 z "},"~":{"ha":821,"x_min":39,"x_max":803,"o":"m 299 519 q 381 501 344 519 q 449 462 417 483 q 513 422 482 440 q 579 404 543 404 q 653 425 618 404 q 732 499 689 446 q 779 460 760 486 q 803 406 799 435 q 683 279 740 319 q 568 239 626 239 q 483 258 519 239 q 416 299 447 276 q 353 341 385 322 q 281 360 321 360 q 108 254 190 360 q 62 285 81 264 q 39 339 43 307 q 118 428 81 393 q 188 484 156 464 q 249 512 221 504 q 299 519 276 519 z "},"÷":{"ha":731,"x_min":35,"x_max":713,"o":"m 538 599 q 499 528 529 556 q 419 501 469 501 q 324 538 357 501 q 303 638 290 574 q 343 706 311 682 q 432 729 375 729 q 515 694 482 729 q 538 599 549 660 m 713 425 q 702 360 711 393 q 675 304 693 328 q 523 304 597 304 q 372 303 449 304 q 213 301 296 303 q 35 299 131 300 q 46 365 36 332 q 74 425 56 399 l 713 425 m 460 93 q 422 22 451 47 q 339 -4 393 -4 q 247 31 281 -4 q 226 135 213 67 q 265 199 235 175 q 351 224 294 224 q 399 215 376 224 q 436 190 421 207 q 458 149 451 174 q 460 93 465 125 z "},"=":{"ha":736,"x_min":14,"x_max":735,"o":"m 735 542 q 724 477 733 510 q 697 421 715 444 q 545 421 619 421 q 394 420 471 421 q 235 418 318 419 q 57 415 153 417 q 68 482 58 449 q 96 542 78 515 l 735 542 m 692 288 q 681 223 690 256 q 654 167 672 190 q 502 167 576 167 q 351 166 428 167 q 192 164 275 165 q 14 161 110 163 q 25 228 15 194 q 53 288 35 261 l 692 288 z "},">":{"ha":853,"x_min":1,"x_max":603,"o":"m 582 411 q 583 282 603 354 q 444 204 511 243 q 310 125 376 165 q 175 42 243 85 q 33 -49 107 -1 q 7 6 13 -24 q 8 68 1 36 l 488 354 l 94 726 q 147 756 115 746 q 211 765 178 767 l 582 411 z "},"<":{"ha":692,"x_min":39,"x_max":632,"o":"m 494 71 q 487 -2 496 33 q 461 -54 478 -37 q 236 152 338 63 q 42 318 135 242 q 48 383 39 347 q 74 446 57 418 l 532 757 q 632 693 597 749 l 151 367 l 494 71 z "},"¬":{"ha":775,"x_min":50,"x_max":728,"o":"m 676 168 q 556 158 625 146 l 590 381 q 465 381 528 381 q 337 380 403 381 q 200 378 271 379 q 50 375 129 376 q 89 494 51 440 l 728 494 l 676 168 z "},"−":{"ha":731,"x_min":39,"x_max":717,"o":"m 717 444 q 706 380 715 413 q 679 324 697 347 q 527 324 601 324 q 376 323 453 324 q 217 321 300 322 q 39 318 135 319 q 50 385 40 351 q 78 444 60 418 l 717 444 z "},"×":{"ha":913,"x_min":-8,"x_max":808,"o":"m 697 669 q 765 652 733 669 q 808 611 796 635 q 649 478 735 551 q 476 328 564 406 l 740 29 q 694 -2 724 8 q 626 -10 664 -12 q 528 107 589 36 q 397 257 468 178 q 226 102 306 175 q 92 -22 147 29 q 34 -3 61 -18 q -8 40 7 13 l 326 339 q 176 503 249 425 q 54 635 104 582 q 110 661 76 653 q 175 667 143 669 l 404 408 l 697 669 z "},"%":{"ha":1014,"x_min":97,"x_max":969,"o":"m 857 951 q 910 914 889 939 q 938 857 931 889 q 806 699 867 772 q 690 559 746 626 q 583 428 635 492 q 476 295 531 364 q 360 151 421 226 q 231 -12 300 76 q 177 25 201 -3 q 149 82 153 53 l 857 951 m 353 940 q 447 922 407 940 q 513 872 488 904 q 545 792 538 839 q 540 689 553 746 q 508 611 531 646 q 456 551 486 576 q 388 513 425 526 q 308 499 350 499 q 208 517 251 499 q 140 568 165 535 q 106 649 114 601 q 110 753 97 696 q 196 889 129 838 q 353 940 263 940 m 336 835 q 285 813 307 835 q 256 754 263 790 q 260 645 243 686 q 317 604 276 604 q 366 626 344 604 q 394 685 388 649 q 392 794 407 753 q 336 835 376 835 m 769 429 q 864 411 824 429 q 929 360 904 393 q 962 281 954 328 q 957 178 969 235 q 925 100 947 135 q 872 40 903 65 q 804 1 842 15 q 725 -12 767 -12 q 625 6 668 -12 q 556 57 582 24 q 522 138 531 90 q 526 242 514 185 q 613 378 546 326 q 769 429 679 429 m 753 324 q 701 301 724 324 q 672 243 679 279 q 676 134 660 175 q 733 93 693 93 q 783 115 761 93 q 811 174 804 138 q 808 283 824 242 q 753 324 793 324 z "},"‰":{"ha":1486,"x_min":97,"x_max":1451,"o":"m 857 951 q 910 914 889 939 q 938 857 931 889 q 806 699 867 772 q 690 559 746 626 q 583 428 635 492 q 476 295 531 364 q 360 151 421 226 q 231 -12 300 76 q 177 25 201 -3 q 149 82 153 53 l 857 951 m 353 940 q 447 922 407 940 q 513 872 488 904 q 545 792 538 839 q 540 689 553 746 q 508 611 531 646 q 456 551 486 576 q 388 513 425 526 q 308 499 350 499 q 208 517 251 499 q 140 568 165 535 q 106 649 114 601 q 110 753 97 696 q 196 889 129 838 q 353 940 263 940 m 336 835 q 285 813 307 835 q 256 754 263 790 q 260 645 243 686 q 317 604 276 604 q 366 626 344 604 q 394 685 388 649 q 392 794 407 753 q 336 835 376 835 m 769 429 q 864 411 824 429 q 929 360 904 393 q 962 281 954 328 q 957 178 969 235 q 925 100 947 135 q 872 40 903 65 q 804 1 842 15 q 725 -12 767 -12 q 625 6 668 -12 q 556 57 582 24 q 522 138 531 90 q 526 242 514 185 q 613 378 546 326 q 769 429 679 429 m 1251 429 q 1346 411 1306 429 q 1411 360 1386 393 q 1444 281 1436 328 q 1439 178 1451 235 q 1407 100 1429 135 q 1354 40 1385 65 q 1286 1 1324 15 q 1207 -12 1249 -12 q 1107 6 1150 -12 q 1038 57 1064 24 q 1004 138 1013 90 q 1008 242 996 185 q 1094 378 1028 326 q 1251 429 1161 429 m 753 324 q 701 301 724 324 q 672 243 679 279 q 676 134 660 175 q 733 93 693 93 q 783 115 761 93 q 811 174 804 138 q 808 283 824 242 q 753 324 793 324 m 1235 324 q 1183 301 1206 324 q 1154 243 1161 279 q 1158 134 1142 175 q 1215 93 1175 93 q 1265 115 1243 93 q 1293 174 1286 138 q 1290 283 1306 242 q 1235 324 1275 324 z "},"+":{"ha":743,"x_min":36,"x_max":724,"o":"m 724 424 q 715 362 722 392 q 690 308 708 332 l 428 308 q 374 0 399 154 q 308 1 339 -3 q 253 22 276 6 l 308 307 q 178 306 244 306 q 36 303 111 306 q 45 367 38 336 q 71 424 53 397 l 331 424 l 383 700 q 445 703 415 706 q 504 689 475 701 q 476 556 489 622 q 450 424 463 490 l 724 424 z "},"±":{"ha":624,"x_min":4,"x_max":607,"o":"m 603 528 q 575 413 607 464 l 376 413 q 358 305 365 354 q 346 229 350 256 q 282 225 314 222 q 222 243 250 228 l 256 411 l 60 407 q 64 471 57 440 q 89 528 71 501 l 278 528 l 314 718 q 375 732 342 731 q 438 722 408 733 q 420 642 431 693 q 399 528 410 590 l 603 528 m 557 181 q 547 116 556 149 q 519 60 538 83 q 374 60 442 60 q 243 59 306 60 q 122 57 181 58 q 4 54 63 56 q 15 121 6 88 q 43 181 25 154 l 557 181 z "},"&":{"ha":1136,"x_min":-6,"x_max":1143,"o":"m 1097 181 q 1113 163 1106 174 q 1128 138 1121 151 q 1139 113 1135 125 q 1143 90 1143 100 q 1106 56 1131 74 q 1047 22 1081 38 q 975 -3 1014 7 q 896 -12 936 -12 q 784 -4 831 -12 q 689 38 738 4 q 549 1 622 14 q 396 -12 475 -12 q 215 5 293 -12 q 85 60 136 22 q 15 155 35 97 q 10 293 -6 213 q 45 384 19 346 q 108 451 71 422 q 189 499 144 479 q 282 533 233 518 q 233 624 250 585 q 207 698 215 664 q 199 762 199 732 q 204 824 199 792 q 231 888 210 857 q 294 944 251 919 q 403 982 336 968 q 567 996 469 996 q 806 937 731 996 q 860 772 881 878 q 824 681 849 718 q 763 617 799 643 q 685 572 728 590 q 597 536 642 553 q 638 483 617 511 q 685 422 660 454 q 772 314 735 358 q 839 239 810 269 q 894 353 882 292 q 869 455 908 424 q 750 486 831 486 q 767 592 750 546 q 831 599 794 593 q 903 614 867 606 q 972 631 939 622 q 1026 649 1006 640 q 1095 583 1074 633 q 1099 438 1117 532 q 1040 296 1085 364 q 926 169 996 228 q 966 158 947 160 q 1008 156 985 156 q 1097 181 1053 156 m 465 824 q 473 742 458 786 q 535 625 488 697 q 605 682 576 649 q 643 764 633 715 q 631 854 654 817 q 553 892 607 892 q 494 873 517 892 q 465 824 471 854 m 292 279 q 294 199 283 233 q 328 140 304 164 q 387 103 351 115 q 463 92 422 92 q 607 108 536 92 q 532 193 572 144 q 440 308 492 242 q 399 365 418 338 q 361 415 379 392 q 318 357 336 390 q 292 279 300 324 z "},"@":{"ha":1239,"x_min":17,"x_max":1239,"o":"m 694 153 q 568 30 638 72 q 425 -12 499 -12 q 319 22 358 -12 q 262 106 279 56 q 244 215 244 157 q 253 322 243 274 q 294 445 265 386 q 374 549 324 504 q 499 622 425 594 q 674 649 574 649 q 762 642 722 649 q 833 625 801 636 q 911 635 874 629 q 985 649 949 640 q 1022 597 1014 625 q 1021 526 1031 569 l 958 256 q 947 198 950 219 q 947 165 944 176 q 954 149 949 153 q 967 144 960 144 q 1036 201 1003 144 q 1092 365 1069 258 q 1028 698 1129 582 q 699 814 926 814 q 511 783 599 814 q 356 696 424 753 q 242 558 288 639 q 179 378 196 478 q 250 -30 133 113 q 629 -172 367 -172 q 825 -138 729 -172 q 1000 -49 921 -104 q 1035 -76 1022 -57 q 1053 -115 1049 -96 q 860 -235 974 -190 q 606 -281 746 -281 q 338 -237 454 -281 q 147 -112 221 -194 q 44 91 72 -29 q 44 367 17 211 q 127 592 67 490 q 278 765 188 693 q 485 877 368 838 q 735 917 601 917 q 973 881 872 917 q 1135 779 1074 846 q 1218 615 1197 713 q 1218 394 1239 518 q 1167 237 1203 311 q 1079 108 1131 163 q 965 20 1028 53 q 835 -12 903 -12 q 761 1 790 -12 q 716 37 732 14 q 696 90 700 60 q 696 153 692 119 l 694 153 m 749 531 q 706 542 732 538 q 664 546 681 546 q 617 532 638 546 q 582 494 597 518 q 556 438 567 471 q 538 367 546 404 q 525 222 519 272 q 571 172 531 172 q 609 186 588 172 q 653 233 631 200 q 696 324 675 267 q 733 467 717 381 l 749 531 z "},"|":{"ha":292,"x_min":-29,"x_max":344,"o":"m 225 994 q 287 990 258 994 q 344 974 315 986 q 214 317 276 646 q 92 -347 151 -11 q 28 -342 60 -347 q -29 -321 -3 -336 l 225 994 z "},"¦":{"ha":290,"x_min":-29,"x_max":344,"o":"m 225 994 q 287 990 258 994 q 344 974 315 986 q 288 695 314 835 q 238 413 261 556 q 174 418 206 413 q 117 439 143 424 l 225 994 m 82 246 q 144 242 115 246 q 201 225 172 238 q 143 -59 171 83 q 92 -347 115 -201 q 28 -342 60 -347 q -29 -321 -3 -336 l 82 246 z "},"©":{"ha":1038,"x_min":25,"x_max":1013,"o":"m 554 801 q 767 760 675 801 q 916 646 858 719 q 993 471 974 572 q 989 249 1013 369 q 926 74 971 150 q 816 -55 882 -3 q 665 -135 750 -107 q 483 -162 581 -162 q 270 -123 363 -162 q 121 -11 178 -83 q 44 163 64 61 q 49 389 25 265 q 112 562 67 485 q 224 692 157 639 q 374 773 290 744 q 554 801 458 801 m 497 -64 q 641 -41 574 -64 q 760 24 708 -18 q 845 124 811 65 q 890 253 879 182 q 896 440 910 357 q 837 583 882 524 q 717 673 792 642 q 540 704 642 704 q 397 681 464 704 q 278 617 331 658 q 192 516 226 575 q 146 386 158 457 q 140 200 125 283 q 200 58 154 117 q 322 -32 246 0 q 497 -64 397 -64 m 590 617 q 690 603 643 617 q 764 571 736 590 q 746 501 753 535 q 739 435 739 467 q 631 428 686 415 q 623 494 633 468 q 578 521 613 521 q 517 488 546 521 q 472 371 488 454 q 460 285 463 325 q 467 217 458 246 q 498 171 475 188 q 561 154 521 154 q 638 167 601 154 q 700 193 674 179 q 720 146 715 169 q 722 90 725 122 q 606 36 665 51 q 460 21 546 21 q 321 46 374 21 q 240 113 268 71 q 208 209 213 154 q 214 325 203 264 q 245 422 222 371 q 312 517 268 474 q 424 588 356 560 q 590 617 492 617 z "},"†":{"ha":686,"x_min":92,"x_max":674,"o":"m 674 636 q 659 552 671 593 q 626 478 647 511 q 541 499 582 492 q 447 511 500 507 q 353 89 397 301 q 274 -347 310 -124 q 217 -337 242 -344 q 174 -307 193 -329 q 242 97 211 -107 q 299 508 274 300 q 191 494 239 501 q 92 476 143 488 q 125 636 92 569 l 314 636 l 339 896 q 426 907 390 897 q 500 936 463 917 q 538 901 532 922 q 532 839 543 881 q 505 738 518 789 q 479 636 492 688 l 674 636 z "},"‡":{"ha":661,"x_min":3,"x_max":674,"o":"m 321 636 q 329 753 325 689 q 339 896 333 817 q 426 907 390 897 q 500 936 463 917 q 538 901 532 922 q 532 839 544 881 q 498 729 513 779 q 471 636 483 679 l 674 636 q 659 552 671 593 q 626 478 647 511 q 538 501 581 493 q 439 513 494 508 l 432 483 q 417 377 417 415 q 428 311 417 339 q 397 260 410 293 q 374 160 385 226 l 369 128 q 482 142 432 135 q 585 160 532 149 q 551 0 585 67 l 356 0 q 347 -117 351 -53 q 338 -261 343 -182 q 250 -272 286 -262 q 176 -301 214 -282 q 138 -267 144 -287 q 144 -204 132 -246 q 178 -94 164 -144 q 206 0 193 -43 l 3 0 q 17 84 6 43 q 50 158 29 125 q 139 135 96 143 q 238 124 182 128 l 246 161 q 259 260 258 224 q 249 324 260 297 q 281 379 268 343 q 304 488 293 415 l 307 508 q 194 494 244 501 q 92 476 144 488 q 125 636 92 569 l 321 636 z "},"°":{"ha":581,"x_min":157,"x_max":601,"o":"m 394 971 q 490 955 449 971 q 556 910 531 939 q 592 840 582 881 q 593 749 601 799 q 516 620 578 664 q 356 576 454 576 q 264 593 303 576 q 200 640 225 610 q 166 713 175 671 q 165 806 157 756 q 241 931 179 890 q 394 971 303 971 m 385 890 q 343 869 361 890 q 319 815 325 849 q 319 702 307 744 q 365 660 332 660 q 413 683 393 660 q 440 747 433 707 q 436 851 451 813 q 385 890 421 890 z "},"¶":{"ha":814,"x_min":76,"x_max":900,"o":"m 431 390 q 404 388 419 389 q 368 388 389 388 q 226 408 285 388 q 133 467 167 429 q 88 558 99 504 q 88 676 76 611 q 232 878 111 810 q 568 946 353 946 q 673 943 621 946 q 774 940 725 940 q 836 940 806 940 q 900 943 867 940 q 895 887 900 915 q 881 835 890 858 q 838 826 854 832 q 810 804 821 819 q 792 763 799 789 q 776 696 785 738 q 740 499 756 588 q 710 331 724 410 q 683 178 696 253 q 658 24 671 104 q 631 -146 644 -56 q 599 -347 617 -236 q 535 -344 567 -347 q 476 -331 503 -342 l 681 829 q 656 834 668 832 q 631 839 643 836 q 576 540 601 685 q 525 252 550 396 q 476 -40 500 108 q 426 -347 451 -187 q 363 -342 394 -347 q 306 -321 332 -336 l 431 390 m 510 840 q 407 797 439 831 q 363 692 375 763 q 358 606 354 642 q 376 545 363 569 q 408 508 389 521 q 449 493 428 496 l 510 840 z "},"®":{"ha":700,"x_min":135,"x_max":708,"o":"m 454 958 q 569 934 518 958 q 651 869 619 910 q 696 773 683 828 q 696 656 708 718 q 591 466 674 533 q 389 399 508 399 q 275 423 325 399 q 192 489 225 447 q 147 586 160 531 q 146 703 135 642 q 185 808 157 761 q 253 889 213 856 q 344 940 293 922 q 454 958 396 958 m 628 653 q 630 749 638 704 q 599 826 622 793 q 538 877 575 858 q 450 896 500 896 q 296 844 360 896 q 215 706 232 792 q 214 613 206 657 q 246 537 222 569 q 308 485 269 504 q 394 465 346 465 q 547 517 483 465 q 628 653 611 568 m 322 735 q 323 767 326 760 q 301 776 319 774 q 299 801 299 786 q 303 824 300 815 q 338 822 318 822 q 378 822 357 822 q 417 824 389 822 q 471 825 444 825 q 551 799 528 825 q 569 736 575 772 q 544 686 564 708 q 494 654 524 664 q 528 607 514 640 q 547 594 533 594 q 564 599 557 594 q 574 584 569 593 q 578 564 578 575 q 543 540 565 549 q 493 532 521 532 q 451 544 465 532 q 429 583 436 556 q 417 622 422 610 q 406 643 413 635 l 399 643 l 393 611 q 392 589 390 594 q 404 581 393 583 q 407 558 407 572 q 404 535 407 544 q 372 536 386 536 q 336 536 357 536 q 295 536 313 536 q 263 535 278 536 q 263 558 261 544 q 269 581 265 572 q 292 589 285 582 q 303 619 299 596 l 322 735 m 414 688 q 451 699 433 688 q 472 735 468 711 q 470 768 476 756 q 444 781 464 781 q 433 779 438 781 q 421 775 428 778 l 406 688 l 414 688 z "},"§":{"ha":740,"x_min":-1,"x_max":744,"o":"m 367 824 q 386 756 358 786 q 459 698 414 726 q 557 638 504 669 q 653 567 610 607 q 720 472 696 526 q 731 343 744 418 q 700 257 722 294 q 648 191 678 219 q 583 143 618 163 q 514 110 549 124 q 571 7 551 65 q 575 -133 590 -51 q 535 -225 565 -186 q 461 -291 504 -264 q 367 -331 418 -318 q 265 -344 315 -344 q 140 -335 192 -344 q 36 -303 88 -326 q 56 -210 49 -264 q 63 -117 64 -157 q 117 -105 86 -110 q 178 -100 147 -100 q 208 -205 176 -172 q 293 -237 240 -237 q 347 -222 324 -237 q 376 -176 369 -207 q 357 -109 385 -139 q 284 -51 329 -79 q 186 9 239 -22 q 90 81 133 40 q 23 175 47 121 q 13 304 -1 229 q 43 390 21 353 q 95 456 65 428 q 160 504 125 485 q 229 538 194 524 q 172 640 192 582 q 168 781 153 699 q 208 872 178 832 q 282 938 239 911 q 376 978 325 965 q 478 992 428 992 q 603 983 551 992 q 707 950 656 974 q 687 858 694 911 q 681 764 679 804 q 626 752 657 757 q 565 747 596 747 q 535 852 567 819 q 450 885 503 885 q 397 869 419 885 q 367 824 374 854 m 247 378 q 257 326 243 350 q 297 281 271 303 q 358 236 324 258 q 428 188 392 214 q 474 219 457 201 q 496 269 490 238 q 485 321 500 297 q 445 367 471 344 q 385 411 419 389 q 315 460 350 433 q 269 428 286 446 q 247 378 253 410 z "},"^":{"ha":694,"x_min":149,"x_max":725,"o":"m 460 961 q 512 972 481 971 q 567 967 543 974 q 601 872 582 924 q 642 766 621 819 q 685 660 664 713 q 725 565 706 608 q 703 556 717 560 q 674 549 690 551 q 643 545 658 546 q 615 547 628 544 l 497 851 q 358 686 426 769 q 233 532 289 603 q 180 551 201 535 q 149 594 158 568 l 460 961 z "},"´":{"ha":750,"x_min":276,"x_max":624,"o":"m 390 999 q 524 1001 460 1008 q 624 975 588 994 q 499 844 556 908 q 407 724 443 779 q 276 769 335 731 q 312 831 294 799 q 344 894 329 863 q 372 952 360 925 q 390 999 383 979 z "},"¸":{"ha":750,"x_min":225,"x_max":510,"o":"m 424 -64 q 492 -118 475 -81 q 500 -206 510 -156 q 419 -305 488 -271 q 231 -336 351 -339 q 226 -301 225 -321 q 232 -265 228 -281 q 314 -253 278 -267 q 354 -215 350 -239 q 339 -168 361 -183 q 282 -153 317 -153 q 269 -87 265 -124 l 381 22 l 506 22 l 424 -64 z "},"ˆ":{"ha":750,"x_min":51,"x_max":621,"o":"m 317 999 q 376 1001 344 1003 q 435 989 407 999 q 515 885 471 938 q 621 767 560 832 q 569 737 601 747 q 499 724 538 726 q 416 783 460 756 q 332 831 372 811 q 281 803 308 819 q 225 771 253 788 q 172 738 197 754 q 131 710 147 722 q 76 753 96 724 q 51 807 56 783 q 121 849 85 825 q 192 898 157 872 q 260 949 228 924 q 317 999 292 975 z "},"¨":{"ha":742,"x_min":176,"x_max":761,"o":"m 190 839 q 231 916 200 889 q 319 943 263 943 q 414 903 385 943 q 428 797 443 864 q 384 718 415 746 q 300 690 353 690 q 206 731 235 690 q 190 839 176 772 m 747 800 q 615 690 726 690 q 520 728 550 690 q 503 831 490 767 q 544 914 511 885 q 640 943 578 943 q 732 905 703 943 q 747 800 761 867 z "},"`":{"ha":369,"x_min":149,"x_max":435,"o":"m 149 967 q 257 985 199 981 q 374 979 315 990 q 399 867 383 928 q 435 753 415 806 q 369 744 406 744 q 304 754 332 744 q 236 857 272 808 q 149 967 200 906 z "},"¯":{"ha":750,"x_min":125,"x_max":640,"o":"m 640 876 q 638 839 640 861 q 628 796 635 817 q 394 794 518 796 q 125 786 271 793 q 128 832 125 807 q 138 876 131 857 l 640 876 z "},"˚":{"ha":750,"x_min":199,"x_max":601,"o":"m 419 1013 q 558 971 515 1013 q 588 850 601 929 q 519 753 576 789 q 379 717 463 717 q 242 759 285 717 q 213 881 199 801 q 281 976 224 940 q 419 1013 338 1013 m 408 936 q 356 868 367 936 q 360 819 350 839 q 393 800 369 800 q 426 816 411 800 q 447 860 442 832 q 444 910 451 885 q 408 936 436 936 z "},"˜":{"ha":750,"x_min":33,"x_max":654,"o":"m 275 954 q 338 945 311 954 q 387 926 364 936 q 430 906 410 915 q 474 897 450 897 q 549 914 517 897 q 601 946 581 931 q 636 901 622 925 q 654 844 650 876 q 547 730 596 765 q 436 694 497 694 q 371 704 397 694 q 322 726 344 714 q 278 749 300 739 q 229 758 257 758 q 151 739 193 758 q 75 693 108 719 q 44 745 54 719 q 33 807 33 771 q 108 883 74 854 q 174 927 143 911 q 229 949 204 943 q 275 954 254 954 z "},"A":{"ha":986,"x_min":-50,"x_max":919,"o":"m 213 211 q 198 142 189 172 q 251 104 207 111 q 255 52 254 79 q 249 -4 256 25 q 216 -2 238 -3 q 169 -1 194 -1 q 119 0 144 0 q 78 0 94 0 q 8 -1 43 0 q -50 -4 -28 -1 q -44 53 -49 28 q -29 104 -40 78 q 3 115 -12 107 q 33 138 18 122 q 68 178 49 153 q 113 244 88 204 q 172 338 138 283 q 253 474 206 393 q 369 667 301 554 q 528 939 436 781 q 579 947 556 946 q 635 947 603 947 q 696 749 667 846 q 749 564 725 651 q 793 401 774 476 q 825 271 813 326 q 847 185 838 217 q 867 135 857 153 q 888 112 878 118 q 914 104 899 106 q 919 56 918 85 q 915 -4 919 28 q 864 -2 894 -3 q 801 -1 833 -1 q 740 0 768 0 q 694 0 711 0 q 645 0 678 0 q 576 -1 613 0 q 504 -2 539 -1 q 449 -4 469 -3 q 468 104 450 61 q 539 139 526 115 q 540 210 551 163 l 535 231 q 379 228 458 231 q 217 217 300 225 l 213 211 m 513 321 q 490 405 501 363 q 467 489 479 447 q 452 553 458 517 q 442 631 446 590 q 404 555 422 590 q 372 492 386 519 q 325 406 349 449 q 278 321 301 364 l 513 321 z "},"¢":{"ha":626,"x_min":6,"x_max":628,"o":"m 446 649 q 550 632 501 646 q 628 599 599 618 q 600 447 600 518 q 479 439 543 426 q 470 513 482 483 q 421 543 458 543 q 353 506 386 543 q 303 376 319 468 q 290 282 292 326 q 297 206 288 238 q 332 155 307 174 q 401 136 357 136 q 488 150 447 136 q 557 179 528 164 q 578 126 572 153 q 581 65 583 100 q 474 11 528 29 q 347 -11 419 -7 l 317 -187 q 253 -182 285 -187 q 196 -161 222 -176 l 226 -8 q 106 32 151 1 q 36 107 60 63 q 9 208 13 151 q 17 325 6 264 q 45 417 25 368 q 101 510 65 467 q 192 589 138 554 q 324 639 246 624 l 363 843 q 424 839 396 843 q 482 822 453 835 l 446 649 z "},"ʼ":{"ha":324,"x_min":164,"x_max":376,"o":"m 342 996 q 372 955 367 985 q 358 882 376 925 q 314 751 338 832 q 267 571 290 671 q 213 576 239 571 q 164 592 186 581 q 187 780 179 685 q 194 954 194 875 q 274 969 236 958 q 342 996 311 979 z "}}}
